RangeenFColr0.ttx.ufo
<glyph name="quotesingle" format="2">
  <advance width="157"/>
  <unicode hex="0027"/>
  <outline>
    <contour>
      <point x="102" y="728" type="line"/>
      <point x="102" y="737"/>
      <point x="89" y="750"/>
      <point x="71" y="750"/>
      <point x="58" y="738"/>
      <point x="58" y="729" type="qcurve"/>
      <point x="55" y="618" type="line"/>
      <point x="55" y="617" type="line"/>
      <point x="55" y="608"/>
      <point x="68" y="595"/>
      <point x="86" y="595"/>
      <point x="99" y="607"/>
      <point x="99" y="616" type="qcurve"/>
      <point x="102" y="727" type="line"/>
    </contour>
    <contour>
      <point x="88" y="590"/>
      <point x="66" y="590"/>
      <point x="50" y="606"/>
      <point x="50" y="617" type="qcurve"/>
      <point x="50" y="618" type="line"/>
      <point x="53" y="729" type="line"/>
      <point x="53" y="740"/>
      <point x="69" y="755"/>
      <point x="91" y="755"/>
      <point x="107" y="739"/>
      <point x="107" y="728" type="qcurve"/>
      <point x="107" y="727" type="line"/>
      <point x="104" y="616" type="line"/>
      <point x="104" y="605"/>
    </contour>
  </outline>
</glyph>
<glyph name="plus" format="2">
  <advance width="434"/>
  <unicode hex="002B"/>
  <outline>
    <contour>
      <point x="55" y="420"/>
      <point x="55" y="402"/>
      <point x="68" y="389"/>
      <point x="77" y="389" type="qcurve"/>
      <point x="184" y="389" type="line"/>
      <point x="187" y="389"/>
      <point x="187" y="386" type="qcurve"/>
      <point x="187" y="273" type="line"/>
      <point x="187" y="264"/>
      <point x="200" y="251"/>
      <point x="218" y="251"/>
      <point x="231" y="264"/>
      <point x="231" y="273" type="qcurve"/>
      <point x="231" y="386" type="line"/>
      <point x="231" y="389"/>
      <point x="234" y="389" type="qcurve"/>
      <point x="357" y="389" type="line"/>
      <point x="366" y="389"/>
      <point x="379" y="402"/>
      <point x="379" y="420"/>
      <point x="366" y="433"/>
      <point x="357" y="433" type="qcurve"/>
      <point x="234" y="433" type="line"/>
      <point x="231" y="433"/>
      <point x="231" y="436" type="qcurve"/>
      <point x="231" y="554" type="line"/>
      <point x="231" y="563"/>
      <point x="218" y="576"/>
      <point x="200" y="576"/>
      <point x="187" y="563"/>
      <point x="187" y="554" type="qcurve"/>
      <point x="187" y="436" type="line"/>
      <point x="187" y="433"/>
      <point x="184" y="433" type="qcurve"/>
      <point x="77" y="433" type="line"/>
      <point x="68" y="433"/>
    </contour>
    <contour>
      <point x="220" y="246"/>
      <point x="198" y="246"/>
      <point x="182" y="262"/>
      <point x="182" y="273" type="qcurve"/>
      <point x="182" y="384" type="line"/>
      <point x="77" y="384" type="line"/>
      <point x="66" y="384"/>
      <point x="50" y="400"/>
      <point x="50" y="422"/>
      <point x="66" y="438"/>
      <point x="77" y="438" type="qcurve"/>
      <point x="182" y="438" type="line"/>
      <point x="182" y="554" type="line"/>
      <point x="182" y="565"/>
      <point x="198" y="581"/>
      <point x="220" y="581"/>
      <point x="236" y="565"/>
      <point x="236" y="554" type="qcurve"/>
      <point x="236" y="438" type="line"/>
      <point x="357" y="438" type="line"/>
      <point x="368" y="438"/>
      <point x="384" y="422"/>
      <point x="384" y="400"/>
      <point x="368" y="384"/>
      <point x="357" y="384" type="qcurve"/>
      <point x="236" y="384" type="line"/>
      <point x="236" y="273" type="line"/>
      <point x="236" y="262"/>
    </contour>
  </outline>
</glyph>
<glyph name="colon" format="2">
  <advance width="154"/>
  <unicode hex="003A"/>
  <outline>
    <contour>
      <point x="86" y="461"/>
      <point x="68" y="461"/>
      <point x="55" y="448"/>
      <point x="55" y="430"/>
      <point x="68" y="417"/>
      <point x="86" y="417"/>
      <point x="99" y="430"/>
      <point x="99" y="448"/>
    </contour>
    <contour>
      <point x="88" y="412"/>
      <point x="66" y="412"/>
      <point x="50" y="428"/>
      <point x="50" y="450"/>
      <point x="66" y="466"/>
      <point x="88" y="466"/>
      <point x="104" y="450"/>
      <point x="104" y="428"/>
    </contour>
    <contour>
      <point x="86" y="51"/>
      <point x="68" y="51"/>
      <point x="55" y="38"/>
      <point x="55" y="20"/>
      <point x="68" y="7"/>
      <point x="86" y="7"/>
      <point x="99" y="20"/>
      <point x="99" y="38"/>
    </contour>
    <contour>
      <point x="88" y="2"/>
      <point x="66" y="2"/>
      <point x="50" y="18"/>
      <point x="50" y="40"/>
      <point x="66" y="56"/>
      <point x="88" y="56"/>
      <point x="104" y="40"/>
      <point x="104" y="18"/>
    </contour>
  </outline>
</glyph>
<glyph name="B" format="2">
  <advance width="547"/>
  <unicode hex="0042"/>
  <outline>
    <contour>
      <point x="208" y="751" type="qcurve"/>
      <point x="218" y="751"/>
      <point x="262" y="742"/>
      <point x="272" y="742" type="qcurve"/>
      <point x="277" y="742" type="line"/>
      <point x="284" y="742"/>
      <point x="319" y="722"/>
      <point x="328" y="721" type="qcurve"/>
      <point x="376" y="713"/>
      <point x="437" y="633"/>
      <point x="438" y="581" type="qcurve"/>
      <point x="438" y="540"/>
      <point x="325" y="471"/>
      <point x="280" y="471" type="qcurve"/>
      <point x="270" y="471"/>
      <point x="256" y="492"/>
      <point x="245" y="492" type="qcurve"/>
      <point x="232" y="492"/>
      <point x="208" y="473"/>
      <point x="208" y="460" type="qcurve"/>
      <point x="208" y="431"/>
      <point x="257" y="380"/>
      <point x="328" y="338"/>
      <point x="399" y="295"/>
      <point x="448" y="232"/>
      <point x="448" y="194" type="qcurve"/>
      <point x="448" y="54"/>
      <point x="311" y="54" type="qcurve"/>
      <point x="301" y="54"/>
      <point x="235" y="77"/>
      <point x="232" y="86" type="qcurve"/>
      <point x="204" y="162" type="line"/>
      <point x="204" y="163" type="line"/>
      <point x="201" y="228" type="line"/>
      <point x="199" y="249"/>
      <point x="179" y="249" type="qcurve"/>
      <point x="170" y="249"/>
      <point x="157" y="236"/>
      <point x="157" y="227" type="qcurve"/>
      <point x="157" y="226" type="line"/>
      <point x="160" y="157" type="line"/>
      <point x="160" y="152"/>
      <point x="161" y="150" type="qcurve"/>
      <point x="194" y="60" type="line"/>
      <point x="200" y="43"/>
      <point x="285" y="10"/>
      <point x="311" y="10" type="qcurve"/>
      <point x="395" y="10"/>
      <point x="492" y="109"/>
      <point x="492" y="194" type="qcurve"/>
      <point x="492" y="226"/>
      <point x="463" y="289"/>
      <point x="430" y="332"/>
      <point x="367" y="382"/>
      <point x="334" y="404"/>
      <point x="303" y="423" type="qcurve"/>
      <point x="302" y="423"/>
      <point x="302" y="425" type="qcurve"/>
      <point x="421" y="479"/>
      <point x="435" y="493" type="qcurve"/>
      <point x="483" y="541"/>
      <point x="483" y="578" type="qcurve"/>
      <point x="483" y="648"/>
      <point x="400" y="754"/>
      <point x="336" y="765" type="qcurve"/>
      <point x="329" y="766"/>
      <point x="293" y="787"/>
      <point x="278" y="787" type="qcurve"/>
      <point x="271" y="787" type="line"/>
      <point x="262" y="787"/>
      <point x="218" y="796"/>
      <point x="208" y="796" type="qcurve"/>
      <point x="176" y="796"/>
      <point x="129" y="763"/>
      <point x="102" y="703"/>
      <point x="88" y="650"/>
      <point x="82" y="615" type="qcurve"/>
      <point x="64" y="504" type="line"/>
      <point x="64" y="501" type="line"/>
      <point x="55" y="294" type="line"/>
      <point x="55" y="293" type="line"/>
      <point x="55" y="291" type="line"/>
      <point x="67" y="171" type="line"/>
      <point x="71" y="128"/>
      <point x="117" y="-17"/>
      <point x="143" y="-17" type="qcurve"/>
      <point x="152" y="-17"/>
      <point x="165" y="-4"/>
      <point x="165" y="5" type="qcurve"/>
      <point x="165" y="33"/>
      <point x="113" y="152"/>
      <point x="111" y="177" type="qcurve"/>
      <point x="100" y="293" type="line"/>
      <point x="100" y="294" type="line"/>
      <point x="108" y="498" type="line"/>
      <point x="126" y="606" type="line"/>
      <point x="131" y="635"/>
      <point x="138" y="669"/>
      <point x="156" y="723"/>
      <point x="187" y="751"/>
    </contour>
    <contour>
      <point x="170" y="5" type="qcurve"/>
      <point x="170" y="-6"/>
      <point x="154" y="-22"/>
      <point x="143" y="-22" type="qcurve"/>
      <point x="117" y="-22"/>
      <point x="67" y="126"/>
      <point x="62" y="170" type="qcurve"/>
      <point x="50" y="290" type="line"/>
      <point x="50" y="293" type="line"/>
      <point x="50" y="294" type="line"/>
      <point x="59" y="501" type="line"/>
      <point x="59" y="504" type="line"/>
      <point x="77" y="615" type="line"/>
      <point x="83" y="652"/>
      <point x="97" y="706"/>
      <point x="126" y="768"/>
      <point x="175" y="801"/>
      <point x="208" y="801" type="qcurve"/>
      <point x="219" y="801"/>
      <point x="265" y="793"/>
      <point x="271" y="792" type="qcurve"/>
      <point x="278" y="792" type="line"/>
      <point x="361" y="792"/>
      <point x="488" y="661"/>
      <point x="488" y="578" type="qcurve"/>
      <point x="488" y="524"/>
      <point x="370" y="433"/>
      <point x="312" y="423" type="qcurve"/>
      <point x="349" y="400"/>
      <point x="395" y="367"/>
      <point x="462" y="306"/>
      <point x="497" y="234"/>
      <point x="497" y="194" type="qcurve"/>
      <point x="497" y="107"/>
      <point x="397" y="5"/>
      <point x="311" y="5" type="qcurve"/>
      <point x="282" y="5"/>
      <point x="196" y="41"/>
      <point x="189" y="59" type="qcurve"/>
      <point x="156" y="149" type="line"/>
      <point x="155" y="152"/>
      <point x="155" y="157" type="qcurve"/>
      <point x="152" y="226" type="line"/>
      <point x="152" y="227" type="line"/>
      <point x="152" y="238"/>
      <point x="168" y="254"/>
      <point x="179" y="254" type="qcurve"/>
      <point x="189" y="254"/>
      <point x="205" y="239"/>
      <point x="206" y="228" type="qcurve"/>
      <point x="209" y="163" type="line"/>
      <point x="237" y="89" type="line"/>
      <point x="241" y="87"/>
      <point x="267" y="74"/>
      <point x="283" y="66"/>
      <point x="304" y="59"/>
      <point x="311" y="59" type="qcurve"/>
      <point x="443" y="59"/>
      <point x="443" y="194" type="qcurve"/>
      <point x="443" y="234"/>
      <point x="391" y="305"/>
      <point x="326" y="346"/>
      <point x="245" y="398"/>
      <point x="228" y="415" type="qcurve"/>
      <point x="217" y="426"/>
      <point x="215" y="435" type="qcurve"/>
      <point x="203" y="445"/>
      <point x="203" y="460" type="qcurve"/>
      <point x="203" y="476"/>
      <point x="229" y="497"/>
      <point x="245" y="497" type="qcurve"/>
      <point x="255" y="497"/>
      <point x="273" y="476"/>
      <point x="280" y="476" type="qcurve"/>
      <point x="327" y="476"/>
      <point x="420" y="540"/>
      <point x="433" y="582" type="qcurve"/>
      <point x="432" y="612"/>
      <point x="418" y="654"/>
      <point x="386" y="682"/>
      <point x="358" y="698"/>
      <point x="307" y="722"/>
      <point x="293" y="730" type="qcurve"/>
      <point x="281" y="737"/>
      <point x="277" y="737" type="qcurve"/>
      <point x="272" y="737" type="line"/>
      <point x="262" y="737"/>
      <point x="218" y="746"/>
      <point x="208" y="746" type="qcurve"/>
      <point x="193" y="746"/>
      <point x="171" y="732"/>
      <point x="157" y="702"/>
      <point x="151" y="683"/>
      <point x="146" y="664" type="qcurve"/>
      <point x="131" y="605" type="line"/>
      <point x="113" y="497" type="line"/>
      <point x="105" y="294" type="line"/>
      <point x="116" y="178" type="line"/>
      <point x="118" y="172"/>
      <point x="170" y="36"/>
    </contour>
  </outline>
</glyph>
<glyph name="R" format="2">
  <advance width="678"/>
  <unicode hex="0052"/>
  <outline>
    <contour>
      <point x="337" y="358" type="qcurve"/>
      <point x="344" y="358"/>
      <point x="358" y="240"/>
      <point x="377" y="98"/>
      <point x="444" y="-20"/>
      <point x="497" y="-20" type="qcurve"/>
      <point x="528" y="-20"/>
      <point x="599" y="39"/>
      <point x="610" y="65" type="qcurve"/>
      <point x="622" y="93" type="line"/>
      <point x="623" y="96"/>
      <point x="623" y="102" type="qcurve"/>
      <point x="623" y="111"/>
      <point x="610" y="124"/>
      <point x="601" y="124" type="qcurve"/>
      <point x="585" y="124"/>
      <point x="580" y="111" type="qcurve"/>
      <point x="571" y="88" type="line"/>
      <point x="564" y="73"/>
      <point x="512" y="24"/>
      <point x="497" y="24" type="qcurve"/>
      <point x="463" y="24"/>
      <point x="415" y="98"/>
      <point x="395" y="218"/>
      <point x="387" y="315"/>
      <point x="387" y="364" type="qcurve"/>
      <point x="467" y="412"/>
      <point x="494" y="437" type="qcurve"/>
      <point x="549" y="488"/>
      <point x="549" y="548" type="qcurve"/>
      <point x="549" y="676"/>
      <point x="397" y="808"/>
      <point x="258" y="808" type="qcurve"/>
      <point x="210" y="808"/>
      <point x="141" y="761"/>
      <point x="104" y="680"/>
      <point x="88" y="590"/>
      <point x="88" y="538" type="qcurve"/>
      <point x="88" y="529"/>
      <point x="102" y="516"/>
      <point x="111" y="516" type="qcurve"/>
      <point x="126" y="516"/>
      <point x="142" y="567"/>
      <point x="154" y="640"/>
      <point x="173" y="713"/>
      <point x="220" y="764"/>
      <point x="257" y="764" type="qcurve"/>
      <point x="261" y="764"/>
      <point x="280" y="762"/>
      <point x="285" y="762" type="qcurve"/>
      <point x="393" y="762"/>
      <point x="504" y="652"/>
      <point x="504" y="548" type="qcurve"/>
      <point x="504" y="511"/>
      <point x="418" y="411"/>
      <point x="380" y="411" type="qcurve"/>
      <point x="372" y="411"/>
      <point x="348" y="476"/>
      <point x="310" y="540"/>
      <point x="285" y="540" type="qcurve"/>
      <point x="274" y="540"/>
      <point x="259" y="519"/>
      <point x="256" y="508" type="qcurve"/>
      <point x="252" y="498" type="line"/>
      <point x="247" y="498"/>
      <point x="224" y="626"/>
      <point x="224" y="640" type="qcurve"/>
      <point x="224" y="642"/>
      <point x="225" y="652"/>
      <point x="225" y="654" type="qcurve"/>
      <point x="225" y="663"/>
      <point x="212" y="676"/>
      <point x="203" y="676" type="qcurve"/>
      <point x="178" y="676"/>
      <point x="178" y="640" type="qcurve"/>
      <point x="178" y="580"/>
      <point x="234" y="324"/>
      <point x="234" y="258" type="qcurve"/>
      <point x="234" y="245"/>
      <point x="236" y="195"/>
      <point x="236" y="181" type="qcurve"/>
      <point x="236" y="6"/>
      <point x="177" y="6" type="qcurve"/>
      <point x="161" y="6"/>
      <point x="115" y="38"/>
      <point x="115" y="52" type="qcurve"/>
      <point x="115" y="60"/>
      <point x="139" y="77"/>
      <point x="139" y="88" type="qcurve"/>
      <point x="139" y="97"/>
      <point x="126" y="111"/>
      <point x="116" y="111" type="qcurve"/>
      <point x="104" y="111"/>
      <point x="55" y="58"/>
      <point x="55" y="43" type="qcurve"/>
      <point x="55" y="23"/>
      <point x="148" y="-38"/>
      <point x="177" y="-38" type="qcurve"/>
      <point x="210" y="-38"/>
      <point x="255" y="1"/>
      <point x="274" y="73"/>
      <point x="281" y="138"/>
      <point x="281" y="181" type="qcurve"/>
      <point x="281" y="195"/>
      <point x="279" y="245"/>
      <point x="279" y="258" type="qcurve"/>
      <point x="279" y="289"/>
      <point x="261" y="408"/>
      <point x="261" y="437" type="qcurve"/>
      <point x="261" y="439"/>
      <point x="264" y="439" type="qcurve"/>
      <point x="271" y="439"/>
      <point x="292" y="398"/>
      <point x="321" y="358"/>
    </contour>
    <contour>
      <point x="497" y="-25" type="qcurve"/>
      <point x="465" y="-25"/>
      <point x="417" y="1"/>
      <point x="386" y="52"/>
      <point x="366" y="108"/>
      <point x="354" y="186"/>
      <point x="348" y="249"/>
      <point x="341" y="330"/>
      <point x="338" y="353" type="qcurve"/>
      <point x="337" y="353" type="line"/>
      <point x="302" y="353"/>
      <point x="270" y="418" type="qcurve"/>
      <point x="284" y="337"/>
      <point x="284" y="258" type="qcurve"/>
      <point x="284" y="245"/>
      <point x="286" y="195"/>
      <point x="286" y="181" type="qcurve"/>
      <point x="286" y="137"/>
      <point x="279" y="70"/>
      <point x="258" y="-3"/>
      <point x="212" y="-43"/>
      <point x="177" y="-43" type="qcurve"/>
      <point x="145" y="-43"/>
      <point x="92" y="-9"/>
      <point x="76" y="16" type="qcurve"/>
      <point x="66" y="17"/>
      <point x="50" y="33"/>
      <point x="50" y="43" type="qcurve"/>
      <point x="50" y="61"/>
      <point x="101" y="116"/>
      <point x="116" y="116" type="qcurve"/>
      <point x="128" y="116"/>
      <point x="144" y="99"/>
      <point x="144" y="88" type="qcurve"/>
      <point x="144" y="79"/>
      <point x="137" y="68"/>
      <point x="122" y="54"/>
      <point x="120" y="51" type="qcurve"/>
      <point x="126" y="37"/>
      <point x="161" y="11"/>
      <point x="177" y="11" type="qcurve"/>
      <point x="231" y="11"/>
      <point x="231" y="181" type="qcurve"/>
      <point x="231" y="195"/>
      <point x="230" y="245"/>
      <point x="230" y="258" type="qcurve"/>
      <point x="230" y="324"/>
      <point x="174" y="580"/>
      <point x="174" y="640" type="qcurve"/>
      <point x="174" y="681"/>
      <point x="203" y="681" type="qcurve"/>
      <point x="214" y="681"/>
      <point x="230" y="665"/>
      <point x="230" y="654" type="qcurve"/>
      <point x="230" y="644"/>
      <point x="229" y="640" type="qcurve"/>
      <point x="236" y="592"/>
      <point x="251" y="518" type="qcurve"/>
      <point x="254" y="529"/>
      <point x="273" y="545"/>
      <point x="285" y="545" type="qcurve"/>
      <point x="320" y="545"/>
      <point x="369" y="464"/>
      <point x="382" y="417" type="qcurve"/>
      <point x="423" y="433"/>
      <point x="500" y="509"/>
      <point x="500" y="548" type="qcurve"/>
      <point x="500" y="649"/>
      <point x="391" y="757"/>
      <point x="285" y="757" type="qcurve"/>
      <point x="280" y="757"/>
      <point x="261" y="759"/>
      <point x="257" y="759" type="qcurve"/>
      <point x="220" y="759"/>
      <point x="174" y="708"/>
      <point x="158" y="635"/>
      <point x="147" y="562"/>
      <point x="129" y="511"/>
      <point x="111" y="511" type="qcurve"/>
      <point x="100" y="511"/>
      <point x="84" y="527"/>
      <point x="84" y="538" type="qcurve"/>
      <point x="84" y="591"/>
      <point x="101" y="682"/>
      <point x="138" y="765"/>
      <point x="209" y="813"/>
      <point x="258" y="813" type="qcurve"/>
      <point x="399" y="813"/>
      <point x="554" y="678"/>
      <point x="554" y="548" type="qcurve"/>
      <point x="554" y="485"/>
      <point x="454" y="382"/>
      <point x="393" y="362" type="qcurve"/>
      <point x="396" y="343"/>
      <point x="402" y="243"/>
      <point x="410" y="163"/>
      <point x="429" y="78"/>
      <point x="468" y="29"/>
      <point x="497" y="29" type="qcurve"/>
      <point x="508" y="29"/>
      <point x="534" y="52"/>
      <point x="562" y="87"/>
      <point x="566" y="91" type="qcurve"/>
      <point x="576" y="113" type="line"/>
      <point x="583" y="129"/>
      <point x="601" y="129" type="qcurve"/>
      <point x="612" y="129"/>
      <point x="628" y="113"/>
      <point x="628" y="102" type="qcurve"/>
      <point x="628" y="97"/>
      <point x="626" y="91" type="qcurve"/>
      <point x="614" y="63" type="line"/>
      <point x="602" y="34"/>
      <point x="530" y="-25"/>
    </contour>
  </outline>
</glyph>
<glyph name="S" format="2">
  <advance width="586"/>
  <unicode hex="0053"/>
  <outline>
    <contour>
      <point x="289" y="757" type="qcurve"/>
      <point x="268" y="757"/>
      <point x="258" y="757"/>
      <point x="228" y="756"/>
      <point x="221" y="753"/>
      <point x="202" y="748"/>
      <point x="198" y="740"/>
      <point x="188" y="729"/>
      <point x="187" y="712"/>
      <point x="184" y="692"/>
      <point x="184" y="678" type="qcurve"/>
      <point x="184" y="568"/>
      <point x="282" y="485" type="qcurve"/>
      <point x="316" y="551"/>
      <point x="350" y="653"/>
      <point x="350" y="716" type="qcurve"/>
      <point x="350" y="741"/>
      <point x="323" y="757"/>
    </contour>
    <contour>
      <point x="289" y="762" type="qcurve"/>
      <point x="324" y="762"/>
      <point x="355" y="744"/>
      <point x="355" y="716" type="qcurve"/>
      <point x="355" y="652"/>
      <point x="320" y="547"/>
      <point x="285" y="479" type="qcurve"/>
      <point x="285" y="478"/>
      <point x="283" y="478" type="qcurve"/>
      <point x="280" y="478"/>
      <point x="271" y="485"/>
      <point x="264" y="492"/>
      <point x="255" y="502"/>
      <point x="254" y="503" type="qcurve"/>
      <point x="179" y="578"/>
      <point x="179" y="678" type="qcurve"/>
      <point x="179" y="737"/>
      <point x="218" y="762"/>
    </contour>
    <contour>
      <point x="240" y="229" type="qcurve"/>
      <point x="261" y="254"/>
      <point x="296" y="254" type="qcurve"/>
      <point x="337" y="254"/>
      <point x="410" y="194"/>
      <point x="410" y="153" type="qcurve"/>
      <point x="410" y="130"/>
      <point x="374" y="81"/>
      <point x="351" y="81" type="qcurve"/>
      <point x="303" y="81"/>
      <point x="282" y="110" type="qcurve"/>
      <point x="309" y="3"/>
      <point x="349" y="3" type="qcurve"/>
      <point x="402" y="3"/>
      <point x="482" y="100"/>
      <point x="482" y="154" type="qcurve"/>
      <point x="482" y="181"/>
      <point x="472" y="228"/>
      <point x="446" y="272"/>
      <point x="428" y="300"/>
      <point x="381" y="340"/>
      <point x="364" y="355"/>
      <point x="306" y="396"/>
      <point x="301" y="400" type="qcurve"/>
      <point x="264" y="327"/>
    </contour>
    <contour>
      <point x="296" y="199" type="qcurve"/>
      <point x="283" y="199"/>
      <point x="274" y="183"/>
      <point x="274" y="162" type="qcurve"/>
      <point x="274" y="157"/>
      <point x="278" y="131" type="qcurve"/>
      <point x="280" y="140"/>
      <point x="295" y="153"/>
      <point x="305" y="153" type="qcurve"/>
      <point x="317" y="153"/>
      <point x="324" y="146" type="qcurve"/>
      <point x="332" y="138"/>
      <point x="344" y="136" type="qcurve"/>
      <point x="355" y="143"/>
      <point x="355" y="152" type="qcurve"/>
      <point x="355" y="169"/>
      <point x="312" y="199"/>
    </contour>
    <contour>
      <point x="345" y="131" type="qcurve"/>
      <point x="330" y="131"/>
      <point x="314" y="148"/>
      <point x="296" y="148"/>
      <point x="283" y="135"/>
      <point x="283" y="126" type="qcurve"/>
      <point x="283" y="111"/>
      <point x="320" y="86"/>
      <point x="351" y="86" type="qcurve"/>
      <point x="372" y="86"/>
      <point x="405" y="132"/>
      <point x="405" y="153" type="qcurve"/>
      <point x="405" y="192"/>
      <point x="335" y="249"/>
      <point x="296" y="249" type="qcurve"/>
      <point x="281" y="249"/>
      <point x="238" y="214"/>
      <point x="234" y="214" type="qcurve"/>
      <point x="232" y="214"/>
      <point x="232" y="216" type="qcurve"/>
      <point x="232" y="243"/>
      <point x="286" y="406"/>
      <point x="300" y="406" type="qcurve"/>
      <point x="325" y="406"/>
      <point x="417" y="314" type="qcurve"/>
      <point x="487" y="244"/>
      <point x="487" y="154" type="qcurve"/>
      <point x="487" y="98"/>
      <point x="404" y="-2"/>
      <point x="349" y="-2" type="qcurve"/>
      <point x="316" y="-2"/>
      <point x="269" y="118"/>
      <point x="269" y="162" type="qcurve"/>
      <point x="269" y="204"/>
      <point x="296" y="204" type="qcurve"/>
      <point x="315" y="204"/>
      <point x="360" y="171"/>
      <point x="360" y="152" type="qcurve"/>
      <point x="360" y="147"/>
      <point x="350" y="131"/>
    </contour>
    <contour>
      <point x="77" y="-28" type="qcurve"/>
      <point x="110" y="-28"/>
      <point x="166" y="56"/>
      <point x="211" y="162"/>
      <point x="222" y="173" type="qcurve"/>
      <point x="225" y="173"/>
      <point x="225" y="170" type="qcurve"/>
      <point x="225" y="162" type="line"/>
      <point x="225" y="93"/>
      <point x="293" y="-46"/>
      <point x="349" y="-46" type="qcurve"/>
      <point x="424" y="-46"/>
      <point x="531" y="79"/>
      <point x="531" y="154" type="qcurve"/>
      <point x="531" y="182"/>
      <point x="519" y="235"/>
      <point x="504" y="275"/>
      <point x="472" y="320"/>
      <point x="450" y="346"/>
      <point x="404" y="385"/>
      <point x="382" y="402"/>
      <point x="329" y="441"/>
      <point x="321" y="447" type="qcurve"/>
      <point x="320" y="447"/>
      <point x="320" y="449" type="qcurve"/>
      <point x="321" y="450" type="line"/>
      <point x="346" y="498"/>
      <point x="374" y="563"/>
      <point x="399" y="664"/>
      <point x="399" y="716" type="qcurve"/>
      <point x="399" y="762"/>
      <point x="337" y="806"/>
      <point x="289" y="806" type="qcurve"/>
      <point x="201" y="806"/>
      <point x="135" y="758"/>
      <point x="135" y="678" type="qcurve"/>
      <point x="135" y="540"/>
      <point x="261" y="437" type="qcurve"/>
      <point x="262" y="437"/>
      <point x="262" y="435" type="qcurve"/>
      <point x="262" y="413"/>
      <point x="205" y="296"/>
      <point x="199" y="273" type="qcurve"/>
      <point x="169" y="153"/>
      <point x="152" y="115" type="qcurve"/>
      <point x="121" y="47"/>
      <point x="67" y="20" type="qcurve"/>
      <point x="55" y="13"/>
      <point x="55" y="0" type="qcurve"/>
      <point x="55" y="-6" type="line"/>
      <point x="55" y="-15"/>
      <point x="68" y="-28"/>
    </contour>
    <contour>
      <point x="77" y="-33" type="qcurve"/>
      <point x="66" y="-33"/>
      <point x="50" y="-17"/>
      <point x="50" y="-6" type="qcurve"/>
      <point x="50" y="0" type="line"/>
      <point x="50" y="11"/>
      <point x="70" y="31"/>
      <point x="101" y="50"/>
      <point x="105" y="54" type="qcurve"/>
      <point x="140" y="89"/>
      <point x="191" y="230"/>
      <point x="237" y="395"/>
      <point x="256" y="434" type="qcurve"/>
      <point x="130" y="537"/>
      <point x="130" y="678" type="qcurve"/>
      <point x="130" y="759"/>
      <point x="199" y="811"/>
      <point x="289" y="811" type="qcurve"/>
      <point x="339" y="811"/>
      <point x="404" y="764"/>
      <point x="404" y="716" type="qcurve"/>
      <point x="404" y="665"/>
      <point x="379" y="562"/>
      <point x="351" y="499"/>
      <point x="326" y="450" type="qcurve"/>
      <point x="333" y="445"/>
      <point x="388" y="404"/>
      <point x="408" y="389"/>
      <point x="456" y="348"/>
      <point x="477" y="322"/>
      <point x="510" y="277"/>
      <point x="524" y="237"/>
      <point x="536" y="183"/>
      <point x="536" y="154" type="qcurve"/>
      <point x="536" y="77"/>
      <point x="426" y="-51"/>
      <point x="349" y="-51" type="qcurve"/>
      <point x="309" y="-51"/>
      <point x="249" y="21"/>
      <point x="222" y="110"/>
      <point x="220" y="153" type="qcurve"/>
      <point x="182" y="31"/>
      <point x="102" y="-18" type="qcurve"/>
      <point x="95" y="-33"/>
    </contour>
  </outline>
</glyph>
<glyph name="W" format="2">
  <advance width="919"/>
  <unicode hex="0057"/>
  <outline>
    <contour>
      <point x="175" y="758" type="qcurve"/>
      <point x="151" y="758"/>
      <point x="122" y="722"/>
      <point x="96" y="686"/>
      <point x="77" y="686" type="qcurve"/>
      <point x="66" y="686"/>
      <point x="50" y="702"/>
      <point x="50" y="713" type="qcurve"/>
      <point x="50" y="747"/>
      <point x="135" y="812"/>
      <point x="176" y="812" type="qcurve"/>
      <point x="195" y="812"/>
      <point x="224" y="787"/>
      <point x="238" y="756"/>
      <point x="262" y="731"/>
      <point x="278" y="731" type="qcurve"/>
      <point x="284" y="731" type="line"/>
      <point x="292" y="737"/>
      <point x="306" y="775"/>
      <point x="324" y="803"/>
      <point x="340" y="803" type="qcurve"/>
      <point x="369" y="803"/>
      <point x="369" y="765" type="qcurve"/>
      <point x="369" y="650"/>
      <point x="287" y="211"/>
      <point x="287" y="98" type="qcurve"/>
      <point x="287" y="78"/>
      <point x="289" y="53"/>
      <point x="301" y="36"/>
      <point x="309" y="27"/>
      <point x="338" y="23"/>
      <point x="353" y="23"/>
      <point x="377" y="23" type="qcurve"/>
      <point x="405" y="23"/>
      <point x="437" y="44"/>
      <point x="466" y="84"/>
      <point x="478" y="93" type="qcurve"/>
      <point x="494" y="178" type="line"/>
      <point x="496" y="187"/>
      <point x="511" y="200"/>
      <point x="521" y="200" type="qcurve"/>
      <point x="532" y="200"/>
      <point x="548" y="185"/>
      <point x="548" y="174" type="qcurve"/>
      <point x="551" y="42" type="line"/>
      <point x="558" y="11"/>
      <point x="565" y="11" type="qcurve"/>
      <point x="623" y="11"/>
      <point x="702" y="64"/>
      <point x="741" y="162"/>
      <point x="756" y="268"/>
      <point x="756" y="337" type="qcurve"/>
      <point x="756" y="507"/>
      <point x="740" y="507" type="qcurve"/>
      <point x="732" y="507"/>
      <point x="704" y="503"/>
      <point x="697" y="503" type="qcurve"/>
      <point x="636" y="503"/>
      <point x="542" y="584"/>
      <point x="542" y="644" type="qcurve"/>
      <point x="542" y="708"/>
      <point x="619" y="815"/>
      <point x="677" y="815" type="qcurve"/>
      <point x="754" y="815"/>
      <point x="792" y="592" type="qcurve"/>
      <point x="794" y="581"/>
      <point x="795" y="576" type="qcurve"/>
      <point x="824" y="601" type="line"/>
      <point x="831" y="608"/>
      <point x="853" y="608"/>
      <point x="869" y="592"/>
      <point x="869" y="581" type="qcurve"/>
      <point x="869" y="568"/>
      <point x="860" y="561" type="qcurve"/>
      <point x="827" y="531" type="line"/>
      <point x="823" y="527"/>
      <point x="803" y="515" type="qcurve"/>
      <point x="811" y="401"/>
      <point x="811" y="338" type="qcurve"/>
      <point x="811" y="-44"/>
      <point x="565" y="-44" type="qcurve"/>
      <point x="535" y="-44"/>
      <point x="500" y="3"/>
      <point x="497" y="35" type="qcurve"/>
      <point x="496" y="33"/>
      <point x="477" y="12"/>
      <point x="473" y="8"/>
      <point x="455" y="-9"/>
      <point x="447" y="-14"/>
      <point x="428" y="-24"/>
      <point x="412" y="-27"/>
      <point x="390" y="-31"/>
      <point x="377" y="-31" type="qcurve"/>
      <point x="299" y="-31"/>
      <point x="233" y="25"/>
      <point x="233" y="98" type="qcurve"/>
      <point x="233" y="214"/>
      <point x="303" y="614"/>
      <point x="309" y="682" type="qcurve"/>
      <point x="297" y="675"/>
      <point x="285" y="675" type="qcurve"/>
      <point x="254" y="675"/>
      <point x="217" y="704"/>
      <point x="188" y="749"/>
    </contour>
    <contour>
      <point x="176" y="807" type="qcurve"/>
      <point x="137" y="807"/>
      <point x="55" y="745"/>
      <point x="55" y="713" type="qcurve"/>
      <point x="55" y="704"/>
      <point x="68" y="691"/>
      <point x="77" y="691" type="qcurve"/>
      <point x="92" y="691"/>
      <point x="114" y="714"/>
      <point x="128" y="740"/>
      <point x="157" y="763"/>
      <point x="176" y="763" type="qcurve"/>
      <point x="186" y="763"/>
      <point x="218" y="722"/>
      <point x="261" y="680"/>
      <point x="285" y="680" type="qcurve"/>
      <point x="290" y="680"/>
      <point x="308" y="689"/>
      <point x="312" y="689" type="qcurve"/>
      <point x="315" y="689"/>
      <point x="315" y="686" type="qcurve"/>
      <point x="315" y="590"/>
      <point x="238" y="202"/>
      <point x="238" y="98" type="qcurve"/>
      <point x="238" y="27"/>
      <point x="301" y="-26"/>
      <point x="377" y="-26" type="qcurve"/>
      <point x="397" y="-26"/>
      <point x="428" y="-20"/>
      <point x="453" y="-3"/>
      <point x="466" y="9"/>
      <point x="491" y="37"/>
      <point x="497" y="43" type="qcurve"/>
      <point x="498" y="44"/>
      <point x="499" y="44" type="qcurve"/>
      <point x="502" y="44"/>
      <point x="516" y="2"/>
      <point x="544" y="-39"/>
      <point x="565" y="-39" type="qcurve"/>
      <point x="806" y="-39"/>
      <point x="806" y="338" type="qcurve"/>
      <point x="806" y="372"/>
      <point x="798" y="488"/>
      <point x="798" y="516" type="qcurve"/>
      <point x="798" y="518"/>
      <point x="810" y="527"/>
      <point x="817" y="530" type="qcurve"/>
      <point x="824" y="534" type="line"/>
      <point x="857" y="564" type="line"/>
      <point x="864" y="570"/>
      <point x="864" y="581" type="qcurve"/>
      <point x="864" y="590"/>
      <point x="851" y="603"/>
      <point x="842" y="603" type="qcurve"/>
      <point x="832" y="603"/>
      <point x="827" y="598" type="qcurve"/>
      <point x="795" y="569" type="line"/>
      <point x="795" y="568"/>
      <point x="794" y="568" type="qcurve"/>
      <point x="785" y="568"/>
      <point x="767" y="644"/>
      <point x="751" y="734"/>
      <point x="708" y="810"/>
      <point x="677" y="810" type="qcurve"/>
      <point x="621" y="810"/>
      <point x="547" y="705"/>
      <point x="547" y="644" type="qcurve"/>
      <point x="547" y="586"/>
      <point x="638" y="508"/>
      <point x="697" y="508" type="qcurve"/>
      <point x="704" y="508"/>
      <point x="732" y="512"/>
      <point x="740" y="512" type="qcurve"/>
      <point x="746" y="512"/>
      <point x="754" y="497"/>
      <point x="758" y="469"/>
      <point x="761" y="440"/>
      <point x="762" y="401"/>
      <point x="762" y="374"/>
      <point x="761" y="341"/>
      <point x="761" y="337" type="qcurve"/>
      <point x="761" y="267"/>
      <point x="745" y="159"/>
      <point x="705" y="60"/>
      <point x="624" y="6"/>
      <point x="565" y="6" type="qcurve"/>
      <point x="558" y="6"/>
      <point x="546" y="31"/>
      <point x="546" y="41" type="qcurve"/>
      <point x="543" y="174" type="line"/>
      <point x="543" y="183"/>
      <point x="530" y="195"/>
      <point x="521" y="195" type="qcurve"/>
      <point x="503" y="195"/>
      <point x="499" y="177" type="qcurve"/>
      <point x="483" y="91" type="line"/>
      <point x="479" y="66"/>
      <point x="409" y="18"/>
      <point x="377" y="18" type="qcurve"/>
      <point x="317" y="18"/>
      <point x="282" y="42"/>
      <point x="282" y="98" type="qcurve"/>
      <point x="282" y="211"/>
      <point x="364" y="650"/>
      <point x="364" y="765" type="qcurve"/>
      <point x="364" y="798"/>
      <point x="340" y="798" type="qcurve"/>
      <point x="324" y="798"/>
      <point x="308" y="762"/>
      <point x="296" y="726"/>
      <point x="285" y="726" type="qcurve"/>
      <point x="278" y="726" type="line"/>
      <point x="261" y="726"/>
      <point x="237" y="751"/>
      <point x="223" y="782"/>
      <point x="195" y="807"/>
    </contour>
    <contour>
      <point x="576" y="656" type="qcurve"/>
      <point x="576" y="679"/>
      <point x="637" y="766"/>
      <point x="656" y="766" type="qcurve"/>
      <point x="680" y="766"/>
      <point x="750" y="677"/>
      <point x="750" y="653" type="qcurve"/>
      <point x="750" y="623"/>
      <point x="700" y="542"/>
      <point x="683" y="542" type="qcurve"/>
      <point x="660" y="542"/>
      <point x="576" y="622"/>
    </contour>
    <contour>
      <point x="656" y="762" type="qcurve"/>
      <point x="639" y="762"/>
      <point x="581" y="676"/>
      <point x="581" y="656" type="qcurve"/>
      <point x="581" y="624"/>
      <point x="663" y="547"/>
      <point x="683" y="547" type="qcurve"/>
      <point x="697" y="547"/>
      <point x="744" y="625"/>
      <point x="744" y="653" type="qcurve"/>
      <point x="744" y="674"/>
      <point x="677" y="762"/>
    </contour>
  </outline>
</glyph>
<glyph name="Z" format="2">
  <advance width="484"/>
  <unicode hex="005A"/>
  <outline>
    <contour>
      <point x="434" y="443" type="qcurve"/>
      <point x="434" y="427"/>
      <point x="390" y="379"/>
      <point x="328" y="326"/>
      <point x="323" y="320" type="qcurve"/>
      <point x="353" y="251"/>
      <point x="353" y="221" type="qcurve"/>
      <point x="353" y="203"/>
      <point x="358" y="126"/>
      <point x="358" y="108" type="qcurve"/>
      <point x="358" y="-50"/>
      <point x="248" y="-50" type="qcurve"/>
      <point x="234" y="-50"/>
      <point x="219" y="-47" type="qcurve"/>
      <point x="201" y="-49" type="line"/>
      <point x="131" y="-49"/>
      <point x="131" y="73" type="qcurve"/>
      <point x="131" y="77" type="line"/>
      <point x="131" y="130"/>
      <point x="179" y="249"/>
      <point x="210" y="282" type="qcurve"/>
      <point x="256" y="330" type="line"/>
      <point x="225" y="385"/>
      <point x="179" y="406" type="qcurve"/>
      <point x="164" y="413"/>
      <point x="164" y="431" type="qcurve"/>
      <point x="164" y="476"/>
      <point x="232" y="566"/>
      <point x="314" y="655"/>
      <point x="324" y="688" type="qcurve"/>
      <point x="335" y="724"/>
      <point x="346" y="753" type="qcurve"/>
      <point x="342" y="751"/>
      <point x="308" y="736"/>
      <point x="291" y="730"/>
      <point x="261" y="723"/>
      <point x="248" y="723" type="qcurve"/>
      <point x="219" y="723"/>
      <point x="123" y="745"/>
      <point x="110" y="747" type="qcurve"/>
      <point x="116" y="714"/>
      <point x="116" y="710" type="qcurve"/>
      <point x="116" y="699"/>
      <point x="100" y="683"/>
      <point x="89" y="683" type="qcurve"/>
      <point x="68" y="683"/>
      <point x="50" y="744"/>
      <point x="50" y="776" type="qcurve"/>
      <point x="50" y="787"/>
      <point x="66" y="803"/>
      <point x="77" y="803" type="qcurve"/>
      <point x="82" y="803" type="line"/>
      <point x="92" y="803" type="line"/>
      <point x="118" y="803"/>
      <point x="216" y="779"/>
      <point x="239" y="779" type="qcurve"/>
      <point x="247" y="779" type="line"/>
      <point x="270" y="779"/>
      <point x="353" y="818"/>
      <point x="376" y="818" type="qcurve"/>
      <point x="391" y="818"/>
      <point x="414" y="796"/>
      <point x="414" y="781" type="qcurve"/>
      <point x="414" y="731"/>
      <point x="366" y="632"/>
      <point x="306" y="564"/>
      <point x="237" y="478"/>
      <point x="223" y="445" type="qcurve"/>
      <point x="263" y="420"/>
      <point x="295" y="371" type="qcurve"/>
      <point x="345" y="423" type="line"/>
      <point x="346" y="424" type="line"/>
      <point x="388" y="463" type="line"/>
      <point x="395" y="470"/>
      <point x="407" y="470" type="qcurve"/>
      <point x="418" y="470"/>
      <point x="434" y="454"/>
    </contour>
    <contour>
      <point x="248" y="-45" type="qcurve"/>
      <point x="353" y="-45"/>
      <point x="353" y="108" type="qcurve"/>
      <point x="353" y="126"/>
      <point x="348" y="203"/>
      <point x="348" y="221" type="qcurve"/>
      <point x="348" y="238"/>
      <point x="317" y="303"/>
      <point x="317" y="320" type="qcurve"/>
      <point x="318" y="322" type="line"/>
      <point x="381" y="388" type="line"/>
      <point x="422" y="427" type="line"/>
      <point x="429" y="433"/>
      <point x="429" y="443" type="qcurve"/>
      <point x="429" y="452"/>
      <point x="416" y="465"/>
      <point x="398" y="465"/>
      <point x="392" y="459" type="qcurve"/>
      <point x="350" y="420" type="line"/>
      <point x="349" y="420" type="line"/>
      <point x="297" y="365" type="line"/>
      <point x="296" y="364"/>
      <point x="295" y="364" type="qcurve"/>
      <point x="217" y="444" type="line"/>
      <point x="217" y="482"/>
      <point x="362" y="644"/>
      <point x="371" y="673" type="qcurve"/>
      <point x="373" y="680"/>
      <point x="409" y="760"/>
      <point x="409" y="781" type="qcurve"/>
      <point x="409" y="794"/>
      <point x="390" y="813"/>
      <point x="376" y="813" type="qcurve"/>
      <point x="353" y="813"/>
      <point x="270" y="774"/>
      <point x="247" y="774" type="qcurve"/>
      <point x="239" y="774" type="line"/>
      <point x="216" y="774"/>
      <point x="118" y="798"/>
      <point x="92" y="798" type="qcurve"/>
      <point x="82" y="798" type="line"/>
      <point x="77" y="798" type="line"/>
      <point x="68" y="798"/>
      <point x="55" y="785"/>
      <point x="55" y="776" type="qcurve"/>
      <point x="55" y="747"/>
      <point x="71" y="688"/>
      <point x="89" y="688" type="qcurve"/>
      <point x="98" y="688"/>
      <point x="111" y="701"/>
      <point x="111" y="710" type="qcurve"/>
      <point x="111" y="718"/>
      <point x="104" y="744"/>
      <point x="104" y="750" type="qcurve"/>
      <point x="104" y="753"/>
      <point x="107" y="753" type="qcurve"/>
      <point x="130" y="753"/>
      <point x="222" y="728"/>
      <point x="248" y="728" type="qcurve"/>
      <point x="269" y="728"/>
      <point x="335" y="760"/>
      <point x="351" y="760" type="qcurve"/>
      <point x="353" y="760"/>
      <point x="353" y="758" type="qcurve"/>
      <point x="353" y="716"/>
      <point x="307" y="629"/>
      <point x="248" y="568"/>
      <point x="185" y="490"/>
      <point x="174" y="459" type="qcurve"/>
      <point x="169" y="444"/>
      <point x="169" y="418"/>
      <point x="198" y="393"/>
      <point x="232" y="374"/>
      <point x="261" y="345"/>
      <point x="261" y="329" type="qcurve"/>
      <point x="261" y="328" type="line"/>
      <point x="214" y="279" type="line"/>
      <point x="183" y="247"/>
      <point x="136" y="129"/>
      <point x="136" y="77" type="qcurve"/>
      <point x="136" y="73" type="line"/>
      <point x="136" y="20"/>
      <point x="162" y="-44"/>
      <point x="201" y="-44" type="qcurve"/>
      <point x="204" y="-44"/>
      <point x="216" y="-42"/>
      <point x="219" y="-42" type="qcurve"/>
      <point x="224" y="-42"/>
      <point x="244" y="-45"/>
    </contour>
    <contour>
      <point x="324" y="149" type="qcurve"/>
      <point x="324" y="116"/>
      <point x="267" y="-16"/>
      <point x="243" y="-16" type="qcurve"/>
      <point x="222" y="-16"/>
      <point x="168" y="41"/>
      <point x="168" y="81" type="qcurve"/>
      <point x="168" y="113"/>
      <point x="250" y="296"/>
      <point x="279" y="296" type="qcurve"/>
      <point x="299" y="296"/>
      <point x="324" y="188"/>
    </contour>
    <contour>
      <point x="279" y="290" type="qcurve"/>
      <point x="252" y="290"/>
      <point x="174" y="109"/>
      <point x="174" y="81" type="qcurve"/>
      <point x="174" y="43"/>
      <point x="225" y="-12"/>
      <point x="243" y="-12" type="qcurve"/>
      <point x="265" y="-12"/>
      <point x="320" y="119"/>
      <point x="320" y="149" type="qcurve"/>
      <point x="320" y="183"/>
      <point x="296" y="290"/>
    </contour>
  </outline>
</glyph>
<glyph name="a" format="2">
  <advance width="564"/>
  <unicode hex="0061"/>
  <outline>
    <contour>
      <point x="360" y="311" type="qcurve"/>
      <point x="360" y="317"/>
      <point x="357" y="341"/>
      <point x="357" y="348" type="qcurve"/>
      <point x="357" y="350"/>
      <point x="358" y="359"/>
      <point x="358" y="361" type="qcurve"/>
      <point x="358" y="376"/>
      <point x="270" y="402"/>
      <point x="247" y="402" type="qcurve"/>
      <point x="205" y="402"/>
      <point x="142" y="331"/>
      <point x="114" y="233"/>
      <point x="114" y="183" type="qcurve"/>
      <point x="114" y="129"/>
      <point x="137" y="76" type="qcurve"/>
      <point x="360" y="162"/>
    </contour>
    <contour>
      <point x="247" y="407" type="qcurve"/>
      <point x="274" y="407"/>
      <point x="363" y="380"/>
      <point x="363" y="361" type="qcurve"/>
      <point x="363" y="359"/>
      <point x="362" y="350"/>
      <point x="362" y="348" type="qcurve"/>
      <point x="362" y="341"/>
      <point x="365" y="317"/>
      <point x="365" y="311" type="qcurve"/>
      <point x="365" y="157"/>
      <point x="137" y="71" type="qcurve"/>
      <point x="136" y="71" type="line"/>
      <point x="124" y="71"/>
      <point x="109" y="158"/>
      <point x="109" y="183" type="qcurve"/>
      <point x="109" y="266"/>
      <point x="183" y="407"/>
    </contour>
    <contour>
      <point x="373" y="126" type="qcurve"/>
      <point x="373" y="124"/>
      <point x="374" y="117"/>
      <point x="374" y="115" type="qcurve"/>
      <point x="380" y="128"/>
      <point x="380" y="143" type="qcurve"/>
      <point x="380" y="152"/>
      <point x="379" y="157" type="qcurve"/>
      <point x="373" y="139"/>
    </contour>
    <contour>
      <point x="375" y="170"/>
      <point x="385" y="170"/>
      <point x="385" y="143" type="qcurve"/>
      <point x="385" y="134"/>
      <point x="378" y="104"/>
      <point x="368" y="104"/>
      <point x="368" y="126" type="qcurve"/>
      <point x="368" y="137"/>
    </contour>
    <contour>
      <point x="27" y="-7" type="qcurve"/>
      <point x="41" y="-7"/>
      <point x="98" y="15"/>
      <point x="114" y="15" type="qcurve"/>
      <point x="124" y="15"/>
      <point x="200" y="-14"/>
      <point x="222" y="-14" type="qcurve"/>
      <point x="302" y="-14"/>
      <point x="362" y="27" type="qcurve"/>
      <point x="363" y="27" type="line"/>
      <point x="384" y="27"/>
      <point x="472" y="-28"/>
      <point x="492" y="-28" type="qcurve"/>
      <point x="498" y="-28" type="line"/>
      <point x="502" y="-28"/>
      <point x="508" y="-26" type="qcurve"/>
      <point x="547" y="-8" type="line"/>
      <point x="560" y="-2"/>
      <point x="560" y="12" type="qcurve"/>
      <point x="560" y="21"/>
      <point x="546" y="34"/>
      <point x="537" y="34" type="qcurve"/>
      <point x="534" y="34"/>
      <point x="528" y="32" type="qcurve"/>
      <point x="494" y="17" type="line"/>
      <point x="493" y="16" type="line"/>
      <point x="484" y="16"/>
      <point x="454" y="43"/>
      <point x="441" y="43" type="qcurve"/>
      <point x="430" y="43"/>
      <point x="398" y="52"/>
      <point x="398" y="59" type="qcurve"/>
      <point x="398" y="70"/>
      <point x="430" y="126"/>
      <point x="430" y="144" type="qcurve"/>
      <point x="430" y="235"/>
      <point x="402" y="241" type="qcurve"/>
      <point x="400" y="241"/>
      <point x="400" y="243" type="qcurve"/>
      <point x="400" y="253"/>
      <point x="410" y="300"/>
      <point x="410" y="312" type="qcurve"/>
      <point x="410" y="318"/>
      <point x="407" y="341"/>
      <point x="407" y="348" type="qcurve"/>
      <point x="407" y="350"/>
      <point x="408" y="358"/>
      <point x="408" y="360" type="qcurve"/>
      <point x="408" y="392"/>
      <point x="351" y="435"/>
      <point x="281" y="451"/>
      <point x="246" y="451" type="qcurve"/>
      <point x="160" y="451"/>
      <point x="64" y="285"/>
      <point x="64" y="183" type="qcurve"/>
      <point x="64" y="160"/>
      <point x="91" y="76"/>
      <point x="91" y="57" type="qcurve"/>
      <point x="91" y="51"/>
      <point x="64" y="44"/>
      <point x="32" y="41"/>
      <point x="5" y="27"/>
      <point x="5" y="15" type="qcurve"/>
      <point x="5" y="6"/>
      <point x="18" y="-7"/>
    </contour>
    <contour>
      <point x="441" y="48" type="qcurve"/>
      <point x="456" y="48"/>
      <point x="486" y="24"/>
      <point x="492" y="22" type="qcurve"/>
      <point x="526" y="37" type="line"/>
      <point x="530" y="39"/>
      <point x="537" y="39" type="qcurve"/>
      <point x="548" y="39"/>
      <point x="565" y="23"/>
      <point x="565" y="12" type="qcurve"/>
      <point x="565" y="-6"/>
      <point x="549" y="-13" type="qcurve"/>
      <point x="510" y="-31" type="line"/>
      <point x="498" y="-33" type="line"/>
      <point x="492" y="-33" type="line"/>
      <point x="483" y="-33"/>
      <point x="466" y="-27"/>
      <point x="457" y="-21"/>
      <point x="440" y="-8"/>
      <point x="438" y="-6" type="qcurve"/>
      <point x="393" y="-4"/>
      <point x="363" y="22" type="qcurve"/>
      <point x="302" y="-19"/>
      <point x="222" y="-19" type="qcurve"/>
      <point x="141" y="-19"/>
      <point x="113" y="9" type="qcurve"/>
      <point x="48" y="-12"/>
      <point x="27" y="-12" type="qcurve"/>
      <point x="16" y="-12"/>
      <point x="0" y="4"/>
      <point x="0" y="15" type="qcurve"/>
      <point x="0" y="27"/>
      <point x="20" y="43"/>
      <point x="42" y="49"/>
      <point x="79" y="56"/>
      <point x="85" y="58" type="qcurve"/>
      <point x="59" y="114"/>
      <point x="59" y="183" type="qcurve"/>
      <point x="59" y="249"/>
      <point x="98" y="369"/>
      <point x="186" y="456"/>
      <point x="246" y="456" type="qcurve"/>
      <point x="272" y="456"/>
      <point x="327" y="446"/>
      <point x="380" y="425"/>
      <point x="413" y="386"/>
      <point x="413" y="360" type="qcurve"/>
      <point x="413" y="358"/>
      <point x="412" y="350"/>
      <point x="412" y="348" type="qcurve"/>
      <point x="415" y="329"/>
      <point x="415" y="312" type="qcurve"/>
      <point x="415" y="280"/>
      <point x="405" y="245" type="qcurve"/>
      <point x="435" y="236"/>
      <point x="435" y="144" type="qcurve"/>
      <point x="435" y="98"/>
      <point x="404" y="59" type="qcurve"/>
      <point x="420" y="48"/>
    </contour>
    <contour>
      <point x="191" y="38" type="qcurve"/>
      <point x="201" y="36"/>
      <point x="222" y="36" type="qcurve"/>
      <point x="286" y="36"/>
      <point x="331" y="66" type="qcurve"/>
      <point x="321" y="90"/>
      <point x="319" y="117" type="qcurve"/>
      <point x="262" y="69"/>
    </contour>
    <contour>
      <point x="336" y="65" type="qcurve"/>
      <point x="336" y="51"/>
      <point x="249" y="31"/>
      <point x="222" y="31" type="qcurve"/>
      <point x="180" y="31"/>
      <point x="180" y="38" type="qcurve"/>
      <point x="317" y="125"/>
      <point x="321" y="125" type="qcurve"/>
      <point x="336" y="70"/>
    </contour>
  </outline>
</glyph>
<glyph name="d" format="2">
  <advance width="672"/>
  <unicode hex="0064"/>
  <outline>
    <contour>
      <point x="357" y="253" type="qcurve"/>
      <point x="357" y="316"/>
      <point x="322" y="374"/>
      <point x="267" y="374" type="qcurve"/>
      <point x="239" y="374"/>
      <point x="202" y="353"/>
      <point x="183" y="326"/>
      <point x="173" y="270"/>
      <point x="172" y="232"/>
      <point x="172" y="194" type="qcurve"/>
      <point x="176" y="177"/>
      <point x="186" y="150" type="qcurve"/>
      <point x="279" y="160"/>
      <point x="309" y="174" type="qcurve"/>
      <point x="357" y="197"/>
    </contour>
    <contour>
      <point x="167" y="194" type="qcurve"/>
      <point x="167" y="232"/>
      <point x="169" y="272"/>
      <point x="179" y="329"/>
      <point x="199" y="357"/>
      <point x="238" y="379"/>
      <point x="267" y="379" type="qcurve"/>
      <point x="325" y="379"/>
      <point x="362" y="318"/>
      <point x="362" y="253" type="qcurve"/>
      <point x="362" y="212"/>
      <point x="306" y="161"/>
      <point x="232" y="144"/>
      <point x="184" y="144" type="qcurve"/>
      <point x="180" y="144"/>
      <point x="167" y="190"/>
    </contour>
    <contour>
      <point x="458" y="200" type="qcurve"/>
      <point x="467" y="244"/>
      <point x="470" y="338"/>
      <point x="457" y="440"/>
      <point x="442" y="517"/>
      <point x="417" y="629"/>
      <point x="412" y="658" type="qcurve"/>
      <point x="409" y="628" type="line"/>
      <point x="415" y="418" type="line"/>
      <point x="427" y="333" type="line"/>
      <point x="435" y="276"/>
    </contour>
    <contour>
      <point x="473" y="299" type="qcurve"/>
      <point x="473" y="272"/>
      <point x="466" y="188"/>
      <point x="450" y="188"/>
      <point x="432" y="260"/>
      <point x="427" y="296" type="qcurve"/>
      <point x="422" y="332" type="line"/>
      <point x="410" y="418" type="line"/>
      <point x="404" y="628" type="line"/>
      <point x="409" y="676" type="line"/>
      <point x="409" y="678"/>
      <point x="412" y="678" type="qcurve"/>
      <point x="427" y="678"/>
      <point x="472" y="350"/>
    </contour>
    <contour>
      <point x="27" y="70" type="qcurve"/>
      <point x="44" y="70"/>
      <point x="126" y="96"/>
      <point x="151" y="96" type="qcurve"/>
      <point x="153" y="96"/>
      <point x="178" y="55"/>
      <point x="205" y="9"/>
      <point x="208" y="6" type="qcurve"/>
      <point x="241" y="-27"/>
      <point x="282" y="-27" type="qcurve"/>
      <point x="334" y="-27"/>
      <point x="423" y="26"/>
      <point x="453" y="65" type="qcurve"/>
      <point x="453" y="66"/>
      <point x="455" y="66" type="qcurve"/>
      <point x="465" y="66"/>
      <point x="491" y="24"/>
      <point x="527" y="-17"/>
      <point x="549" y="-17" type="qcurve"/>
      <point x="572" y="-17"/>
      <point x="624" y="-2"/>
      <point x="630" y="10" type="qcurve"/>
      <point x="666" y="82" type="line"/>
      <point x="668" y="85"/>
      <point x="668" y="92" type="qcurve"/>
      <point x="668" y="101"/>
      <point x="654" y="114"/>
      <point x="645" y="114" type="qcurve"/>
      <point x="630" y="114"/>
      <point x="625" y="102" type="qcurve"/>
      <point x="594" y="40" type="line"/>
      <point x="591" y="35"/>
      <point x="557" y="27"/>
      <point x="549" y="27" type="qcurve"/>
      <point x="533" y="27"/>
      <point x="483" y="94"/>
      <point x="483" y="115" type="qcurve"/>
      <point x="483" y="117" type="line"/>
      <point x="518" y="194"/>
      <point x="518" y="299" type="qcurve"/>
      <point x="518" y="360"/>
      <point x="493" y="579"/>
      <point x="433" y="792"/>
      <point x="396" y="792" type="qcurve"/>
      <point x="388" y="792"/>
      <point x="375" y="780"/>
      <point x="374" y="772" type="qcurve"/>
      <point x="359" y="631" type="line"/>
      <point x="359" y="629" type="line"/>
      <point x="359" y="628" type="line"/>
      <point x="365" y="415" type="line"/>
      <point x="365" y="412"/>
      <point x="367" y="400"/>
      <point x="367" y="394"/>
      <point x="365" y="394" type="qcurve"/>
      <point x="356" y="394"/>
      <point x="292" y="423"/>
      <point x="267" y="423" type="qcurve"/>
      <point x="229" y="423"/>
      <point x="176" y="398"/>
      <point x="145" y="359"/>
      <point x="127" y="296"/>
      <point x="122" y="234"/>
      <point x="122" y="191" type="qcurve"/>
      <point x="122" y="183"/>
      <point x="135" y="151"/>
      <point x="135" y="141" type="qcurve"/>
      <point x="135" y="136"/>
      <point x="70" y="129"/>
      <point x="5" y="111"/>
      <point x="5" y="92" type="qcurve"/>
      <point x="5" y="83"/>
      <point x="18" y="70"/>
    </contour>
    <contour>
      <point x="488" y="115" type="qcurve"/>
      <point x="525" y="32"/>
      <point x="549" y="32" type="qcurve"/>
      <point x="557" y="32"/>
      <point x="590" y="43" type="qcurve"/>
      <point x="621" y="104" type="line"/>
      <point x="628" y="119"/>
      <point x="645" y="119" type="qcurve"/>
      <point x="656" y="119"/>
      <point x="673" y="103"/>
      <point x="673" y="92" type="qcurve"/>
      <point x="673" y="86"/>
      <point x="670" y="80" type="qcurve"/>
      <point x="634" y="8" type="line"/>
      <point x="627" y="-5"/>
      <point x="573" y="-22"/>
      <point x="549" y="-22" type="qcurve"/>
      <point x="496" y="-22"/>
      <point x="454" y="59" type="qcurve"/>
      <point x="424" y="20"/>
      <point x="334" y="-32"/>
      <point x="282" y="-32" type="qcurve"/>
      <point x="201" y="-32"/>
      <point x="149" y="90" type="qcurve"/>
      <point x="128" y="88"/>
      <point x="45" y="65"/>
      <point x="27" y="65" type="qcurve"/>
      <point x="16" y="65"/>
      <point x="0" y="81"/>
      <point x="0" y="92" type="qcurve"/>
      <point x="0" y="99"/>
      <point x="6" y="110"/>
      <point x="19" y="119"/>
      <point x="32" y="126"/>
      <point x="53" y="132"/>
      <point x="69" y="135"/>
      <point x="93" y="139"/>
      <point x="105" y="140"/>
      <point x="128" y="143"/>
      <point x="130" y="143" type="qcurve"/>
      <point x="117" y="185"/>
      <point x="117" y="191" type="qcurve"/>
      <point x="117" y="246"/>
      <point x="127" y="321"/>
      <point x="157" y="392"/>
      <point x="219" y="428"/>
      <point x="267" y="428" type="qcurve"/>
      <point x="329" y="428"/>
      <point x="361" y="403" type="qcurve"/>
      <point x="360" y="407"/>
      <point x="360" y="415" type="qcurve"/>
      <point x="354" y="628" type="line"/>
      <point x="354" y="629" type="line"/>
      <point x="354" y="632" type="line"/>
      <point x="369" y="773" type="line"/>
      <point x="370" y="783"/>
      <point x="386" y="797"/>
      <point x="396" y="797" type="qcurve"/>
      <point x="436" y="797"/>
      <point x="498" y="583"/>
      <point x="523" y="363"/>
      <point x="523" y="299" type="qcurve"/>
      <point x="523" y="194"/>
    </contour>
    <contour>
      <point x="207" y="97" type="qcurve"/>
      <point x="244" y="23"/>
      <point x="281" y="23" type="qcurve"/>
      <point x="329" y="23"/>
      <point x="406" y="79"/>
      <point x="428" y="118" type="qcurve"/>
      <point x="414" y="156"/>
      <point x="402" y="196" type="qcurve"/>
      <point x="383" y="147"/>
      <point x="286" y="106"/>
    </contour>
    <contour>
      <point x="400" y="207"/>
      <point x="404" y="207"/>
      <point x="433" y="124"/>
      <point x="433" y="118" type="qcurve"/>
      <point x="433" y="84"/>
      <point x="324" y="18"/>
      <point x="281" y="18" type="qcurve"/>
      <point x="259" y="18"/>
      <point x="201" y="75"/>
      <point x="201" y="99" type="qcurve"/>
      <point x="201" y="101"/>
      <point x="203" y="101" type="qcurve"/>
      <point x="242" y="105"/>
      <point x="297" y="117"/>
      <point x="353" y="139"/>
      <point x="391" y="178"/>
      <point x="400" y="205" type="qcurve"/>
    </contour>
  </outline>
</glyph>
<glyph name="u" format="2">
  <advance width="496"/>
  <unicode hex="0075"/>
  <outline>
    <contour>
      <point x="469" y="118" type="qcurve"/>
      <point x="456" y="118"/>
      <point x="441" y="90"/>
      <point x="436" y="55"/>
      <point x="421" y="27"/>
      <point x="407" y="27" type="qcurve"/>
      <point x="406" y="27"/>
      <point x="396" y="28"/>
      <point x="395" y="28" type="qcurve"/>
      <point x="393" y="28" type="line"/>
      <point x="371" y="28"/>
      <point x="339" y="150"/>
      <point x="339" y="188" type="qcurve"/>
      <point x="339" y="199" type="line"/>
      <point x="339" y="222"/>
      <point x="336" y="312"/>
      <point x="336" y="334" type="qcurve"/>
      <point x="336" y="356" type="line"/>
      <point x="336" y="363"/>
      <point x="330" y="375"/>
      <point x="330" y="378" type="qcurve"/>
      <point x="330" y="388" type="line"/>
      <point x="330" y="407"/>
      <point x="311" y="446"/>
      <point x="295" y="446" type="qcurve"/>
      <point x="280" y="446"/>
      <point x="257" y="416"/>
      <point x="257" y="402" type="qcurve"/>
      <point x="257" y="401" type="line"/>
      <point x="259" y="325" type="line"/>
      <point x="260" y="300"/>
      <point x="294" y="205"/>
      <point x="294" y="183" type="qcurve"/>
      <point x="292" y="20"/>
      <point x="231" y="20" type="qcurve"/>
      <point x="228" y="20"/>
      <point x="215" y="22"/>
      <point x="211" y="22" type="qcurve"/>
      <point x="206" y="22" type="line"/>
      <point x="173" y="22"/>
      <point x="136" y="95"/>
      <point x="136" y="138" type="qcurve"/>
      <point x="136" y="146" type="line"/>
      <point x="136" y="156"/>
      <point x="126" y="198"/>
      <point x="126" y="209" type="qcurve"/>
      <point x="126" y="237"/>
      <point x="157" y="344"/>
      <point x="157" y="377" type="qcurve"/>
      <point x="157" y="448"/>
      <point x="121" y="448" type="qcurve"/>
      <point x="79" y="448"/>
      <point x="79" y="256" type="qcurve"/>
      <point x="79" y="250"/>
      <point x="81" y="224"/>
      <point x="81" y="217" type="qcurve"/>
      <point x="81" y="191"/>
      <point x="5" y="114"/>
      <point x="5" y="94" type="qcurve"/>
      <point x="5" y="85"/>
      <point x="18" y="72"/>
      <point x="27" y="72" type="qcurve"/>
      <point x="43" y="72"/>
      <point x="81" y="130"/>
      <point x="89" y="130" type="qcurve"/>
      <point x="92" y="116" type="line"/>
      <point x="96" y="101"/>
      <point x="103" y="67"/>
      <point x="104" y="64" type="qcurve"/>
      <point x="117" y="28"/>
      <point x="169" y="-23"/>
      <point x="206" y="-23" type="qcurve"/>
      <point x="210" y="-23" type="line"/>
      <point x="214" y="-23"/>
      <point x="227" y="-24"/>
      <point x="230" y="-24" type="qcurve"/>
      <point x="293" y="-24"/>
      <point x="319" y="44" type="qcurve"/>
      <point x="319" y="45"/>
      <point x="322" y="45" type="qcurve"/>
      <point x="327" y="45"/>
      <point x="351" y="14"/>
      <point x="387" y="-18"/>
      <point x="407" y="-18" type="qcurve"/>
      <point x="442" y="-18"/>
      <point x="492" y="57"/>
      <point x="492" y="96" type="qcurve"/>
      <point x="492" y="105"/>
      <point x="478" y="118"/>
    </contour>
    <contour>
      <point x="344" y="189" type="line"/>
      <point x="345" y="185"/>
      <point x="359" y="91"/>
      <point x="378" y="33"/>
      <point x="393" y="33" type="qcurve"/>
      <point x="395" y="33" type="line"/>
      <point x="397" y="33"/>
      <point x="406" y="32"/>
      <point x="407" y="32" type="qcurve"/>
      <point x="419" y="32"/>
      <point x="433" y="60"/>
      <point x="438" y="95"/>
      <point x="454" y="123"/>
      <point x="469" y="123" type="qcurve"/>
      <point x="480" y="123"/>
      <point x="497" y="107"/>
      <point x="497" y="96" type="qcurve"/>
      <point x="497" y="56"/>
      <point x="445" y="-23"/>
      <point x="407" y="-23" type="qcurve"/>
      <point x="345" y="-23"/>
      <point x="321" y="36" type="qcurve"/>
      <point x="293" y="-29"/>
      <point x="230" y="-29" type="qcurve"/>
      <point x="217" y="-29"/>
      <point x="210" y="-28" type="qcurve"/>
      <point x="206" y="-28" type="line"/>
      <point x="153" y="-28"/>
      <point x="92" y="60"/>
      <point x="87" y="120" type="qcurve"/>
      <point x="51" y="67"/>
      <point x="27" y="67" type="qcurve"/>
      <point x="16" y="67"/>
      <point x="0" y="83"/>
      <point x="0" y="94" type="qcurve"/>
      <point x="0" y="106"/>
      <point x="9" y="114" type="qcurve"/>
      <point x="52" y="153"/>
      <point x="76" y="217" type="qcurve"/>
      <point x="74" y="243"/>
      <point x="74" y="256" type="qcurve"/>
      <point x="74" y="453"/>
      <point x="121" y="453" type="qcurve"/>
      <point x="162" y="453"/>
      <point x="162" y="377" type="qcurve"/>
      <point x="162" y="299"/>
      <point x="131" y="209" type="qcurve"/>
      <point x="132" y="200"/>
      <point x="141" y="157"/>
      <point x="141" y="146" type="qcurve"/>
      <point x="141" y="138" type="line"/>
      <point x="141" y="98"/>
      <point x="175" y="27"/>
      <point x="206" y="27" type="qcurve"/>
      <point x="211" y="27" type="line"/>
      <point x="214" y="27"/>
      <point x="229" y="25"/>
      <point x="231" y="25" type="qcurve"/>
      <point x="250" y="25"/>
      <point x="274" y="54"/>
      <point x="285" y="109"/>
      <point x="289" y="152"/>
      <point x="289" y="182" type="qcurve"/>
      <point x="286" y="196"/>
      <point x="266" y="255"/>
      <point x="254" y="304"/>
      <point x="254" y="325" type="qcurve"/>
      <point x="252" y="401" type="line"/>
      <point x="252" y="402" type="line"/>
      <point x="252" y="418"/>
      <point x="277" y="451"/>
      <point x="313" y="451"/>
      <point x="335" y="409"/>
      <point x="335" y="388" type="qcurve"/>
      <point x="335" y="379" type="line"/>
      <point x="341" y="369"/>
      <point x="341" y="356" type="qcurve"/>
      <point x="341" y="334" type="line"/>
      <point x="341" y="312"/>
      <point x="344" y="222"/>
      <point x="344" y="199" type="qcurve"/>
    </contour>
  </outline>
</glyph>
<glyph name="v" format="2">
  <advance width="498"/>
  <unicode hex="0076"/>
  <outline>
    <contour>
      <point x="391" y="239" type="line"/>
      <point x="499" y="139"/>
      <point x="499" y="93" type="qcurve"/>
      <point x="499" y="82"/>
      <point x="482" y="66"/>
      <point x="471" y="66" type="qcurve"/>
      <point x="451" y="66"/>
      <point x="444" y="87" type="qcurve"/>
      <point x="412" y="125" type="line"/>
      <point x="411" y="126" type="line"/>
      <point x="379" y="167" type="line"/>
      <point x="306" y="-26"/>
      <point x="239" y="-26" type="qcurve"/>
      <point x="236" y="-26"/>
      <point x="228" y="-25"/>
      <point x="226" y="-25" type="qcurve"/>
      <point x="209" y="-25"/>
      <point x="202" y="-10" type="qcurve"/>
      <point x="192" y="10" type="line"/>
      <point x="182" y="30"/>
      <point x="180" y="134"/>
      <point x="175" y="151" type="qcurve"/>
      <point x="172" y="160"/>
      <point x="141" y="270"/>
      <point x="115" y="339"/>
      <point x="101" y="361" type="qcurve"/>
      <point x="101" y="358"/>
      <point x="95" y="301"/>
      <point x="89" y="259"/>
      <point x="79" y="191"/>
      <point x="68" y="141"/>
      <point x="54" y="92"/>
      <point x="37" y="66"/>
      <point x="27" y="66" type="qcurve"/>
      <point x="16" y="66"/>
      <point x="0" y="82"/>
      <point x="0" y="93" type="qcurve"/>
      <point x="0" y="95" type="line"/>
      <point x="0" y="174"/>
      <point x="57" y="435"/>
      <point x="99" y="435" type="qcurve"/>
      <point x="132" y="435"/>
      <point x="189" y="337"/>
      <point x="222" y="197"/>
      <point x="241" y="75"/>
      <point x="243" y="35" type="qcurve"/>
      <point x="269" y="64"/>
      <point x="325" y="164"/>
      <point x="330" y="197" type="qcurve"/>
      <point x="333" y="218" type="line"/>
      <point x="250" y="299"/>
      <point x="250" y="384" type="qcurve"/>
      <point x="250" y="405"/>
      <point x="274" y="437"/>
      <point x="295" y="437" type="qcurve"/>
      <point x="320" y="437"/>
      <point x="379" y="410"/>
      <point x="385" y="393" type="qcurve"/>
      <point x="392" y="372" type="line"/>
      <point x="393" y="369"/>
      <point x="393" y="364" type="qcurve"/>
      <point x="395" y="290" type="line"/>
      <point x="395" y="289" type="line"/>
      <point x="395" y="287" type="line"/>
    </contour>
    <contour>
      <point x="494" y="93" type="qcurve"/>
      <point x="494" y="113"/>
      <point x="386" y="223"/>
      <point x="386" y="238" type="qcurve"/>
      <point x="390" y="287" type="line"/>
      <point x="390" y="289" type="line"/>
      <point x="390" y="290" type="line"/>
      <point x="388" y="364" type="line"/>
      <point x="388" y="368"/>
      <point x="387" y="370" type="qcurve"/>
      <point x="380" y="391" type="line"/>
      <point x="375" y="406"/>
      <point x="318" y="432"/>
      <point x="295" y="432" type="qcurve"/>
      <point x="276" y="432"/>
      <point x="255" y="403"/>
      <point x="255" y="384" type="qcurve"/>
      <point x="255" y="334"/>
      <point x="300" y="258"/>
      <point x="338" y="220" type="qcurve"/>
      <point x="338" y="219" type="line"/>
      <point x="338" y="218" type="line"/>
      <point x="335" y="196" type="line"/>
      <point x="331" y="167"/>
      <point x="263" y="27"/>
      <point x="241" y="27" type="qcurve"/>
      <point x="218" y="208"/>
      <point x="198" y="276" type="qcurve"/>
      <point x="172" y="363"/>
      <point x="130" y="405" type="qcurve"/>
      <point x="128" y="407"/>
      <point x="117" y="422"/>
      <point x="106" y="430"/>
      <point x="99" y="430" type="qcurve"/>
      <point x="60" y="430"/>
      <point x="5" y="170"/>
      <point x="5" y="95" type="qcurve"/>
      <point x="5" y="93" type="line"/>
      <point x="5" y="84"/>
      <point x="18" y="71"/>
      <point x="27" y="71" type="qcurve"/>
      <point x="53" y="71"/>
      <point x="75" y="220"/>
      <point x="86" y="370"/>
      <point x="100" y="370" type="qcurve"/>
      <point x="132" y="370"/>
      <point x="167" y="216"/>
      <point x="187" y="30"/>
      <point x="196" y="12" type="qcurve"/>
      <point x="206" y="-8" type="line"/>
      <point x="213" y="-21"/>
      <point x="239" y="-21" type="qcurve"/>
      <point x="261" y="-21"/>
      <point x="309" y="40"/>
      <point x="342" y="114"/>
      <point x="372" y="175"/>
      <point x="378" y="175" type="qcurve"/>
      <point x="380" y="175"/>
      <point x="380" y="174" type="qcurve"/>
      <point x="415" y="129" type="line"/>
      <point x="415" y="128" type="line"/>
      <point x="449" y="90" type="line"/>
      <point x="451" y="88"/>
      <point x="457" y="76"/>
      <point x="464" y="71"/>
      <point x="471" y="71" type="qcurve"/>
      <point x="480" y="71"/>
      <point x="494" y="84"/>
    </contour>
    <contour>
      <point x="302" y="321"/>
      <point x="302" y="359"/>
      <point x="317" y="388"/>
      <point x="341" y="388"/>
      <point x="356" y="359"/>
      <point x="356" y="321"/>
      <point x="341" y="292"/>
      <point x="317" y="292"/>
    </contour>
    <contour>
      <point x="308" y="358"/>
      <point x="308" y="322"/>
      <point x="321" y="298"/>
      <point x="337" y="298"/>
      <point x="350" y="322"/>
      <point x="350" y="358"/>
      <point x="337" y="382"/>
      <point x="321" y="382"/>
    </contour>
  </outline>
</glyph>
<glyph name="A.0" format="2">
  <advance width="511"/>
  <outline>
    <contour>
      <point x="141" y="-39" type="qcurve"/>
      <point x="147" y="-39" type="line"/>
      <point x="157" y="-31"/>
      <point x="162" y="-26" type="qcurve"/>
      <point x="197" y="9" type="line"/>
      <point x="250" y="62"/>
      <point x="254" y="155" type="qcurve"/>
      <point x="257" y="176"/>
      <point x="257" y="197" type="qcurve"/>
      <point x="257" y="234"/>
      <point x="250" y="285" type="qcurve"/>
      <point x="248" y="300"/>
      <point x="244" y="330" type="qcurve"/>
      <point x="240" y="359"/>
      <point x="238" y="374" type="qcurve"/>
      <point x="274" y="358"/>
      <point x="298" y="340" type="qcurve"/>
      <point x="306" y="328"/>
      <point x="312" y="317" type="qcurve"/>
      <point x="327" y="293"/>
      <point x="344" y="242" type="qcurve"/>
      <point x="360" y="190"/>
      <point x="366" y="176" type="qcurve"/>
      <point x="369" y="163"/>
      <point x="376" y="120" type="qcurve"/>
      <point x="383" y="77"/>
      <point x="393" y="56" type="qcurve"/>
      <point x="395" y="36"/>
      <point x="403" y="16" type="qcurve"/>
      <point x="410" y="-4"/>
      <point x="415" y="-9" type="qcurve"/>
      <point x="450" y="-45" type="line"/>
      <point x="452" y="-45" type="line"/>
      <point x="487" y="-10" type="line"/>
      <point x="488" y="-8" type="line"/>
      <point x="488" y="2"/>
      <point x="476" y="35" type="qcurve"/>
      <point x="469" y="66"/>
      <point x="458" y="104" type="qcurve"/>
      <point x="455" y="127"/>
      <point x="453" y="170" type="qcurve"/>
      <point x="451" y="212"/>
      <point x="449" y="230" type="qcurve"/>
      <point x="443" y="371" type="line"/>
      <point x="422" y="524" type="line"/>
      <point x="416" y="567"/>
      <point x="401" y="650" type="qcurve"/>
      <point x="386" y="732"/>
      <point x="380" y="773" type="qcurve"/>
      <point x="380" y="779" type="line"/>
      <point x="380" y="786"/>
      <point x="379" y="787" type="qcurve"/>
      <point x="343" y="823" type="line"/>
      <point x="342" y="823" type="line"/>
      <point x="334" y="823"/>
      <point x="316" y="805" type="qcurve"/>
      <point x="279" y="768"/>
      <point x="264" y="752" type="qcurve"/>
      <point x="159" y="634"/>
      <point x="159" y="491" type="qcurve"/>
      <point x="159" y="479" type="line"/>
      <point x="159" y="470" type="line"/>
      <point x="147" y="472"/>
      <point x="141" y="472" type="qcurve"/>
      <point x="132" y="481" type="line"/>
      <point x="96" y="487" type="line"/>
      <point x="95" y="487"/>
      <point x="93" y="488" type="qcurve"/>
      <point x="91" y="488"/>
      <point x="90" y="488" type="qcurve"/>
      <point x="76" y="488"/>
      <point x="66" y="478" type="qcurve"/>
      <point x="55" y="467"/>
      <point x="55" y="453" type="qcurve"/>
      <point x="55" y="440"/>
      <point x="63" y="431" type="qcurve"/>
      <point x="71" y="421"/>
      <point x="84" y="419" type="qcurve"/>
      <point x="92" y="417"/>
      <point x="108" y="415" type="qcurve"/>
      <point x="123" y="412"/>
      <point x="131" y="411" type="qcurve"/>
      <point x="138" y="404" type="line"/>
      <point x="139" y="403"/>
      <point x="141" y="402" type="qcurve"/>
      <point x="148" y="402"/>
      <point x="164" y="398" type="qcurve"/>
      <point x="166" y="381"/>
      <point x="171" y="348" type="qcurve"/>
      <point x="175" y="315"/>
      <point x="177" y="299" type="qcurve"/>
      <point x="186" y="225"/>
      <point x="186" y="197" type="qcurve"/>
      <point x="186" y="176"/>
      <point x="183" y="155" type="qcurve"/>
      <point x="181" y="83"/>
      <point x="145" y="31" type="qcurve"/>
      <point x="141" y="31" type="line"/>
      <point x="126" y="31"/>
      <point x="116" y="21" type="qcurve"/>
      <point x="105" y="11"/>
      <point x="105" y="-4" type="qcurve"/>
      <point x="105" y="-19"/>
      <point x="116" y="-29" type="qcurve"/>
      <point x="126" y="-39"/>
    </contour>
    <contour>
      <point x="230" y="491" type="line"/>
      <point x="230" y="617"/>
      <point x="316" y="729" type="qcurve"/>
      <point x="321" y="696"/>
      <point x="334" y="628" type="qcurve"/>
      <point x="346" y="560"/>
      <point x="351" y="524" type="qcurve"/>
      <point x="372" y="371" type="line"/>
      <point x="374" y="333" type="line"/>
      <point x="364" y="348"/>
      <point x="353" y="359" type="qcurve"/>
      <point x="318" y="394" type="line"/>
      <point x="288" y="424"/>
      <point x="231" y="447" type="qcurve"/>
      <point x="230" y="457"/>
      <point x="230" y="479" type="qcurve"/>
    </contour>
  </outline>
</glyph>
<glyph name="A.1" format="2">
  <advance width="511"/>
  <outline>
    <contour>
      <point x="381" y="793" type="qcurve"/>
      <point x="373" y="793"/>
      <point x="358" y="779" type="qcurve"/>
      <point x="349" y="771"/>
      <point x="335" y="755" type="qcurve"/>
      <point x="286" y="700"/>
      <point x="258" y="631" type="qcurve"/>
      <point x="229" y="561"/>
      <point x="229" y="491" type="qcurve"/>
      <point x="229" y="485"/>
      <point x="229" y="479" type="qcurve"/>
      <point x="229" y="456"/>
      <point x="231" y="431" type="qcurve"/>
      <point x="227" y="432"/>
      <point x="223" y="433" type="qcurve"/>
      <point x="192" y="442"/>
      <point x="181" y="442" type="qcurve"/>
      <point x="180" y="444"/>
      <point x="176" y="448" type="qcurve"/>
      <point x="174" y="451"/>
      <point x="172" y="451" type="qcurve"/>
      <point x="136" y="457" type="line"/>
      <point x="135" y="457"/>
      <point x="135" y="457" type="qcurve"/>
      <point x="130" y="457"/>
      <point x="130" y="452" type="qcurve"/>
      <point x="130" y="448"/>
      <point x="134" y="447" type="qcurve"/>
      <point x="168" y="441" type="line"/>
      <point x="174" y="435"/>
      <point x="176" y="434" type="qcurve"/>
      <point x="178" y="432"/>
      <point x="180" y="432" type="qcurve"/>
      <point x="192" y="432"/>
      <point x="212" y="426" type="qcurve"/>
      <point x="215" y="425"/>
      <point x="222" y="423" type="qcurve"/>
      <point x="228" y="421"/>
      <point x="232" y="420" type="qcurve"/>
      <point x="234" y="396"/>
      <point x="240" y="350" type="qcurve"/>
      <point x="246" y="304"/>
      <point x="247" y="298" type="qcurve"/>
      <point x="256" y="224"/>
      <point x="256" y="197" type="qcurve"/>
      <point x="256" y="174"/>
      <point x="253" y="156" type="qcurve"/>
      <point x="253" y="156"/>
      <point x="253" y="155" type="qcurve"/>
      <point x="251" y="109"/>
      <point x="234" y="68" type="qcurve"/>
      <point x="217" y="26"/>
      <point x="184" y="1" type="qcurve"/>
      <point x="180" y="1" type="line"/>
      <point x="175" y="1"/>
      <point x="175" y="-4" type="qcurve"/>
      <point x="175" y="-9"/>
      <point x="180" y="-9" type="qcurve"/>
      <point x="186" y="-9" type="line"/>
      <point x="188" y="-9"/>
      <point x="189" y="-8" type="qcurve"/>
      <point x="224" y="19"/>
      <point x="243" y="63" type="qcurve"/>
      <point x="261" y="106"/>
      <point x="263" y="154" type="qcurve"/>
      <point x="266" y="174"/>
      <point x="266" y="197" type="qcurve"/>
      <point x="266" y="226"/>
      <point x="259" y="285" type="qcurve"/>
      <point x="242" y="415"/>
      <point x="242" y="417" type="qcurve"/>
      <point x="351" y="381"/>
      <point x="382" y="315" type="qcurve"/>
      <point x="383" y="315"/>
      <point x="383" y="314" type="qcurve"/>
      <point x="397" y="291"/>
      <point x="414" y="240" type="qcurve"/>
      <point x="430" y="189"/>
      <point x="436" y="174" type="qcurve"/>
      <point x="439" y="162"/>
      <point x="446" y="120" type="qcurve"/>
      <point x="453" y="77"/>
      <point x="463" y="55" type="qcurve"/>
      <point x="466" y="31"/>
      <point x="477" y="5" type="qcurve"/>
      <point x="480" y="-4"/>
      <point x="483" y="-9" type="qcurve"/>
      <point x="485" y="-11"/>
      <point x="486" y="-13" type="qcurve"/>
      <point x="488" y="-15"/>
      <point x="491" y="-15" type="qcurve"/>
      <point x="497" y="-15"/>
      <point x="497" y="-8" type="qcurve"/>
      <point x="497" y="1"/>
      <point x="485" y="36" type="qcurve"/>
      <point x="479" y="65"/>
      <point x="467" y="105" type="qcurve"/>
      <point x="464" y="128"/>
      <point x="462" y="172" type="qcurve"/>
      <point x="459" y="215"/>
      <point x="458" y="230" type="qcurve"/>
      <point x="452" y="371" type="line"/>
      <point x="452" y="371"/>
      <point x="452" y="372" type="qcurve"/>
      <point x="431" y="525" type="line"/>
      <point x="425" y="568"/>
      <point x="410" y="651" type="qcurve"/>
      <point x="395" y="734"/>
      <point x="389" y="773" type="qcurve"/>
      <point x="389" y="776"/>
      <point x="389" y="779" type="qcurve"/>
      <point x="389" y="793"/>
    </contour>
    <contour>
      <point x="379" y="779" type="qcurve"/>
      <point x="379" y="777"/>
      <point x="379" y="775" type="qcurve"/>
      <point x="379" y="773"/>
      <point x="379" y="773" type="qcurve"/>
      <point x="379" y="773"/>
      <point x="379" y="772" type="qcurve"/>
      <point x="385" y="733"/>
      <point x="400" y="650" type="qcurve"/>
      <point x="415" y="567"/>
      <point x="421" y="523" type="qcurve"/>
      <point x="442" y="371" type="line"/>
      <point x="448" y="230" type="line"/>
      <point x="450" y="213"/>
      <point x="452" y="181" type="qcurve"/>
      <point x="453" y="149"/>
      <point x="454" y="135" type="qcurve"/>
      <point x="450" y="162"/>
      <point x="446" y="177" type="qcurve"/>
      <point x="446" y="178"/>
      <point x="446" y="178" type="qcurve"/>
      <point x="439" y="193"/>
      <point x="423" y="244" type="qcurve"/>
      <point x="407" y="295"/>
      <point x="391" y="319" type="qcurve"/>
      <point x="357" y="391"/>
      <point x="241" y="427" type="qcurve"/>
      <point x="239" y="455"/>
      <point x="239" y="479" type="qcurve"/>
      <point x="239" y="481"/>
      <point x="239" y="485" type="qcurve"/>
      <point x="239" y="489"/>
      <point x="239" y="491" type="qcurve"/>
      <point x="239" y="559"/>
      <point x="267" y="627" type="qcurve"/>
      <point x="295" y="694"/>
      <point x="343" y="749" type="qcurve"/>
      <point x="356" y="764"/>
      <point x="365" y="772" type="qcurve"/>
      <point x="373" y="779"/>
      <point x="379" y="782" type="qcurve"/>
      <point x="379" y="781"/>
    </contour>
  </outline>
</glyph>
<glyph name="A.2" format="2">
  <advance width="511"/>
  <outline>
    <contour>
      <point x="331" y="793" type="qcurve"/>
      <point x="323" y="793"/>
      <point x="308" y="779" type="qcurve"/>
      <point x="299" y="771"/>
      <point x="285" y="755" type="qcurve"/>
      <point x="236" y="700"/>
      <point x="208" y="631" type="qcurve"/>
      <point x="179" y="561"/>
      <point x="179" y="491" type="qcurve"/>
      <point x="179" y="485"/>
      <point x="179" y="479" type="qcurve"/>
      <point x="179" y="456"/>
      <point x="181" y="431" type="qcurve"/>
      <point x="177" y="432"/>
      <point x="173" y="433" type="qcurve"/>
      <point x="142" y="442"/>
      <point x="131" y="442" type="qcurve"/>
      <point x="130" y="444"/>
      <point x="126" y="448" type="qcurve"/>
      <point x="124" y="451"/>
      <point x="122" y="451" type="qcurve"/>
      <point x="86" y="457" type="line"/>
      <point x="85" y="457"/>
      <point x="85" y="457" type="qcurve"/>
      <point x="80" y="457"/>
      <point x="80" y="452" type="qcurve"/>
      <point x="80" y="448"/>
      <point x="84" y="447" type="qcurve"/>
      <point x="118" y="441" type="line"/>
      <point x="124" y="435"/>
      <point x="126" y="434" type="qcurve"/>
      <point x="128" y="432"/>
      <point x="130" y="432" type="qcurve"/>
      <point x="142" y="432"/>
      <point x="162" y="426" type="qcurve"/>
      <point x="165" y="425"/>
      <point x="172" y="423" type="qcurve"/>
      <point x="178" y="421"/>
      <point x="182" y="420" type="qcurve"/>
      <point x="184" y="396"/>
      <point x="190" y="350" type="qcurve"/>
      <point x="196" y="304"/>
      <point x="197" y="298" type="qcurve"/>
      <point x="206" y="224"/>
      <point x="206" y="197" type="qcurve"/>
      <point x="206" y="174"/>
      <point x="203" y="156" type="qcurve"/>
      <point x="203" y="156"/>
      <point x="203" y="155" type="qcurve"/>
      <point x="201" y="109"/>
      <point x="184" y="68" type="qcurve"/>
      <point x="167" y="26"/>
      <point x="134" y="1" type="qcurve"/>
      <point x="130" y="1" type="line"/>
      <point x="125" y="1"/>
      <point x="125" y="-4" type="qcurve"/>
      <point x="125" y="-9"/>
      <point x="130" y="-9" type="qcurve"/>
      <point x="136" y="-9" type="line"/>
      <point x="138" y="-9"/>
      <point x="139" y="-8" type="qcurve"/>
      <point x="174" y="19"/>
      <point x="193" y="63" type="qcurve"/>
      <point x="211" y="106"/>
      <point x="213" y="154" type="qcurve"/>
      <point x="216" y="174"/>
      <point x="216" y="197" type="qcurve"/>
      <point x="216" y="226"/>
      <point x="209" y="285" type="qcurve"/>
      <point x="192" y="415"/>
      <point x="192" y="417" type="qcurve"/>
      <point x="301" y="381"/>
      <point x="332" y="315" type="qcurve"/>
      <point x="333" y="315"/>
      <point x="333" y="314" type="qcurve"/>
      <point x="347" y="291"/>
      <point x="364" y="240" type="qcurve"/>
      <point x="380" y="189"/>
      <point x="386" y="174" type="qcurve"/>
      <point x="389" y="162"/>
      <point x="396" y="120" type="qcurve"/>
      <point x="403" y="77"/>
      <point x="413" y="55" type="qcurve"/>
      <point x="416" y="31"/>
      <point x="427" y="5" type="qcurve"/>
      <point x="430" y="-4"/>
      <point x="433" y="-9" type="qcurve"/>
      <point x="435" y="-11"/>
      <point x="436" y="-13" type="qcurve"/>
      <point x="438" y="-15"/>
      <point x="441" y="-15" type="qcurve"/>
      <point x="447" y="-15"/>
      <point x="447" y="-8" type="qcurve"/>
      <point x="447" y="1"/>
      <point x="435" y="36" type="qcurve"/>
      <point x="429" y="65"/>
      <point x="417" y="105" type="qcurve"/>
      <point x="414" y="128"/>
      <point x="412" y="172" type="qcurve"/>
      <point x="409" y="215"/>
      <point x="408" y="230" type="qcurve"/>
      <point x="402" y="371" type="line"/>
      <point x="402" y="371"/>
      <point x="402" y="372" type="qcurve"/>
      <point x="381" y="525" type="line"/>
      <point x="375" y="568"/>
      <point x="360" y="651" type="qcurve"/>
      <point x="345" y="734"/>
      <point x="339" y="773" type="qcurve"/>
      <point x="339" y="776"/>
      <point x="339" y="779" type="qcurve"/>
      <point x="339" y="793"/>
    </contour>
    <contour>
      <point x="329" y="779" type="qcurve"/>
      <point x="329" y="777"/>
      <point x="329" y="775" type="qcurve"/>
      <point x="329" y="773"/>
      <point x="329" y="773" type="qcurve"/>
      <point x="329" y="773"/>
      <point x="329" y="772" type="qcurve"/>
      <point x="335" y="733"/>
      <point x="350" y="650" type="qcurve"/>
      <point x="365" y="567"/>
      <point x="371" y="523" type="qcurve"/>
      <point x="392" y="371" type="line"/>
      <point x="398" y="230" type="line"/>
      <point x="400" y="213"/>
      <point x="402" y="181" type="qcurve"/>
      <point x="403" y="149"/>
      <point x="404" y="135" type="qcurve"/>
      <point x="400" y="162"/>
      <point x="396" y="177" type="qcurve"/>
      <point x="396" y="178"/>
      <point x="396" y="178" type="qcurve"/>
      <point x="389" y="193"/>
      <point x="373" y="244" type="qcurve"/>
      <point x="357" y="295"/>
      <point x="341" y="319" type="qcurve"/>
      <point x="307" y="391"/>
      <point x="191" y="427" type="qcurve"/>
      <point x="189" y="455"/>
      <point x="189" y="479" type="qcurve"/>
      <point x="189" y="481"/>
      <point x="189" y="485" type="qcurve"/>
      <point x="189" y="489"/>
      <point x="189" y="491" type="qcurve"/>
      <point x="189" y="559"/>
      <point x="217" y="627" type="qcurve"/>
      <point x="245" y="694"/>
      <point x="293" y="749" type="qcurve"/>
      <point x="306" y="764"/>
      <point x="315" y="772" type="qcurve"/>
      <point x="323" y="779"/>
      <point x="329" y="782" type="qcurve"/>
      <point x="329" y="781"/>
    </contour>
  </outline>
</glyph>
<glyph name="B.0" format="2">
  <advance width="547"/>
  <outline>
    <contour>
      <point x="194" y="-7" type="qcurve"/>
      <point x="194" y="-3"/>
      <point x="192" y="5" type="qcurve"/>
      <point x="169" y="62"/>
      <point x="138" y="173" type="qcurve"/>
      <point x="126" y="293" type="line"/>
      <point x="135" y="500" type="line"/>
      <point x="153" y="611" type="line"/>
      <point x="168" y="671" type="line"/>
      <point x="174" y="692"/>
      <point x="174" y="698" type="qcurve"/>
      <point x="177" y="712"/>
      <point x="187" y="729" type="qcurve"/>
      <point x="202" y="738"/>
      <point x="221" y="738" type="qcurve"/>
      <point x="231" y="738" type="line"/>
      <point x="236" y="737"/>
      <point x="257" y="733" type="qcurve"/>
      <point x="278" y="729"/>
      <point x="285" y="729" type="qcurve"/>
      <point x="291" y="729" type="line"/>
      <point x="298" y="729"/>
      <point x="320" y="718" type="qcurve"/>
      <point x="331" y="711"/>
      <point x="345" y="708" type="qcurve"/>
      <point x="380" y="702"/>
      <point x="406" y="682" type="qcurve"/>
      <point x="439" y="636"/>
      <point x="439" y="578" type="qcurve"/>
      <point x="432" y="551"/>
      <point x="413" y="528" type="qcurve"/>
      <point x="356" y="484"/>
      <point x="293" y="484" type="qcurve"/>
      <point x="279" y="484" type="line"/>
      <point x="258" y="505" type="line"/>
      <point x="246" y="499" type="line"/>
      <point x="211" y="463" type="line"/>
      <point x="209" y="461"/>
      <point x="209" y="460" type="qcurve"/>
      <point x="209" y="458"/>
      <point x="210" y="457" type="qcurve"/>
      <point x="220" y="447" type="line"/>
      <point x="220" y="443" type="line"/>
      <point x="220" y="439"/>
      <point x="225" y="434" type="qcurve"/>
      <point x="260" y="399" type="line"/>
      <point x="269" y="390"/>
      <point x="306" y="367" type="qcurve"/>
      <point x="367" y="329"/>
      <point x="405" y="297" type="qcurve"/>
      <point x="448" y="245"/>
      <point x="448" y="194" type="qcurve"/>
      <point x="448" y="133"/>
      <point x="422" y="93" type="qcurve"/>
      <point x="382" y="67"/>
      <point x="324" y="67" type="qcurve"/>
      <point x="303" y="67"/>
      <point x="255" y="91" type="qcurve"/>
      <point x="231" y="158" type="line"/>
      <point x="228" y="230" type="line"/>
      <point x="227" y="244"/>
      <point x="217" y="254" type="qcurve"/>
      <point x="206" y="264"/>
      <point x="192" y="264" type="qcurve"/>
      <point x="178" y="264"/>
      <point x="168" y="254" type="qcurve"/>
      <point x="157" y="243"/>
      <point x="157" y="229" type="qcurve"/>
      <point x="157" y="227" type="line"/>
      <point x="160" y="158" type="line"/>
      <point x="193" y="68" type="line"/>
      <point x="228" y="33" type="line"/>
      <point x="237" y="30"/>
      <point x="256" y="20" type="qcurve"/>
      <point x="275" y="9"/>
      <point x="292" y="3" type="qcurve"/>
      <point x="308" y="-3"/>
      <point x="324" y="-3" type="qcurve"/>
      <point x="400" y="-3"/>
      <point x="441" y="38" type="qcurve"/>
      <point x="476" y="74" type="line"/>
      <point x="519" y="117"/>
      <point x="519" y="194" type="qcurve"/>
      <point x="519" y="255"/>
      <point x="459" y="315" type="qcurve"/>
      <point x="424" y="350" type="line"/>
      <point x="391" y="383"/>
      <point x="336" y="419" type="qcurve"/>
      <point x="391" y="433"/>
      <point x="432" y="474" type="qcurve"/>
      <point x="468" y="509" type="line"/>
      <point x="500" y="540"/>
      <point x="510" y="578" type="qcurve"/>
      <point x="510" y="651"/>
      <point x="460" y="701" type="qcurve"/>
      <point x="425" y="737" type="line"/>
      <point x="393" y="769"/>
      <point x="345" y="778" type="qcurve"/>
      <point x="334" y="781"/>
      <point x="320" y="789" type="qcurve"/>
      <point x="298" y="800"/>
      <point x="291" y="800" type="qcurve"/>
      <point x="290" y="800"/>
      <point x="288" y="800" type="qcurve"/>
      <point x="286" y="799"/>
      <point x="285" y="799" type="qcurve"/>
      <point x="276" y="799"/>
      <point x="250" y="805" type="qcurve"/>
      <point x="228" y="809"/>
      <point x="221" y="809" type="qcurve"/>
      <point x="191" y="809"/>
      <point x="167" y="785" type="qcurve"/>
      <point x="132" y="750" type="line"/>
      <point x="110" y="728"/>
      <point x="103" y="698" type="qcurve"/>
      <point x="103" y="694"/>
      <point x="98" y="677" type="qcurve"/>
      <point x="92" y="655"/>
      <point x="82" y="611" type="qcurve"/>
      <point x="64" y="500" type="line"/>
      <point x="55" y="293" type="line"/>
      <point x="67" y="173" type="line"/>
      <point x="98" y="62"/>
      <point x="121" y="5" type="qcurve"/>
      <point x="130" y="-19" type="line"/>
      <point x="139" y="-40"/>
      <point x="161" y="-40" type="qcurve"/>
      <point x="174" y="-40"/>
      <point x="184" y="-30" type="qcurve"/>
      <point x="194" y="-20"/>
    </contour>
  </outline>
</glyph>
<glyph name="B.1" format="2">
  <advance width="547"/>
  <outline>
    <contour>
      <point x="265" y="779" type="qcurve"/>
      <point x="234" y="779"/>
      <point x="210" y="755" type="qcurve"/>
      <point x="185" y="730"/>
      <point x="178" y="699" type="qcurve"/>
      <point x="178" y="699"/>
      <point x="178" y="698" type="qcurve"/>
      <point x="178" y="694"/>
      <point x="174" y="678" type="qcurve"/>
      <point x="173" y="675"/>
      <point x="157" y="612" type="qcurve"/>
      <point x="139" y="501" type="line"/>
      <point x="139" y="501"/>
      <point x="139" y="500" type="qcurve"/>
      <point x="130" y="293" type="line"/>
      <point x="130" y="292" type="line"/>
      <point x="142" y="172" type="line"/>
      <point x="172" y="67"/>
      <point x="196" y="3" type="qcurve"/>
      <point x="198" y="0"/>
      <point x="201" y="0" type="qcurve"/>
      <point x="206" y="0"/>
      <point x="206" y="5" type="qcurve"/>
      <point x="206" y="6"/>
      <point x="206" y="7" type="qcurve"/>
      <point x="181" y="70"/>
      <point x="152" y="174" type="qcurve"/>
      <point x="140" y="293" type="line"/>
      <point x="149" y="499" type="line"/>
      <point x="167" y="610" type="line"/>
      <point x="182" y="670" type="line"/>
      <point x="188" y="696"/>
      <point x="188" y="697" type="qcurve"/>
      <point x="195" y="725"/>
      <point x="217" y="747" type="qcurve"/>
      <point x="238" y="769"/>
      <point x="265" y="769" type="qcurve"/>
      <point x="270" y="769"/>
      <point x="275" y="768" type="qcurve"/>
      <point x="276" y="768"/>
      <point x="299" y="764" type="qcurve"/>
      <point x="321" y="759"/>
      <point x="330" y="759" type="qcurve"/>
      <point x="331" y="759"/>
      <point x="333" y="759" type="qcurve"/>
      <point x="334" y="759"/>
      <point x="335" y="759" type="qcurve"/>
      <point x="345" y="759"/>
      <point x="362" y="749" type="qcurve"/>
      <point x="379" y="740"/>
      <point x="389" y="738" type="qcurve"/>
      <point x="445" y="728"/>
      <point x="480" y="683" type="qcurve"/>
      <point x="514" y="637"/>
      <point x="514" y="579" type="qcurve"/>
      <point x="499" y="527"/>
      <point x="447" y="490" type="qcurve"/>
      <point x="394" y="453"/>
      <point x="338" y="453" type="qcurve"/>
      <point x="322" y="453"/>
      <point x="306" y="457" type="qcurve"/>
      <point x="307" y="463"/>
      <point x="308" y="469" type="qcurve"/>
      <point x="308" y="470"/>
      <point x="308" y="470" type="qcurve"/>
      <point x="308" y="475"/>
      <point x="303" y="475" type="qcurve"/>
      <point x="302" y="475"/>
      <point x="301" y="475" type="qcurve"/>
      <point x="284" y="469"/>
      <point x="284" y="460" type="qcurve"/>
      <point x="284" y="453"/>
      <point x="295" y="449" type="qcurve"/>
      <point x="295" y="444"/>
      <point x="295" y="443" type="qcurve"/>
      <point x="295" y="435"/>
      <point x="308" y="425" type="qcurve"/>
      <point x="318" y="418"/>
      <point x="348" y="398" type="qcurve"/>
      <point x="376" y="381"/>
      <point x="394" y="370" type="qcurve"/>
      <point x="411" y="358"/>
      <point x="439" y="336" type="qcurve"/>
      <point x="466" y="313"/>
      <point x="482" y="294" type="qcurve"/>
      <point x="498" y="274"/>
      <point x="511" y="248" type="qcurve"/>
      <point x="523" y="221"/>
      <point x="523" y="194" type="qcurve"/>
      <point x="523" y="117"/>
      <point x="483" y="77" type="qcurve"/>
      <point x="442" y="37"/>
      <point x="369" y="37" type="qcurve"/>
      <point x="355" y="37"/>
      <point x="339" y="43" type="qcurve"/>
      <point x="323" y="49"/>
      <point x="304" y="59" type="qcurve"/>
      <point x="285" y="69"/>
      <point x="277" y="72" type="qcurve"/>
      <point x="245" y="159" type="line"/>
      <point x="242" y="227" type="line"/>
      <point x="242" y="232"/>
      <point x="237" y="232" type="qcurve"/>
      <point x="232" y="232"/>
      <point x="232" y="227" type="qcurve"/>
      <point x="235" y="158" type="line"/>
      <point x="235" y="157"/>
      <point x="235" y="156" type="qcurve"/>
      <point x="268" y="66" type="line"/>
      <point x="269" y="64"/>
      <point x="271" y="63" type="qcurve"/>
      <point x="281" y="60"/>
      <point x="300" y="50" type="qcurve"/>
      <point x="319" y="39"/>
      <point x="336" y="33" type="qcurve"/>
      <point x="353" y="27"/>
      <point x="369" y="27" type="qcurve"/>
      <point x="446" y="27"/>
      <point x="490" y="71" type="qcurve"/>
      <point x="533" y="114"/>
      <point x="533" y="194" type="qcurve"/>
      <point x="533" y="223"/>
      <point x="520" y="252" type="qcurve"/>
      <point x="506" y="280"/>
      <point x="490" y="300" type="qcurve"/>
      <point x="474" y="320"/>
      <point x="445" y="344" type="qcurve"/>
      <point x="415" y="367"/>
      <point x="399" y="378" type="qcurve"/>
      <point x="383" y="388"/>
      <point x="354" y="407" type="qcurve"/>
      <point x="307" y="436"/>
      <point x="305" y="443" type="qcurve"/>
      <point x="305" y="444"/>
      <point x="305" y="446" type="qcurve"/>
      <point x="322" y="443"/>
      <point x="338" y="443" type="qcurve"/>
      <point x="398" y="443"/>
      <point x="454" y="482" type="qcurve"/>
      <point x="509" y="521"/>
      <point x="524" y="577" type="qcurve"/>
      <point x="524" y="577"/>
      <point x="524" y="578" type="qcurve"/>
      <point x="524" y="640"/>
      <point x="488" y="689" type="qcurve"/>
      <point x="451" y="737"/>
      <point x="391" y="748" type="qcurve"/>
      <point x="383" y="749"/>
      <point x="365" y="759" type="qcurve"/>
      <point x="347" y="769"/>
      <point x="335" y="769" type="qcurve"/>
      <point x="332" y="769"/>
      <point x="330" y="769" type="qcurve"/>
      <point x="321" y="769"/>
      <point x="299" y="774" type="qcurve"/>
      <point x="276" y="779"/>
    </contour>
    <contour>
      <point x="297" y="462" type="qcurve"/>
      <point x="296" y="461"/>
      <point x="295" y="460" type="qcurve"/>
      <point x="295" y="460"/>
      <point x="297" y="459" type="qcurve"/>
      <point x="297" y="461"/>
    </contour>
  </outline>
</glyph>
<glyph name="B.2" format="2">
  <advance width="547"/>
  <outline>
    <contour>
      <point x="215" y="779" type="qcurve"/>
      <point x="184" y="779"/>
      <point x="160" y="755" type="qcurve"/>
      <point x="135" y="730"/>
      <point x="128" y="699" type="qcurve"/>
      <point x="128" y="699"/>
      <point x="128" y="698" type="qcurve"/>
      <point x="128" y="694"/>
      <point x="124" y="678" type="qcurve"/>
      <point x="123" y="675"/>
      <point x="107" y="612" type="qcurve"/>
      <point x="89" y="501" type="line"/>
      <point x="89" y="501"/>
      <point x="89" y="500" type="qcurve"/>
      <point x="80" y="293" type="line"/>
      <point x="80" y="292" type="line"/>
      <point x="92" y="172" type="line"/>
      <point x="122" y="67"/>
      <point x="146" y="3" type="qcurve"/>
      <point x="148" y="0"/>
      <point x="151" y="0" type="qcurve"/>
      <point x="156" y="0"/>
      <point x="156" y="5" type="qcurve"/>
      <point x="156" y="6"/>
      <point x="156" y="7" type="qcurve"/>
      <point x="131" y="70"/>
      <point x="102" y="174" type="qcurve"/>
      <point x="90" y="293" type="line"/>
      <point x="99" y="499" type="line"/>
      <point x="117" y="610" type="line"/>
      <point x="132" y="670" type="line"/>
      <point x="138" y="696"/>
      <point x="138" y="697" type="qcurve"/>
      <point x="145" y="725"/>
      <point x="167" y="747" type="qcurve"/>
      <point x="188" y="769"/>
      <point x="215" y="769" type="qcurve"/>
      <point x="220" y="769"/>
      <point x="225" y="768" type="qcurve"/>
      <point x="226" y="768"/>
      <point x="249" y="764" type="qcurve"/>
      <point x="271" y="759"/>
      <point x="280" y="759" type="qcurve"/>
      <point x="281" y="759"/>
      <point x="283" y="759" type="qcurve"/>
      <point x="284" y="759"/>
      <point x="285" y="759" type="qcurve"/>
      <point x="295" y="759"/>
      <point x="312" y="749" type="qcurve"/>
      <point x="329" y="740"/>
      <point x="339" y="738" type="qcurve"/>
      <point x="395" y="728"/>
      <point x="430" y="683" type="qcurve"/>
      <point x="464" y="637"/>
      <point x="464" y="579" type="qcurve"/>
      <point x="449" y="527"/>
      <point x="397" y="490" type="qcurve"/>
      <point x="344" y="453"/>
      <point x="288" y="453" type="qcurve"/>
      <point x="272" y="453"/>
      <point x="256" y="457" type="qcurve"/>
      <point x="257" y="463"/>
      <point x="258" y="469" type="qcurve"/>
      <point x="258" y="470"/>
      <point x="258" y="470" type="qcurve"/>
      <point x="258" y="475"/>
      <point x="253" y="475" type="qcurve"/>
      <point x="252" y="475"/>
      <point x="251" y="475" type="qcurve"/>
      <point x="234" y="469"/>
      <point x="234" y="460" type="qcurve"/>
      <point x="234" y="453"/>
      <point x="245" y="449" type="qcurve"/>
      <point x="245" y="444"/>
      <point x="245" y="443" type="qcurve"/>
      <point x="245" y="435"/>
      <point x="258" y="425" type="qcurve"/>
      <point x="268" y="418"/>
      <point x="298" y="398" type="qcurve"/>
      <point x="326" y="381"/>
      <point x="344" y="370" type="qcurve"/>
      <point x="361" y="358"/>
      <point x="389" y="336" type="qcurve"/>
      <point x="416" y="313"/>
      <point x="432" y="294" type="qcurve"/>
      <point x="448" y="274"/>
      <point x="461" y="248" type="qcurve"/>
      <point x="473" y="221"/>
      <point x="473" y="194" type="qcurve"/>
      <point x="473" y="117"/>
      <point x="433" y="77" type="qcurve"/>
      <point x="392" y="37"/>
      <point x="319" y="37" type="qcurve"/>
      <point x="305" y="37"/>
      <point x="289" y="43" type="qcurve"/>
      <point x="273" y="49"/>
      <point x="254" y="59" type="qcurve"/>
      <point x="235" y="69"/>
      <point x="227" y="72" type="qcurve"/>
      <point x="195" y="159" type="line"/>
      <point x="192" y="227" type="line"/>
      <point x="192" y="232"/>
      <point x="187" y="232" type="qcurve"/>
      <point x="182" y="232"/>
      <point x="182" y="227" type="qcurve"/>
      <point x="185" y="158" type="line"/>
      <point x="185" y="157"/>
      <point x="185" y="156" type="qcurve"/>
      <point x="218" y="66" type="line"/>
      <point x="219" y="64"/>
      <point x="221" y="63" type="qcurve"/>
      <point x="231" y="60"/>
      <point x="250" y="50" type="qcurve"/>
      <point x="269" y="39"/>
      <point x="286" y="33" type="qcurve"/>
      <point x="303" y="27"/>
      <point x="319" y="27" type="qcurve"/>
      <point x="396" y="27"/>
      <point x="440" y="71" type="qcurve"/>
      <point x="483" y="114"/>
      <point x="483" y="194" type="qcurve"/>
      <point x="483" y="223"/>
      <point x="470" y="252" type="qcurve"/>
      <point x="456" y="280"/>
      <point x="440" y="300" type="qcurve"/>
      <point x="424" y="320"/>
      <point x="395" y="344" type="qcurve"/>
      <point x="365" y="367"/>
      <point x="349" y="378" type="qcurve"/>
      <point x="333" y="388"/>
      <point x="304" y="407" type="qcurve"/>
      <point x="257" y="436"/>
      <point x="255" y="443" type="qcurve"/>
      <point x="255" y="444"/>
      <point x="255" y="446" type="qcurve"/>
      <point x="272" y="443"/>
      <point x="288" y="443" type="qcurve"/>
      <point x="348" y="443"/>
      <point x="404" y="482" type="qcurve"/>
      <point x="459" y="521"/>
      <point x="474" y="577" type="qcurve"/>
      <point x="474" y="577"/>
      <point x="474" y="578" type="qcurve"/>
      <point x="474" y="640"/>
      <point x="438" y="689" type="qcurve"/>
      <point x="401" y="737"/>
      <point x="341" y="748" type="qcurve"/>
      <point x="333" y="749"/>
      <point x="315" y="759" type="qcurve"/>
      <point x="297" y="769"/>
      <point x="285" y="769" type="qcurve"/>
      <point x="282" y="769"/>
      <point x="280" y="769" type="qcurve"/>
      <point x="271" y="769"/>
      <point x="249" y="774" type="qcurve"/>
      <point x="226" y="779"/>
    </contour>
    <contour>
      <point x="247" y="462" type="qcurve"/>
      <point x="246" y="461"/>
      <point x="245" y="460" type="qcurve"/>
      <point x="245" y="460"/>
      <point x="247" y="459" type="qcurve"/>
      <point x="247" y="461"/>
    </contour>
  </outline>
</glyph>
<glyph name="C.1" format="2">
  <advance width="490"/>
  <outline>
    <contour>
      <point x="458" y="686" type="qcurve"/>
      <point x="458" y="687"/>
      <point x="458" y="687" type="qcurve"/>
      <point x="451" y="748"/>
      <point x="412" y="759" type="qcurve"/>
      <point x="407" y="761"/>
      <point x="385" y="773" type="qcurve"/>
      <point x="362" y="785"/>
      <point x="349" y="785" type="qcurve"/>
      <point x="327" y="785"/>
      <point x="308" y="780" type="qcurve"/>
      <point x="288" y="774"/>
      <point x="275" y="767" type="qcurve"/>
      <point x="261" y="760"/>
      <point x="249" y="746" type="qcurve"/>
      <point x="236" y="732"/>
      <point x="229" y="721" type="qcurve"/>
      <point x="222" y="710"/>
      <point x="214" y="690" type="qcurve"/>
      <point x="205" y="670"/>
      <point x="201" y="659" type="qcurve"/>
      <point x="197" y="648"/>
      <point x="190" y="626" type="qcurve"/>
      <point x="165" y="552"/>
      <point x="145" y="525" type="qcurve"/>
      <point x="144" y="524"/>
      <point x="144" y="523" type="qcurve"/>
      <point x="130" y="389" type="line"/>
      <point x="130" y="388" type="line"/>
      <point x="134" y="246" type="line"/>
      <point x="134" y="246"/>
      <point x="134" y="245" type="qcurve"/>
      <point x="142" y="189" type="line"/>
      <point x="150" y="153"/>
      <point x="159" y="138" type="qcurve"/>
      <point x="162" y="131"/>
      <point x="171" y="108" type="qcurve"/>
      <point x="190" y="60"/>
      <point x="204" y="41" type="qcurve"/>
      <point x="223" y="13"/>
      <point x="245" y="13" type="qcurve"/>
      <point x="258" y="13" type="line"/>
      <point x="306" y="-7"/>
      <point x="355" y="-7" type="qcurve"/>
      <point x="358" y="-7"/>
      <point x="361" y="-7" type="qcurve"/>
      <point x="372" y="-7"/>
      <point x="383" y="-4" type="qcurve"/>
      <point x="393" y="-2"/>
      <point x="400" y="1" type="qcurve"/>
      <point x="406" y="3"/>
      <point x="415" y="9" type="qcurve"/>
      <point x="424" y="15"/>
      <point x="428" y="18" type="qcurve"/>
      <point x="432" y="21"/>
      <point x="442" y="30" type="qcurve"/>
      <point x="451" y="38"/>
      <point x="454" y="40" type="qcurve"/>
      <point x="455" y="41"/>
      <point x="456" y="42" type="qcurve"/>
      <point x="474" y="90" type="line"/>
      <point x="474" y="91"/>
      <point x="474" y="92" type="qcurve"/>
      <point x="476" y="152" type="line"/>
      <point x="476" y="157"/>
      <point x="471" y="157" type="qcurve"/>
      <point x="466" y="157"/>
      <point x="466" y="152" type="qcurve"/>
      <point x="464" y="93" type="line"/>
      <point x="447" y="47" type="line"/>
      <point x="443" y="44"/>
      <point x="436" y="38" type="qcurve"/>
      <point x="414" y="18"/>
      <point x="399" y="11" type="qcurve"/>
      <point x="383" y="3"/>
      <point x="355" y="3" type="qcurve"/>
      <point x="307" y="3"/>
      <point x="261" y="23" type="qcurve"/>
      <point x="260" y="23"/>
      <point x="259" y="23" type="qcurve"/>
      <point x="245" y="23" type="line"/>
      <point x="228" y="23"/>
      <point x="212" y="47" type="qcurve"/>
      <point x="199" y="65"/>
      <point x="181" y="112" type="qcurve"/>
      <point x="171" y="135"/>
      <point x="167" y="142" type="qcurve"/>
      <point x="160" y="156"/>
      <point x="152" y="191" type="qcurve"/>
      <point x="144" y="246" type="line"/>
      <point x="140" y="388" type="line"/>
      <point x="154" y="520" type="line"/>
      <point x="175" y="548"/>
      <point x="199" y="622" type="qcurve"/>
      <point x="209" y="653"/>
      <point x="215" y="669" type="qcurve"/>
      <point x="221" y="685"/>
      <point x="234" y="709" type="qcurve"/>
      <point x="247" y="733"/>
      <point x="261" y="745" type="qcurve"/>
      <point x="274" y="756"/>
      <point x="297" y="766" type="qcurve"/>
      <point x="320" y="775"/>
      <point x="349" y="775" type="qcurve"/>
      <point x="359" y="775"/>
      <point x="383" y="762" type="qcurve"/>
      <point x="401" y="752"/>
      <point x="410" y="749" type="qcurve"/>
      <point x="441" y="740"/>
      <point x="448" y="685" type="qcurve"/>
      <point x="449" y="681"/>
      <point x="453" y="681" type="qcurve"/>
      <point x="458" y="681"/>
    </contour>
  </outline>
</glyph>
<glyph name="C.2" format="2">
  <advance width="490"/>
  <outline>
    <contour>
      <point x="408" y="686" type="qcurve"/>
      <point x="408" y="687"/>
      <point x="408" y="687" type="qcurve"/>
      <point x="401" y="748"/>
      <point x="362" y="759" type="qcurve"/>
      <point x="357" y="761"/>
      <point x="335" y="773" type="qcurve"/>
      <point x="312" y="785"/>
      <point x="299" y="785" type="qcurve"/>
      <point x="277" y="785"/>
      <point x="258" y="780" type="qcurve"/>
      <point x="238" y="774"/>
      <point x="225" y="767" type="qcurve"/>
      <point x="211" y="760"/>
      <point x="199" y="746" type="qcurve"/>
      <point x="186" y="732"/>
      <point x="179" y="721" type="qcurve"/>
      <point x="172" y="710"/>
      <point x="164" y="690" type="qcurve"/>
      <point x="155" y="670"/>
      <point x="151" y="659" type="qcurve"/>
      <point x="147" y="648"/>
      <point x="140" y="626" type="qcurve"/>
      <point x="115" y="552"/>
      <point x="95" y="525" type="qcurve"/>
      <point x="94" y="524"/>
      <point x="94" y="523" type="qcurve"/>
      <point x="80" y="389" type="line"/>
      <point x="80" y="388" type="line"/>
      <point x="84" y="246" type="line"/>
      <point x="84" y="246"/>
      <point x="84" y="245" type="qcurve"/>
      <point x="92" y="189" type="line"/>
      <point x="100" y="153"/>
      <point x="109" y="138" type="qcurve"/>
      <point x="112" y="131"/>
      <point x="121" y="108" type="qcurve"/>
      <point x="140" y="60"/>
      <point x="154" y="41" type="qcurve"/>
      <point x="173" y="13"/>
      <point x="195" y="13" type="qcurve"/>
      <point x="208" y="13" type="line"/>
      <point x="256" y="-7"/>
      <point x="305" y="-7" type="qcurve"/>
      <point x="308" y="-7"/>
      <point x="311" y="-7" type="qcurve"/>
      <point x="322" y="-7"/>
      <point x="333" y="-4" type="qcurve"/>
      <point x="343" y="-2"/>
      <point x="350" y="1" type="qcurve"/>
      <point x="356" y="3"/>
      <point x="365" y="9" type="qcurve"/>
      <point x="374" y="15"/>
      <point x="378" y="18" type="qcurve"/>
      <point x="382" y="21"/>
      <point x="392" y="30" type="qcurve"/>
      <point x="401" y="38"/>
      <point x="404" y="40" type="qcurve"/>
      <point x="405" y="41"/>
      <point x="406" y="42" type="qcurve"/>
      <point x="424" y="90" type="line"/>
      <point x="424" y="91"/>
      <point x="424" y="92" type="qcurve"/>
      <point x="426" y="152" type="line"/>
      <point x="426" y="157"/>
      <point x="421" y="157" type="qcurve"/>
      <point x="416" y="157"/>
      <point x="416" y="152" type="qcurve"/>
      <point x="414" y="93" type="line"/>
      <point x="397" y="47" type="line"/>
      <point x="393" y="44"/>
      <point x="386" y="38" type="qcurve"/>
      <point x="364" y="18"/>
      <point x="349" y="11" type="qcurve"/>
      <point x="333" y="3"/>
      <point x="305" y="3" type="qcurve"/>
      <point x="257" y="3"/>
      <point x="211" y="23" type="qcurve"/>
      <point x="210" y="23"/>
      <point x="209" y="23" type="qcurve"/>
      <point x="195" y="23" type="line"/>
      <point x="178" y="23"/>
      <point x="162" y="47" type="qcurve"/>
      <point x="149" y="65"/>
      <point x="131" y="112" type="qcurve"/>
      <point x="121" y="135"/>
      <point x="117" y="142" type="qcurve"/>
      <point x="110" y="156"/>
      <point x="102" y="191" type="qcurve"/>
      <point x="94" y="246" type="line"/>
      <point x="90" y="388" type="line"/>
      <point x="104" y="520" type="line"/>
      <point x="125" y="548"/>
      <point x="149" y="622" type="qcurve"/>
      <point x="159" y="653"/>
      <point x="165" y="669" type="qcurve"/>
      <point x="171" y="685"/>
      <point x="184" y="709" type="qcurve"/>
      <point x="197" y="733"/>
      <point x="211" y="745" type="qcurve"/>
      <point x="224" y="756"/>
      <point x="247" y="766" type="qcurve"/>
      <point x="270" y="775"/>
      <point x="299" y="775" type="qcurve"/>
      <point x="309" y="775"/>
      <point x="333" y="762" type="qcurve"/>
      <point x="351" y="752"/>
      <point x="360" y="749" type="qcurve"/>
      <point x="391" y="740"/>
      <point x="398" y="685" type="qcurve"/>
      <point x="399" y="681"/>
      <point x="403" y="681" type="qcurve"/>
      <point x="408" y="681"/>
    </contour>
  </outline>
</glyph>
<glyph name="D.0" format="2">
  <advance width="507"/>
  <outline>
    <contour>
      <point x="241" y="103" type="qcurve"/>
      <point x="241" y="113"/>
      <point x="241" y="123" type="qcurve"/>
      <point x="241" y="168"/>
      <point x="229" y="264" type="qcurve"/>
      <point x="216" y="360"/>
      <point x="216" y="403" type="qcurve"/>
      <point x="216" y="405"/>
      <point x="216" y="408" type="qcurve"/>
      <point x="216" y="676" type="line"/>
      <point x="216" y="686"/>
      <point x="209" y="694" type="qcurve"/>
      <point x="201" y="701"/>
      <point x="191" y="701" type="qcurve"/>
      <point x="181" y="701"/>
      <point x="174" y="694" type="qcurve"/>
      <point x="166" y="686"/>
      <point x="166" y="676" type="qcurve"/>
      <point x="166" y="408" type="line"/>
      <point x="166" y="405"/>
      <point x="166" y="403" type="qcurve"/>
      <point x="166" y="358"/>
      <point x="179" y="262" type="qcurve"/>
      <point x="191" y="166"/>
      <point x="191" y="122" type="qcurve"/>
      <point x="191" y="112"/>
      <point x="191" y="104" type="qcurve"/>
      <point x="151" y="100"/>
      <point x="131" y="80" type="qcurve"/>
      <point x="113" y="62"/>
      <point x="110" y="32" type="qcurve"/>
      <point x="110" y="31"/>
      <point x="110" y="29" type="qcurve"/>
      <point x="110" y="11"/>
      <point x="123" y="-2" type="qcurve"/>
      <point x="130" y="-10"/>
      <point x="143" y="-15" type="qcurve"/>
      <point x="150" y="-18"/>
      <point x="163" y="-21" type="qcurve"/>
      <point x="176" y="-24"/>
      <point x="181" y="-26" type="qcurve"/>
      <point x="185" y="-27"/>
      <point x="189" y="-27" type="qcurve"/>
      <point x="203" y="-27"/>
      <point x="211" y="-15" type="qcurve"/>
      <point x="228" y="15"/>
      <point x="235" y="53" type="qcurve"/>
      <point x="302" y="49"/>
      <point x="305" y="49" type="qcurve"/>
      <point x="357" y="49"/>
      <point x="396" y="87" type="qcurve"/>
      <point x="413" y="105"/>
      <point x="429" y="132" type="qcurve"/>
      <point x="444" y="159"/>
      <point x="450" y="175" type="qcurve"/>
      <point x="456" y="191"/>
      <point x="470" y="227" type="qcurve"/>
      <point x="482" y="261"/>
      <point x="488" y="276" type="qcurve"/>
      <point x="490" y="279"/>
      <point x="490" y="283" type="qcurve"/>
      <point x="503" y="424" type="line"/>
      <point x="503" y="425"/>
      <point x="503" y="426" type="qcurve"/>
      <point x="503" y="431"/>
      <point x="502" y="435" type="qcurve"/>
      <point x="420" y="675" type="line"/>
      <point x="408" y="709"/>
      <point x="383" y="733" type="qcurve"/>
      <point x="330" y="787"/>
      <point x="239" y="787" type="qcurve"/>
      <point x="172" y="787"/>
      <point x="135" y="750" type="qcurve"/>
      <point x="109" y="724"/>
      <point x="101" y="683" type="qcurve"/>
      <point x="100" y="681"/>
      <point x="100" y="678" type="qcurve"/>
      <point x="100" y="668"/>
      <point x="108" y="661" type="qcurve"/>
      <point x="115" y="653"/>
      <point x="125" y="653" type="qcurve"/>
      <point x="134" y="653"/>
      <point x="141" y="659" type="qcurve"/>
      <point x="148" y="665"/>
      <point x="149" y="673" type="qcurve"/>
      <point x="155" y="699"/>
      <point x="170" y="714" type="qcurve"/>
      <point x="193" y="737"/>
      <point x="239" y="737" type="qcurve"/>
      <point x="287" y="737"/>
      <point x="324" y="717" type="qcurve"/>
      <point x="360" y="696"/>
      <point x="372" y="659" type="qcurve"/>
      <point x="453" y="423" type="line"/>
      <point x="441" y="292" type="line"/>
      <point x="435" y="277"/>
      <point x="423" y="244" type="qcurve"/>
      <point x="388" y="150"/>
      <point x="360" y="123" type="qcurve"/>
      <point x="337" y="99"/>
      <point x="305" y="99" type="qcurve"/>
      <point x="298" y="99"/>
    </contour>
    <contour>
      <point x="176" y="28" type="qcurve"/>
      <point x="165" y="30"/>
      <point x="160" y="32" type="qcurve"/>
      <point x="162" y="40"/>
      <point x="166" y="44" type="qcurve"/>
      <point x="171" y="49"/>
      <point x="184" y="52" type="qcurve"/>
      <point x="180" y="39"/>
    </contour>
  </outline>
</glyph>
<glyph name="D.1" format="2">
  <advance width="507"/>
  <outline>
    <contour>
      <point x="229" y="84" type="qcurve"/>
      <point x="231" y="102"/>
      <point x="231" y="122" type="qcurve"/>
      <point x="231" y="167"/>
      <point x="219" y="263" type="qcurve"/>
      <point x="206" y="359"/>
      <point x="206" y="403" type="qcurve"/>
      <point x="206" y="405"/>
      <point x="206" y="408" type="qcurve"/>
      <point x="206" y="676" type="line"/>
      <point x="206" y="681"/>
      <point x="201" y="681" type="qcurve"/>
      <point x="196" y="681"/>
      <point x="196" y="676" type="qcurve"/>
      <point x="196" y="408" type="line"/>
      <point x="196" y="405"/>
      <point x="196" y="403" type="qcurve"/>
      <point x="196" y="358"/>
      <point x="209" y="263" type="qcurve"/>
      <point x="221" y="167"/>
      <point x="221" y="122" type="qcurve"/>
      <point x="221" y="102"/>
      <point x="219" y="84" type="qcurve"/>
      <point x="145" y="84"/>
      <point x="140" y="30" type="qcurve"/>
      <point x="140" y="30"/>
      <point x="140" y="28" type="qcurve"/>
      <point x="140" y="19"/>
      <point x="147" y="13" type="qcurve"/>
      <point x="153" y="6"/>
      <point x="161" y="4" type="qcurve"/>
      <point x="168" y="1"/>
      <point x="181" y="-2" type="qcurve"/>
      <point x="193" y="-5"/>
      <point x="197" y="-7" type="qcurve"/>
      <point x="198" y="-7"/>
      <point x="199" y="-7" type="qcurve"/>
      <point x="202" y="-7"/>
      <point x="203" y="-4" type="qcurve"/>
      <point x="222" y="28"/>
      <point x="228" y="74" type="qcurve"/>
      <point x="240" y="74"/>
      <point x="270" y="72" type="qcurve"/>
      <point x="300" y="69"/>
      <point x="315" y="69" type="qcurve"/>
      <point x="333" y="69"/>
      <point x="349" y="75" type="qcurve"/>
      <point x="365" y="80"/>
      <point x="377" y="88" type="qcurve"/>
      <point x="388" y="96"/>
      <point x="400" y="111" type="qcurve"/>
      <point x="412" y="126"/>
      <point x="419" y="137" type="qcurve"/>
      <point x="426" y="148"/>
      <point x="435" y="169" type="qcurve"/>
      <point x="444" y="190"/>
      <point x="448" y="201" type="qcurve"/>
      <point x="452" y="211"/>
      <point x="461" y="234" type="qcurve"/>
      <point x="474" y="268"/>
      <point x="480" y="284" type="qcurve"/>
      <point x="480" y="284"/>
      <point x="481" y="285" type="qcurve"/>
      <point x="493" y="426" type="line"/>
      <point x="493" y="427"/>
      <point x="493" y="428" type="qcurve"/>
      <point x="411" y="669" type="line"/>
      <point x="394" y="717"/>
      <point x="350" y="742" type="qcurve"/>
      <point x="305" y="767"/>
      <point x="249" y="767" type="qcurve"/>
      <point x="199" y="767"/>
      <point x="169" y="744" type="qcurve"/>
      <point x="139" y="721"/>
      <point x="130" y="679" type="qcurve"/>
      <point x="130" y="679"/>
      <point x="130" y="678" type="qcurve"/>
      <point x="130" y="673"/>
      <point x="135" y="673" type="qcurve"/>
      <point x="139" y="673"/>
      <point x="140" y="677" type="qcurve"/>
      <point x="156" y="757"/>
      <point x="249" y="757" type="qcurve"/>
      <point x="302" y="757"/>
      <point x="344" y="734" type="qcurve"/>
      <point x="386" y="710"/>
      <point x="401" y="665" type="qcurve"/>
      <point x="483" y="426" type="line"/>
      <point x="471" y="287" type="line"/>
      <point x="464" y="271"/>
      <point x="451" y="237" type="qcurve"/>
      <point x="440" y="207"/>
      <point x="434" y="191" type="qcurve"/>
      <point x="427" y="174"/>
      <point x="414" y="149" type="qcurve"/>
      <point x="401" y="124"/>
      <point x="388" y="112" type="qcurve"/>
      <point x="375" y="99"/>
      <point x="356" y="89" type="qcurve"/>
      <point x="337" y="79"/>
      <point x="315" y="79" type="qcurve"/>
      <point x="300" y="79"/>
      <point x="271" y="82" type="qcurve"/>
      <point x="241" y="84"/>
    </contour>
    <contour>
      <point x="150" y="28" type="qcurve"/>
      <point x="150" y="29"/>
      <point x="150" y="30" type="qcurve"/>
      <point x="152" y="55"/>
      <point x="170" y="65" type="qcurve"/>
      <point x="187" y="74"/>
      <point x="218" y="74" type="qcurve"/>
      <point x="213" y="34"/>
      <point x="197" y="4" type="qcurve"/>
      <point x="193" y="5"/>
      <point x="184" y="7" type="qcurve"/>
      <point x="166" y="12"/>
      <point x="158" y="16" type="qcurve"/>
      <point x="150" y="20"/>
    </contour>
  </outline>
</glyph>
<glyph name="D.2" format="2">
  <advance width="507"/>
  <outline>
    <contour>
      <point x="179" y="84" type="qcurve"/>
      <point x="181" y="102"/>
      <point x="181" y="122" type="qcurve"/>
      <point x="181" y="167"/>
      <point x="169" y="263" type="qcurve"/>
      <point x="156" y="359"/>
      <point x="156" y="403" type="qcurve"/>
      <point x="156" y="405"/>
      <point x="156" y="408" type="qcurve"/>
      <point x="156" y="676" type="line"/>
      <point x="156" y="681"/>
      <point x="151" y="681" type="qcurve"/>
      <point x="146" y="681"/>
      <point x="146" y="676" type="qcurve"/>
      <point x="146" y="408" type="line"/>
      <point x="146" y="405"/>
      <point x="146" y="403" type="qcurve"/>
      <point x="146" y="358"/>
      <point x="159" y="263" type="qcurve"/>
      <point x="171" y="167"/>
      <point x="171" y="122" type="qcurve"/>
      <point x="171" y="102"/>
      <point x="169" y="84" type="qcurve"/>
      <point x="95" y="84"/>
      <point x="90" y="30" type="qcurve"/>
      <point x="90" y="30"/>
      <point x="90" y="28" type="qcurve"/>
      <point x="90" y="19"/>
      <point x="97" y="13" type="qcurve"/>
      <point x="103" y="6"/>
      <point x="111" y="4" type="qcurve"/>
      <point x="118" y="1"/>
      <point x="131" y="-2" type="qcurve"/>
      <point x="143" y="-5"/>
      <point x="147" y="-7" type="qcurve"/>
      <point x="148" y="-7"/>
      <point x="149" y="-7" type="qcurve"/>
      <point x="152" y="-7"/>
      <point x="153" y="-4" type="qcurve"/>
      <point x="172" y="28"/>
      <point x="178" y="74" type="qcurve"/>
      <point x="190" y="74"/>
      <point x="220" y="72" type="qcurve"/>
      <point x="250" y="69"/>
      <point x="265" y="69" type="qcurve"/>
      <point x="283" y="69"/>
      <point x="299" y="75" type="qcurve"/>
      <point x="315" y="80"/>
      <point x="327" y="88" type="qcurve"/>
      <point x="338" y="96"/>
      <point x="350" y="111" type="qcurve"/>
      <point x="362" y="126"/>
      <point x="369" y="137" type="qcurve"/>
      <point x="376" y="148"/>
      <point x="385" y="169" type="qcurve"/>
      <point x="394" y="190"/>
      <point x="398" y="201" type="qcurve"/>
      <point x="402" y="211"/>
      <point x="411" y="234" type="qcurve"/>
      <point x="424" y="268"/>
      <point x="430" y="284" type="qcurve"/>
      <point x="430" y="284"/>
      <point x="431" y="285" type="qcurve"/>
      <point x="443" y="426" type="line"/>
      <point x="443" y="427"/>
      <point x="443" y="428" type="qcurve"/>
      <point x="361" y="669" type="line"/>
      <point x="344" y="717"/>
      <point x="300" y="742" type="qcurve"/>
      <point x="255" y="767"/>
      <point x="199" y="767" type="qcurve"/>
      <point x="149" y="767"/>
      <point x="119" y="744" type="qcurve"/>
      <point x="89" y="721"/>
      <point x="80" y="679" type="qcurve"/>
      <point x="80" y="679"/>
      <point x="80" y="678" type="qcurve"/>
      <point x="80" y="673"/>
      <point x="85" y="673" type="qcurve"/>
      <point x="89" y="673"/>
      <point x="90" y="677" type="qcurve"/>
      <point x="106" y="757"/>
      <point x="199" y="757" type="qcurve"/>
      <point x="252" y="757"/>
      <point x="294" y="734" type="qcurve"/>
      <point x="336" y="710"/>
      <point x="351" y="665" type="qcurve"/>
      <point x="433" y="426" type="line"/>
      <point x="421" y="287" type="line"/>
      <point x="414" y="271"/>
      <point x="401" y="237" type="qcurve"/>
      <point x="390" y="207"/>
      <point x="384" y="191" type="qcurve"/>
      <point x="377" y="174"/>
      <point x="364" y="149" type="qcurve"/>
      <point x="351" y="124"/>
      <point x="338" y="112" type="qcurve"/>
      <point x="325" y="99"/>
      <point x="306" y="89" type="qcurve"/>
      <point x="287" y="79"/>
      <point x="265" y="79" type="qcurve"/>
      <point x="250" y="79"/>
      <point x="221" y="82" type="qcurve"/>
      <point x="191" y="84"/>
    </contour>
    <contour>
      <point x="100" y="28" type="qcurve"/>
      <point x="100" y="29"/>
      <point x="100" y="30" type="qcurve"/>
      <point x="102" y="55"/>
      <point x="120" y="65" type="qcurve"/>
      <point x="137" y="74"/>
      <point x="168" y="74" type="qcurve"/>
      <point x="163" y="34"/>
      <point x="147" y="4" type="qcurve"/>
      <point x="143" y="5"/>
      <point x="134" y="7" type="qcurve"/>
      <point x="116" y="12"/>
      <point x="108" y="16" type="qcurve"/>
      <point x="100" y="20"/>
    </contour>
  </outline>
</glyph>
<glyph name="E.1" format="2">
  <advance width="477"/>
  <outline>
    <contour>
      <point x="134" y="578" type="qcurve"/>
      <point x="134" y="569"/>
      <point x="133" y="550" type="qcurve"/>
      <point x="131" y="530"/>
      <point x="131" y="520" type="qcurve"/>
      <point x="131" y="470"/>
      <point x="163" y="448" type="qcurve"/>
      <point x="166" y="446"/>
      <point x="171" y="441" type="qcurve"/>
      <point x="175" y="435"/>
      <point x="181" y="431" type="qcurve"/>
      <point x="186" y="427"/>
      <point x="192" y="427" type="qcurve"/>
      <point x="192" y="427"/>
      <point x="194" y="427" type="qcurve"/>
      <point x="195" y="427"/>
      <point x="196" y="427" type="qcurve"/>
      <point x="201" y="427"/>
      <point x="211" y="425" type="qcurve"/>
      <point x="220" y="422"/>
      <point x="223" y="421" type="qcurve"/>
      <point x="230" y="420"/>
      <point x="244" y="414" type="qcurve"/>
      <point x="258" y="407"/>
      <point x="269" y="407" type="qcurve"/>
      <point x="213" y="381"/>
      <point x="182" y="337" type="qcurve"/>
      <point x="130" y="297"/>
      <point x="130" y="229" type="qcurve"/>
      <point x="130" y="220"/>
      <point x="131" y="212" type="qcurve"/>
      <point x="130" y="191"/>
      <point x="130" y="183" type="qcurve"/>
      <point x="130" y="139"/>
      <point x="145" y="114" type="qcurve"/>
      <point x="161" y="63"/>
      <point x="209" y="33" type="qcurve"/>
      <point x="257" y="2"/>
      <point x="313" y="1" type="qcurve"/>
      <point x="327" y="-3"/>
      <point x="341" y="-3" type="qcurve"/>
      <point x="395" y="-3"/>
      <point x="436" y="51" type="qcurve"/>
      <point x="456" y="77" type="line"/>
      <point x="456" y="77"/>
      <point x="456" y="78" type="qcurve"/>
      <point x="462" y="90" type="line"/>
      <point x="463" y="91"/>
      <point x="463" y="92" type="qcurve"/>
      <point x="463" y="97"/>
      <point x="458" y="97" type="qcurve"/>
      <point x="455" y="97"/>
      <point x="453" y="94" type="qcurve"/>
      <point x="448" y="83" type="line"/>
      <point x="428" y="57" type="line"/>
      <point x="390" y="7"/>
      <point x="341" y="7" type="qcurve"/>
      <point x="328" y="7"/>
      <point x="315" y="11" type="qcurve"/>
      <point x="315" y="11"/>
      <point x="314" y="11" type="qcurve"/>
      <point x="261" y="12"/>
      <point x="215" y="41" type="qcurve"/>
      <point x="169" y="69"/>
      <point x="155" y="117" type="qcurve"/>
      <point x="154" y="118"/>
      <point x="154" y="119" type="qcurve"/>
      <point x="140" y="142"/>
      <point x="140" y="183" type="qcurve"/>
      <point x="140" y="187"/>
      <point x="141" y="197" type="qcurve"/>
      <point x="141" y="207"/>
      <point x="141" y="212" type="qcurve"/>
      <point x="141" y="215"/>
      <point x="141" y="221" type="qcurve"/>
      <point x="140" y="226"/>
      <point x="140" y="229" type="qcurve"/>
      <point x="140" y="293"/>
      <point x="189" y="330" type="qcurve"/>
      <point x="189" y="331"/>
      <point x="190" y="331" type="qcurve"/>
      <point x="208" y="357"/>
      <point x="240" y="379" type="qcurve"/>
      <point x="272" y="400"/>
      <point x="299" y="407" type="qcurve"/>
      <point x="303" y="408"/>
      <point x="303" y="412" type="qcurve"/>
      <point x="303" y="417"/>
      <point x="298" y="417" type="qcurve"/>
      <point x="270" y="417" type="line"/>
      <point x="260" y="417"/>
      <point x="246" y="424" type="qcurve"/>
      <point x="232" y="430"/>
      <point x="225" y="431" type="qcurve"/>
      <point x="221" y="431"/>
      <point x="212" y="434" type="qcurve"/>
      <point x="202" y="437"/>
      <point x="196" y="437" type="qcurve"/>
      <point x="194" y="437"/>
      <point x="192" y="437" type="qcurve"/>
      <point x="187" y="437"/>
      <point x="177" y="448" type="qcurve"/>
      <point x="171" y="454"/>
      <point x="169" y="456" type="qcurve"/>
      <point x="141" y="475"/>
      <point x="141" y="520" type="qcurve"/>
      <point x="141" y="530"/>
      <point x="143" y="550" type="qcurve"/>
      <point x="144" y="569"/>
      <point x="144" y="578" type="qcurve"/>
      <point x="144" y="587"/>
      <point x="143" y="594" type="qcurve"/>
      <point x="143" y="595" type="line"/>
      <point x="143" y="654"/>
      <point x="186" y="711" type="qcurve"/>
      <point x="186" y="711"/>
      <point x="186" y="712" type="qcurve"/>
      <point x="198" y="733"/>
      <point x="220" y="748" type="qcurve"/>
      <point x="242" y="762"/>
      <point x="268" y="765" type="qcurve"/>
      <point x="284" y="765"/>
      <point x="315" y="762" type="qcurve"/>
      <point x="345" y="759"/>
      <point x="360" y="759" type="qcurve"/>
      <point x="370" y="759"/>
      <point x="391" y="748" type="qcurve"/>
      <point x="411" y="736"/>
      <point x="421" y="735" type="qcurve"/>
      <point x="422" y="735"/>
      <point x="422" y="735" type="qcurve"/>
      <point x="427" y="735"/>
      <point x="427" y="740" type="qcurve"/>
      <point x="427" y="745"/>
      <point x="422" y="745" type="qcurve"/>
      <point x="414" y="746"/>
      <point x="396" y="756" type="qcurve"/>
      <point x="373" y="769"/>
      <point x="360" y="769" type="qcurve"/>
      <point x="345" y="769"/>
      <point x="315" y="772" type="qcurve"/>
      <point x="284" y="775"/>
      <point x="268" y="775" type="qcurve"/>
      <point x="267" y="775"/>
      <point x="267" y="775" type="qcurve"/>
      <point x="239" y="771"/>
      <point x="215" y="756" type="qcurve"/>
      <point x="191" y="741"/>
      <point x="178" y="717" type="qcurve"/>
      <point x="133" y="657"/>
      <point x="133" y="595" type="qcurve"/>
      <point x="133" y="592"/>
      <point x="134" y="587" type="qcurve"/>
      <point x="134" y="581"/>
    </contour>
  </outline>
</glyph>
<glyph name="E.2" format="2">
  <advance width="477"/>
  <outline>
    <contour>
      <point x="84" y="578" type="qcurve"/>
      <point x="84" y="569"/>
      <point x="83" y="550" type="qcurve"/>
      <point x="81" y="530"/>
      <point x="81" y="520" type="qcurve"/>
      <point x="81" y="470"/>
      <point x="113" y="448" type="qcurve"/>
      <point x="116" y="446"/>
      <point x="121" y="441" type="qcurve"/>
      <point x="125" y="435"/>
      <point x="131" y="431" type="qcurve"/>
      <point x="136" y="427"/>
      <point x="142" y="427" type="qcurve"/>
      <point x="142" y="427"/>
      <point x="144" y="427" type="qcurve"/>
      <point x="145" y="427"/>
      <point x="146" y="427" type="qcurve"/>
      <point x="151" y="427"/>
      <point x="161" y="425" type="qcurve"/>
      <point x="170" y="422"/>
      <point x="173" y="421" type="qcurve"/>
      <point x="180" y="420"/>
      <point x="194" y="414" type="qcurve"/>
      <point x="208" y="407"/>
      <point x="219" y="407" type="qcurve"/>
      <point x="163" y="381"/>
      <point x="132" y="337" type="qcurve"/>
      <point x="80" y="297"/>
      <point x="80" y="229" type="qcurve"/>
      <point x="80" y="220"/>
      <point x="81" y="212" type="qcurve"/>
      <point x="80" y="191"/>
      <point x="80" y="183" type="qcurve"/>
      <point x="80" y="139"/>
      <point x="95" y="114" type="qcurve"/>
      <point x="111" y="63"/>
      <point x="159" y="33" type="qcurve"/>
      <point x="207" y="2"/>
      <point x="263" y="1" type="qcurve"/>
      <point x="277" y="-3"/>
      <point x="291" y="-3" type="qcurve"/>
      <point x="345" y="-3"/>
      <point x="386" y="51" type="qcurve"/>
      <point x="406" y="77" type="line"/>
      <point x="406" y="77"/>
      <point x="406" y="78" type="qcurve"/>
      <point x="412" y="90" type="line"/>
      <point x="413" y="91"/>
      <point x="413" y="92" type="qcurve"/>
      <point x="413" y="97"/>
      <point x="408" y="97" type="qcurve"/>
      <point x="405" y="97"/>
      <point x="403" y="94" type="qcurve"/>
      <point x="398" y="83" type="line"/>
      <point x="378" y="57" type="line"/>
      <point x="340" y="7"/>
      <point x="291" y="7" type="qcurve"/>
      <point x="278" y="7"/>
      <point x="265" y="11" type="qcurve"/>
      <point x="265" y="11"/>
      <point x="264" y="11" type="qcurve"/>
      <point x="211" y="12"/>
      <point x="165" y="41" type="qcurve"/>
      <point x="119" y="69"/>
      <point x="105" y="117" type="qcurve"/>
      <point x="104" y="118"/>
      <point x="104" y="119" type="qcurve"/>
      <point x="90" y="142"/>
      <point x="90" y="183" type="qcurve"/>
      <point x="90" y="187"/>
      <point x="91" y="197" type="qcurve"/>
      <point x="91" y="207"/>
      <point x="91" y="212" type="qcurve"/>
      <point x="91" y="215"/>
      <point x="91" y="221" type="qcurve"/>
      <point x="90" y="226"/>
      <point x="90" y="229" type="qcurve"/>
      <point x="90" y="293"/>
      <point x="139" y="330" type="qcurve"/>
      <point x="139" y="331"/>
      <point x="140" y="331" type="qcurve"/>
      <point x="158" y="357"/>
      <point x="190" y="379" type="qcurve"/>
      <point x="222" y="400"/>
      <point x="249" y="407" type="qcurve"/>
      <point x="253" y="408"/>
      <point x="253" y="412" type="qcurve"/>
      <point x="253" y="417"/>
      <point x="248" y="417" type="qcurve"/>
      <point x="220" y="417" type="line"/>
      <point x="210" y="417"/>
      <point x="196" y="424" type="qcurve"/>
      <point x="182" y="430"/>
      <point x="175" y="431" type="qcurve"/>
      <point x="171" y="431"/>
      <point x="162" y="434" type="qcurve"/>
      <point x="152" y="437"/>
      <point x="146" y="437" type="qcurve"/>
      <point x="144" y="437"/>
      <point x="142" y="437" type="qcurve"/>
      <point x="137" y="437"/>
      <point x="127" y="448" type="qcurve"/>
      <point x="121" y="454"/>
      <point x="119" y="456" type="qcurve"/>
      <point x="91" y="475"/>
      <point x="91" y="520" type="qcurve"/>
      <point x="91" y="530"/>
      <point x="93" y="550" type="qcurve"/>
      <point x="94" y="569"/>
      <point x="94" y="578" type="qcurve"/>
      <point x="94" y="587"/>
      <point x="93" y="594" type="qcurve"/>
      <point x="93" y="595" type="line"/>
      <point x="93" y="654"/>
      <point x="136" y="711" type="qcurve"/>
      <point x="136" y="711"/>
      <point x="136" y="712" type="qcurve"/>
      <point x="148" y="733"/>
      <point x="170" y="748" type="qcurve"/>
      <point x="192" y="762"/>
      <point x="218" y="765" type="qcurve"/>
      <point x="234" y="765"/>
      <point x="265" y="762" type="qcurve"/>
      <point x="295" y="759"/>
      <point x="310" y="759" type="qcurve"/>
      <point x="320" y="759"/>
      <point x="341" y="748" type="qcurve"/>
      <point x="361" y="736"/>
      <point x="371" y="735" type="qcurve"/>
      <point x="372" y="735"/>
      <point x="372" y="735" type="qcurve"/>
      <point x="377" y="735"/>
      <point x="377" y="740" type="qcurve"/>
      <point x="377" y="745"/>
      <point x="372" y="745" type="qcurve"/>
      <point x="364" y="746"/>
      <point x="346" y="756" type="qcurve"/>
      <point x="323" y="769"/>
      <point x="310" y="769" type="qcurve"/>
      <point x="295" y="769"/>
      <point x="265" y="772" type="qcurve"/>
      <point x="234" y="775"/>
      <point x="218" y="775" type="qcurve"/>
      <point x="217" y="775"/>
      <point x="217" y="775" type="qcurve"/>
      <point x="189" y="771"/>
      <point x="165" y="756" type="qcurve"/>
      <point x="141" y="741"/>
      <point x="128" y="717" type="qcurve"/>
      <point x="83" y="657"/>
      <point x="83" y="595" type="qcurve"/>
      <point x="83" y="592"/>
      <point x="84" y="587" type="qcurve"/>
      <point x="84" y="581"/>
    </contour>
  </outline>
</glyph>
<glyph name="F.0" format="2">
  <advance width="586"/>
  <outline>
    <contour>
      <point x="129" y="389" type="qcurve"/>
      <point x="137" y="389" type="line"/>
      <point x="157" y="389"/>
      <point x="197" y="379" type="qcurve"/>
      <point x="237" y="369"/>
      <point x="239" y="369" type="qcurve"/>
      <point x="325" y="365" type="line"/>
      <point x="327" y="365" type="line"/>
      <point x="341" y="365"/>
      <point x="352" y="376" type="qcurve"/>
      <point x="362" y="386"/>
      <point x="362" y="400" type="qcurve"/>
      <point x="362" y="414"/>
      <point x="352" y="424" type="qcurve"/>
      <point x="342" y="434"/>
      <point x="328" y="435" type="qcurve"/>
      <point x="239" y="439" type="line"/>
      <point x="237" y="439"/>
      <point x="197" y="449" type="qcurve"/>
      <point x="157" y="459"/>
      <point x="137" y="459" type="qcurve"/>
      <point x="129" y="459" type="line"/>
      <point x="114" y="459"/>
      <point x="104" y="449" type="qcurve"/>
      <point x="94" y="439"/>
      <point x="94" y="424" type="qcurve"/>
      <point x="94" y="409"/>
      <point x="104" y="399" type="qcurve"/>
      <point x="114" y="389"/>
    </contour>
    <contour>
      <point x="176" y="286" type="qcurve"/>
      <point x="176" y="270"/>
      <point x="178" y="238" type="qcurve"/>
      <point x="174" y="216"/>
      <point x="174" y="199" type="qcurve"/>
      <point x="174" y="186"/>
      <point x="175" y="160" type="qcurve"/>
      <point x="176" y="134"/>
      <point x="176" y="122" type="qcurve"/>
      <point x="176" y="68"/>
      <point x="166" y="45" type="qcurve"/>
      <point x="152" y="41"/>
      <point x="141" y="41" type="qcurve"/>
      <point x="135" y="41" type="line"/>
      <point x="107" y="43"/>
      <point x="101" y="47" type="qcurve"/>
      <point x="94" y="51"/>
      <point x="86" y="51" type="qcurve"/>
      <point x="73" y="51"/>
      <point x="64" y="43" type="qcurve"/>
      <point x="55" y="34"/>
      <point x="55" y="21" type="qcurve"/>
      <point x="55" y="2"/>
      <point x="70" y="-6" type="qcurve"/>
      <point x="101" y="-23" type="line"/>
      <point x="111" y="-29"/>
      <point x="131" y="-29" type="qcurve"/>
      <point x="133" y="-29"/>
      <point x="136" y="-29" type="qcurve"/>
      <point x="139" y="-30"/>
      <point x="141" y="-30" type="qcurve"/>
      <point x="169" y="-30"/>
      <point x="186" y="-13" type="qcurve"/>
      <point x="222" y="22" type="line"/>
      <point x="247" y="47"/>
      <point x="247" y="122" type="qcurve"/>
      <point x="247" y="134"/>
      <point x="246" y="160" type="qcurve"/>
      <point x="245" y="186"/>
      <point x="245" y="199" type="qcurve"/>
      <point x="245" y="222"/>
      <point x="248" y="238" type="qcurve"/>
      <point x="247" y="254"/>
      <point x="247" y="286" type="qcurve"/>
      <point x="247" y="326"/>
      <point x="252" y="407" type="qcurve"/>
      <point x="257" y="488"/>
      <point x="257" y="529" type="qcurve"/>
      <point x="257" y="532"/>
      <point x="257" y="539" type="qcurve"/>
      <point x="256" y="546"/>
      <point x="256" y="550" type="qcurve"/>
      <point x="254" y="567"/>
      <point x="254" y="601" type="qcurve"/>
      <point x="254" y="634"/>
      <point x="254" y="641" type="qcurve"/>
      <point x="279" y="650"/>
      <point x="347" y="696" type="qcurve"/>
      <point x="414" y="741"/>
      <point x="451" y="747" type="qcurve"/>
      <point x="456" y="748"/>
      <point x="466" y="748" type="qcurve"/>
      <point x="471" y="748"/>
      <point x="481" y="746" type="qcurve"/>
      <point x="481" y="745"/>
      <point x="482" y="743" type="qcurve"/>
      <point x="482" y="741"/>
      <point x="482" y="740" type="qcurve"/>
      <point x="487" y="735"/>
      <point x="491" y="713" type="qcurve"/>
      <point x="494" y="699"/>
      <point x="498" y="692" type="qcurve"/>
      <point x="516" y="661" type="line"/>
      <point x="524" y="646"/>
      <point x="542" y="646" type="qcurve"/>
      <point x="555" y="646"/>
      <point x="564" y="655" type="qcurve"/>
      <point x="573" y="663"/>
      <point x="573" y="676" type="qcurve"/>
      <point x="573" y="684"/>
      <point x="568" y="692" type="qcurve"/>
      <point x="566" y="695"/>
      <point x="562" y="713" type="qcurve"/>
      <point x="558" y="733"/>
      <point x="552" y="740" type="qcurve"/>
      <point x="552" y="758"/>
      <point x="541" y="769" type="qcurve"/>
      <point x="505" y="805" type="line"/>
      <point x="491" y="819"/>
      <point x="466" y="819" type="qcurve"/>
      <point x="461" y="819"/>
      <point x="451" y="817" type="qcurve"/>
      <point x="415" y="810"/>
      <point x="337" y="759" type="qcurve"/>
      <point x="273" y="717"/>
      <point x="244" y="709" type="qcurve"/>
      <point x="235" y="740"/>
      <point x="220" y="756" type="qcurve"/>
      <point x="193" y="785"/>
      <point x="135" y="839" type="qcurve"/>
      <point x="100" y="804" type="line"/>
      <point x="98" y="748" type="line"/>
      <point x="102" y="743" type="line"/>
      <point x="107" y="737"/>
      <point x="121" y="718" type="qcurve"/>
      <point x="135" y="699"/>
      <point x="144" y="690" type="qcurve"/>
      <point x="179" y="654" type="line"/>
      <point x="182" y="651" type="line"/>
      <point x="183" y="638"/>
      <point x="184" y="603" type="qcurve"/>
      <point x="184" y="568"/>
      <point x="186" y="550" type="qcurve"/>
      <point x="186" y="529" type="line"/>
      <point x="186" y="488"/>
      <point x="181" y="407" type="qcurve"/>
      <point x="176" y="326"/>
    </contour>
  </outline>
</glyph>
<glyph name="F.1" format="2">
  <advance width="586"/>
  <outline>
    <contour>
      <point x="163" y="419" type="qcurve"/>
      <point x="171" y="419" type="line"/>
      <point x="186" y="419"/>
      <point x="203" y="416" type="qcurve"/>
      <point x="220" y="412"/>
      <point x="241" y="407" type="qcurve"/>
      <point x="262" y="401"/>
      <point x="272" y="399" type="qcurve"/>
      <point x="272" y="399"/>
      <point x="273" y="399" type="qcurve"/>
      <point x="359" y="395" type="line"/>
      <point x="364" y="395"/>
      <point x="364" y="400" type="qcurve"/>
      <point x="364" y="405"/>
      <point x="359" y="405" type="qcurve"/>
      <point x="274" y="409" type="line"/>
      <point x="263" y="411"/>
      <point x="242" y="417" type="qcurve"/>
      <point x="221" y="422"/>
      <point x="204" y="426" type="qcurve"/>
      <point x="186" y="429"/>
      <point x="171" y="429" type="qcurve"/>
      <point x="163" y="429" type="line"/>
      <point x="158" y="429"/>
      <point x="158" y="424" type="qcurve"/>
      <point x="158" y="419"/>
    </contour>
    <contour>
      <point x="241" y="286" type="qcurve"/>
      <point x="241" y="261"/>
      <point x="242" y="238" type="qcurve"/>
      <point x="239" y="224"/>
      <point x="239" y="199" type="qcurve"/>
      <point x="239" y="186"/>
      <point x="240" y="160" type="qcurve"/>
      <point x="241" y="134"/>
      <point x="241" y="122" type="qcurve"/>
      <point x="241" y="69"/>
      <point x="228" y="40" type="qcurve"/>
      <point x="214" y="11"/>
      <point x="175" y="11" type="qcurve"/>
      <point x="172" y="11"/>
      <point x="169" y="11" type="qcurve"/>
      <point x="145" y="12"/>
      <point x="137" y="16" type="qcurve"/>
      <point x="136" y="17"/>
      <point x="135" y="17" type="qcurve"/>
      <point x="130" y="17"/>
      <point x="130" y="12" type="qcurve"/>
      <point x="130" y="9"/>
      <point x="133" y="8" type="qcurve"/>
      <point x="142" y="2"/>
      <point x="169" y="1" type="qcurve"/>
      <point x="194" y="-1"/>
      <point x="212" y="9" type="qcurve"/>
      <point x="229" y="18"/>
      <point x="237" y="37" type="qcurve"/>
      <point x="245" y="56"/>
      <point x="248" y="76" type="qcurve"/>
      <point x="251" y="95"/>
      <point x="251" y="122" type="qcurve"/>
      <point x="251" y="134"/>
      <point x="250" y="160" type="qcurve"/>
      <point x="249" y="186"/>
      <point x="249" y="199" type="qcurve"/>
      <point x="249" y="223"/>
      <point x="252" y="237" type="qcurve"/>
      <point x="252" y="237"/>
      <point x="252" y="238" type="qcurve"/>
      <point x="251" y="261"/>
      <point x="251" y="286" type="qcurve"/>
      <point x="251" y="326"/>
      <point x="256" y="407" type="qcurve"/>
      <point x="260" y="488"/>
      <point x="260" y="529" type="qcurve"/>
      <point x="260" y="548"/>
      <point x="260" y="550" type="qcurve"/>
      <point x="258" y="569"/>
      <point x="258" y="608" type="qcurve"/>
      <point x="257" y="647"/>
      <point x="256" y="665" type="qcurve"/>
      <point x="273" y="665"/>
      <point x="296" y="675" type="qcurve"/>
      <point x="318" y="684"/>
      <point x="332" y="693" type="qcurve"/>
      <point x="346" y="701"/>
      <point x="374" y="720" type="qcurve"/>
      <point x="450" y="771"/>
      <point x="486" y="777" type="qcurve"/>
      <point x="493" y="778"/>
      <point x="500" y="778" type="qcurve"/>
      <point x="520" y="778"/>
      <point x="533" y="769" type="qcurve"/>
      <point x="546" y="759"/>
      <point x="546" y="740" type="qcurve"/>
      <point x="546" y="738"/>
      <point x="547" y="737" type="qcurve"/>
      <point x="552" y="731"/>
      <point x="556" y="714" type="qcurve"/>
      <point x="559" y="696"/>
      <point x="563" y="689" type="qcurve"/>
      <point x="564" y="687"/>
      <point x="567" y="687" type="qcurve"/>
      <point x="572" y="687"/>
      <point x="572" y="692" type="qcurve"/>
      <point x="572" y="693"/>
      <point x="571" y="695" type="qcurve"/>
      <point x="568" y="700"/>
      <point x="565" y="714" type="qcurve"/>
      <point x="561" y="734"/>
      <point x="556" y="742" type="qcurve"/>
      <point x="555" y="759"/>
      <point x="532" y="775" type="qcurve"/>
      <point x="509" y="791"/>
      <point x="499" y="791" type="qcurve"/>
      <point x="498" y="791"/>
      <point x="498" y="791" type="qcurve"/>
      <point x="498" y="790"/>
      <point x="500" y="788" type="qcurve"/>
      <point x="492" y="788"/>
      <point x="484" y="787" type="qcurve"/>
      <point x="466" y="784"/>
      <point x="444" y="774" type="qcurve"/>
      <point x="422" y="763"/>
      <point x="408" y="755" type="qcurve"/>
      <point x="394" y="746"/>
      <point x="368" y="728" type="qcurve"/>
      <point x="342" y="711"/>
      <point x="327" y="702" type="qcurve"/>
      <point x="311" y="692"/>
      <point x="291" y="684" type="qcurve"/>
      <point x="270" y="675"/>
      <point x="255" y="675" type="qcurve"/>
      <point x="249" y="729"/>
      <point x="223" y="759" type="qcurve"/>
      <point x="223" y="759"/>
      <point x="222" y="760" type="qcurve"/>
      <point x="172" y="808" type="line"/>
      <point x="171" y="809"/>
      <point x="169" y="809" type="qcurve"/>
      <point x="164" y="809"/>
      <point x="164" y="804" type="qcurve"/>
      <point x="162" y="748" type="line"/>
      <point x="162" y="746"/>
      <point x="164" y="744" type="qcurve"/>
      <point x="171" y="738"/>
      <point x="185" y="718" type="qcurve"/>
      <point x="195" y="703"/>
      <point x="201" y="695" type="qcurve"/>
      <point x="207" y="687"/>
      <point x="220" y="678" type="qcurve"/>
      <point x="232" y="668"/>
      <point x="246" y="666" type="qcurve"/>
      <point x="247" y="647"/>
      <point x="248" y="608" type="qcurve"/>
      <point x="248" y="569"/>
      <point x="250" y="550" type="qcurve"/>
      <point x="250" y="540"/>
      <point x="250" y="529" type="qcurve"/>
      <point x="250" y="488"/>
      <point x="246" y="407" type="qcurve"/>
      <point x="241" y="326"/>
    </contour>
    <contour>
      <point x="215" y="753" type="line"/>
      <point x="238" y="725"/>
      <point x="244" y="676" type="qcurve"/>
      <point x="234" y="679"/>
      <point x="224" y="687" type="qcurve"/>
      <point x="214" y="695"/>
      <point x="208" y="703" type="qcurve"/>
      <point x="202" y="710"/>
      <point x="193" y="724" type="qcurve"/>
      <point x="179" y="743"/>
      <point x="172" y="750" type="qcurve"/>
      <point x="174" y="793" type="line"/>
    </contour>
  </outline>
</glyph>
<glyph name="F.2" format="2">
  <advance width="586"/>
  <outline>
    <contour>
      <point x="113" y="419" type="qcurve"/>
      <point x="121" y="419" type="line"/>
      <point x="136" y="419"/>
      <point x="153" y="416" type="qcurve"/>
      <point x="170" y="412"/>
      <point x="191" y="407" type="qcurve"/>
      <point x="212" y="401"/>
      <point x="222" y="399" type="qcurve"/>
      <point x="222" y="399"/>
      <point x="223" y="399" type="qcurve"/>
      <point x="309" y="395" type="line"/>
      <point x="314" y="395"/>
      <point x="314" y="400" type="qcurve"/>
      <point x="314" y="405"/>
      <point x="309" y="405" type="qcurve"/>
      <point x="224" y="409" type="line"/>
      <point x="213" y="411"/>
      <point x="192" y="417" type="qcurve"/>
      <point x="171" y="422"/>
      <point x="154" y="426" type="qcurve"/>
      <point x="136" y="429"/>
      <point x="121" y="429" type="qcurve"/>
      <point x="113" y="429" type="line"/>
      <point x="108" y="429"/>
      <point x="108" y="424" type="qcurve"/>
      <point x="108" y="419"/>
    </contour>
    <contour>
      <point x="191" y="286" type="qcurve"/>
      <point x="191" y="261"/>
      <point x="192" y="238" type="qcurve"/>
      <point x="189" y="224"/>
      <point x="189" y="199" type="qcurve"/>
      <point x="189" y="186"/>
      <point x="190" y="160" type="qcurve"/>
      <point x="191" y="134"/>
      <point x="191" y="122" type="qcurve"/>
      <point x="191" y="69"/>
      <point x="178" y="40" type="qcurve"/>
      <point x="164" y="11"/>
      <point x="125" y="11" type="qcurve"/>
      <point x="122" y="11"/>
      <point x="119" y="11" type="qcurve"/>
      <point x="95" y="12"/>
      <point x="87" y="16" type="qcurve"/>
      <point x="86" y="17"/>
      <point x="85" y="17" type="qcurve"/>
      <point x="80" y="17"/>
      <point x="80" y="12" type="qcurve"/>
      <point x="80" y="9"/>
      <point x="83" y="8" type="qcurve"/>
      <point x="92" y="2"/>
      <point x="119" y="1" type="qcurve"/>
      <point x="144" y="-1"/>
      <point x="162" y="9" type="qcurve"/>
      <point x="179" y="18"/>
      <point x="187" y="37" type="qcurve"/>
      <point x="195" y="56"/>
      <point x="198" y="76" type="qcurve"/>
      <point x="201" y="95"/>
      <point x="201" y="122" type="qcurve"/>
      <point x="201" y="134"/>
      <point x="200" y="160" type="qcurve"/>
      <point x="199" y="186"/>
      <point x="199" y="199" type="qcurve"/>
      <point x="199" y="223"/>
      <point x="202" y="237" type="qcurve"/>
      <point x="202" y="237"/>
      <point x="202" y="238" type="qcurve"/>
      <point x="201" y="261"/>
      <point x="201" y="286" type="qcurve"/>
      <point x="201" y="326"/>
      <point x="206" y="407" type="qcurve"/>
      <point x="210" y="488"/>
      <point x="210" y="529" type="qcurve"/>
      <point x="210" y="548"/>
      <point x="210" y="550" type="qcurve"/>
      <point x="208" y="569"/>
      <point x="208" y="608" type="qcurve"/>
      <point x="207" y="647"/>
      <point x="206" y="665" type="qcurve"/>
      <point x="223" y="665"/>
      <point x="246" y="675" type="qcurve"/>
      <point x="268" y="684"/>
      <point x="282" y="693" type="qcurve"/>
      <point x="296" y="701"/>
      <point x="324" y="720" type="qcurve"/>
      <point x="400" y="771"/>
      <point x="436" y="777" type="qcurve"/>
      <point x="443" y="778"/>
      <point x="450" y="778" type="qcurve"/>
      <point x="470" y="778"/>
      <point x="483" y="769" type="qcurve"/>
      <point x="496" y="759"/>
      <point x="496" y="740" type="qcurve"/>
      <point x="496" y="738"/>
      <point x="497" y="737" type="qcurve"/>
      <point x="502" y="731"/>
      <point x="506" y="714" type="qcurve"/>
      <point x="509" y="696"/>
      <point x="513" y="689" type="qcurve"/>
      <point x="514" y="687"/>
      <point x="517" y="687" type="qcurve"/>
      <point x="522" y="687"/>
      <point x="522" y="692" type="qcurve"/>
      <point x="522" y="693"/>
      <point x="521" y="695" type="qcurve"/>
      <point x="518" y="700"/>
      <point x="515" y="714" type="qcurve"/>
      <point x="511" y="734"/>
      <point x="506" y="742" type="qcurve"/>
      <point x="505" y="759"/>
      <point x="482" y="775" type="qcurve"/>
      <point x="459" y="791"/>
      <point x="449" y="791" type="qcurve"/>
      <point x="448" y="791"/>
      <point x="448" y="791" type="qcurve"/>
      <point x="448" y="790"/>
      <point x="450" y="788" type="qcurve"/>
      <point x="442" y="788"/>
      <point x="434" y="787" type="qcurve"/>
      <point x="416" y="784"/>
      <point x="394" y="774" type="qcurve"/>
      <point x="372" y="763"/>
      <point x="358" y="755" type="qcurve"/>
      <point x="344" y="746"/>
      <point x="318" y="728" type="qcurve"/>
      <point x="292" y="711"/>
      <point x="277" y="702" type="qcurve"/>
      <point x="261" y="692"/>
      <point x="241" y="684" type="qcurve"/>
      <point x="220" y="675"/>
      <point x="205" y="675" type="qcurve"/>
      <point x="199" y="729"/>
      <point x="173" y="759" type="qcurve"/>
      <point x="173" y="759"/>
      <point x="172" y="760" type="qcurve"/>
      <point x="122" y="808" type="line"/>
      <point x="121" y="809"/>
      <point x="119" y="809" type="qcurve"/>
      <point x="114" y="809"/>
      <point x="114" y="804" type="qcurve"/>
      <point x="112" y="748" type="line"/>
      <point x="112" y="746"/>
      <point x="114" y="744" type="qcurve"/>
      <point x="121" y="738"/>
      <point x="135" y="718" type="qcurve"/>
      <point x="145" y="703"/>
      <point x="151" y="695" type="qcurve"/>
      <point x="157" y="687"/>
      <point x="170" y="678" type="qcurve"/>
      <point x="182" y="668"/>
      <point x="196" y="666" type="qcurve"/>
      <point x="197" y="647"/>
      <point x="198" y="608" type="qcurve"/>
      <point x="198" y="569"/>
      <point x="200" y="550" type="qcurve"/>
      <point x="200" y="540"/>
      <point x="200" y="529" type="qcurve"/>
      <point x="200" y="488"/>
      <point x="196" y="407" type="qcurve"/>
      <point x="191" y="326"/>
    </contour>
    <contour>
      <point x="165" y="753" type="line"/>
      <point x="188" y="725"/>
      <point x="194" y="676" type="qcurve"/>
      <point x="184" y="679"/>
      <point x="174" y="687" type="qcurve"/>
      <point x="164" y="695"/>
      <point x="158" y="703" type="qcurve"/>
      <point x="152" y="710"/>
      <point x="143" y="724" type="qcurve"/>
      <point x="129" y="743"/>
      <point x="122" y="750" type="qcurve"/>
      <point x="124" y="793" type="line"/>
    </contour>
  </outline>
</glyph>
<glyph name="G.0" format="2">
  <advance width="569"/>
  <outline>
    <contour>
      <point x="257" y="233" type="qcurve"/>
      <point x="257" y="237"/>
      <point x="256" y="244" type="qcurve"/>
      <point x="255" y="251"/>
      <point x="255" y="253" type="qcurve"/>
      <point x="255" y="255"/>
      <point x="257" y="257" type="qcurve"/>
      <point x="266" y="266"/>
      <point x="284" y="266" type="qcurve"/>
      <point x="295" y="266"/>
      <point x="316" y="267" type="qcurve"/>
      <point x="337" y="268"/>
      <point x="347" y="268" type="qcurve"/>
      <point x="354" y="268"/>
      <point x="359" y="268" type="qcurve"/>
      <point x="365" y="267"/>
      <point x="367" y="265" type="qcurve"/>
      <point x="369" y="254" type="line"/>
      <point x="369" y="232"/>
      <point x="349" y="186" type="qcurve"/>
      <point x="325" y="131"/>
      <point x="325" y="98" type="qcurve"/>
      <point x="325" y="76"/>
      <point x="346" y="54" type="qcurve"/>
      <point x="352" y="48"/>
      <point x="353" y="46" type="qcurve"/>
      <point x="360" y="36"/>
      <point x="372" y="35" type="qcurve"/>
      <point x="418" y="31" type="line"/>
      <point x="419" y="31"/>
      <point x="420" y="31" type="qcurve"/>
      <point x="430" y="31"/>
      <point x="438" y="39" type="qcurve"/>
      <point x="445" y="46"/>
      <point x="445" y="56" type="qcurve"/>
      <point x="445" y="66"/>
      <point x="439" y="73" type="qcurve"/>
      <point x="432" y="80"/>
      <point x="422" y="81" type="qcurve"/>
      <point x="387" y="84" type="line"/>
      <point x="386" y="85"/>
      <point x="383" y="88" type="qcurve"/>
      <point x="375" y="96"/>
      <point x="375" y="98" type="qcurve"/>
      <point x="375" y="120"/>
      <point x="395" y="166" type="qcurve"/>
      <point x="419" y="221"/>
      <point x="419" y="254" type="qcurve"/>
      <point x="419" y="284"/>
      <point x="402" y="301" type="qcurve"/>
      <point x="389" y="314"/>
      <point x="365" y="317" type="qcurve"/>
      <point x="357" y="319"/>
      <point x="347" y="319" type="qcurve"/>
      <point x="336" y="319"/>
      <point x="316" y="318" type="qcurve"/>
      <point x="295" y="316"/>
      <point x="284" y="316" type="qcurve"/>
      <point x="245" y="316"/>
      <point x="222" y="293" type="qcurve"/>
      <point x="205" y="276"/>
      <point x="205" y="253" type="qcurve"/>
      <point x="205" y="249"/>
      <point x="206" y="243" type="qcurve"/>
      <point x="207" y="236"/>
      <point x="207" y="233" type="qcurve"/>
      <point x="207" y="209"/>
      <point x="231" y="173" type="qcurve"/>
      <point x="249" y="147"/>
      <point x="249" y="135" type="qcurve"/>
      <point x="249" y="87"/>
      <point x="224" y="63" type="qcurve"/>
      <point x="224" y="62"/>
      <point x="224" y="62" type="qcurve"/>
      <point x="196" y="32"/>
      <point x="149" y="28" type="qcurve"/>
      <point x="136" y="35"/>
      <point x="124" y="46" type="qcurve"/>
      <point x="81" y="89"/>
      <point x="59" y="200" type="qcurve"/>
      <point x="42" y="284"/>
      <point x="35" y="446" type="qcurve"/>
      <point x="33" y="484"/>
      <point x="33" y="487" type="qcurve"/>
      <point x="31" y="504"/>
      <point x="31" y="522" type="qcurve"/>
      <point x="31" y="576"/>
      <point x="48" y="624" type="qcurve"/>
      <point x="64" y="672"/>
      <point x="95" y="703" type="qcurve"/>
      <point x="141" y="749"/>
      <point x="211" y="749" type="qcurve"/>
      <point x="230" y="749"/>
      <point x="252" y="745" type="qcurve"/>
      <point x="253" y="745"/>
      <point x="255" y="745" type="qcurve"/>
      <point x="274" y="744"/>
      <point x="297" y="732" type="qcurve"/>
      <point x="314" y="723"/>
      <point x="356" y="689" type="qcurve"/>
      <point x="363" y="683"/>
      <point x="372" y="683" type="qcurve"/>
      <point x="382" y="683"/>
      <point x="390" y="691" type="qcurve"/>
      <point x="397" y="698"/>
      <point x="397" y="708" type="qcurve"/>
      <point x="397" y="720"/>
      <point x="388" y="727" type="qcurve"/>
      <point x="386" y="729"/>
      <point x="374" y="739" type="qcurve"/>
      <point x="361" y="749"/>
      <point x="357" y="752" type="qcurve"/>
      <point x="353" y="755"/>
      <point x="342" y="764" type="qcurve"/>
      <point x="330" y="772"/>
      <point x="323" y="776" type="qcurve"/>
      <point x="315" y="779"/>
      <point x="304" y="785" type="qcurve"/>
      <point x="292" y="790"/>
      <point x="281" y="792" type="qcurve"/>
      <point x="270" y="794"/>
      <point x="259" y="795" type="qcurve"/>
      <point x="235" y="799"/>
      <point x="212" y="799" type="qcurve"/>
      <point x="121" y="799"/>
      <point x="60" y="738" type="qcurve"/>
      <point x="21" y="699"/>
      <point x="1" y="643" type="qcurve"/>
      <point x="-19" y="586"/>
      <point x="-19" y="523" type="qcurve"/>
      <point x="-19" y="502"/>
      <point x="-17" y="482" type="qcurve"/>
      <point x="-16" y="471"/>
      <point x="-15" y="444" type="qcurve"/>
      <point x="-7" y="278"/>
      <point x="10" y="190" type="qcurve"/>
      <point x="35" y="64"/>
      <point x="89" y="11" type="qcurve"/>
      <point x="110" y="-10"/>
      <point x="135" y="-20" type="qcurve"/>
      <point x="139" y="-22"/>
      <point x="144" y="-22" type="qcurve"/>
      <point x="144" y="-22"/>
      <point x="145" y="-22" type="qcurve"/>
      <point x="216" y="-20"/>
      <point x="260" y="28" type="qcurve"/>
      <point x="277" y="45"/>
      <point x="289" y="84" type="qcurve"/>
      <point x="300" y="122"/>
      <point x="300" y="135" type="qcurve"/>
      <point x="300" y="136"/>
      <point x="300" y="136" type="qcurve"/>
      <point x="299" y="136"/>
      <point x="299" y="135" type="qcurve"/>
      <point x="299" y="162"/>
      <point x="273" y="201" type="qcurve"/>
      <point x="257" y="224"/>
    </contour>
  </outline>
</glyph>
<glyph name="G.1" format="2">
  <advance width="569"/>
  <outline>
    <contour>
      <point x="364" y="253" type="qcurve"/>
      <point x="364" y="268"/>
      <point x="379" y="277" type="qcurve"/>
      <point x="394" y="286"/>
      <point x="413" y="286" type="qcurve"/>
      <point x="424" y="286"/>
      <point x="445" y="288" type="qcurve"/>
      <point x="466" y="289"/>
      <point x="476" y="289" type="qcurve"/>
      <point x="496" y="289"/>
      <point x="505" y="284" type="qcurve"/>
      <point x="518" y="276"/>
      <point x="518" y="254" type="qcurve"/>
      <point x="518" y="227"/>
      <point x="496" y="177" type="qcurve"/>
      <point x="474" y="126"/>
      <point x="474" y="98" type="qcurve"/>
      <point x="474" y="89"/>
      <point x="478" y="82" type="qcurve"/>
      <point x="482" y="75"/>
      <point x="490" y="68" type="qcurve"/>
      <point x="497" y="61"/>
      <point x="499" y="57" type="qcurve"/>
      <point x="500" y="55"/>
      <point x="503" y="55" type="qcurve"/>
      <point x="549" y="51" type="line"/>
      <point x="554" y="51"/>
      <point x="554" y="56" type="qcurve"/>
      <point x="554" y="61"/>
      <point x="549" y="61" type="qcurve"/>
      <point x="506" y="65" type="line"/>
      <point x="504" y="67"/>
      <point x="498" y="74" type="qcurve"/>
      <point x="491" y="81"/>
      <point x="488" y="87" type="qcurve"/>
      <point x="484" y="92"/>
      <point x="484" y="98" type="qcurve"/>
      <point x="484" y="125"/>
      <point x="506" y="176" type="qcurve"/>
      <point x="528" y="226"/>
      <point x="528" y="254" type="qcurve"/>
      <point x="528" y="282"/>
      <point x="510" y="292" type="qcurve"/>
      <point x="498" y="299"/>
      <point x="476" y="299" type="qcurve"/>
      <point x="466" y="299"/>
      <point x="445" y="298" type="qcurve"/>
      <point x="424" y="296"/>
      <point x="413" y="296" type="qcurve"/>
      <point x="391" y="296"/>
      <point x="373" y="285" type="qcurve"/>
      <point x="354" y="274"/>
      <point x="354" y="253" type="qcurve"/>
      <point x="354" y="250"/>
      <point x="355" y="243" type="qcurve"/>
      <point x="356" y="236"/>
      <point x="356" y="233" type="qcurve"/>
      <point x="356" y="215"/>
      <point x="377" y="184" type="qcurve"/>
      <point x="398" y="153"/>
      <point x="398" y="135" type="qcurve"/>
      <point x="398" y="79"/>
      <point x="367" y="49" type="qcurve"/>
      <point x="367" y="48" type="line"/>
      <point x="332" y="10"/>
      <point x="274" y="8" type="qcurve"/>
      <point x="209" y="35"/>
      <point x="176" y="162" type="qcurve"/>
      <point x="153" y="255"/>
      <point x="144" y="445" type="qcurve"/>
      <point x="142" y="482"/>
      <point x="142" y="485" type="qcurve"/>
      <point x="140" y="503"/>
      <point x="140" y="522" type="qcurve"/>
      <point x="140" y="588"/>
      <point x="161" y="643" type="qcurve"/>
      <point x="182" y="697"/>
      <point x="229" y="733" type="qcurve"/>
      <point x="276" y="769"/>
      <point x="340" y="769" type="qcurve"/>
      <point x="361" y="769"/>
      <point x="384" y="765" type="qcurve"/>
      <point x="384" y="765"/>
      <point x="385" y="765" type="qcurve"/>
      <point x="391" y="765"/>
      <point x="398" y="764" type="qcurve"/>
      <point x="405" y="762"/>
      <point x="411" y="761" type="qcurve"/>
      <point x="416" y="759"/>
      <point x="423" y="756" type="qcurve"/>
      <point x="430" y="752"/>
      <point x="435" y="750" type="qcurve"/>
      <point x="439" y="748"/>
      <point x="446" y="743" type="qcurve"/>
      <point x="453" y="738"/>
      <point x="457" y="736" type="qcurve"/>
      <point x="460" y="734"/>
      <point x="468" y="728" type="qcurve"/>
      <point x="476" y="722"/>
      <point x="479" y="720" type="qcurve"/>
      <point x="481" y="718"/>
      <point x="489" y="712" type="qcurve"/>
      <point x="496" y="705"/>
      <point x="498" y="704" type="qcurve"/>
      <point x="499" y="703"/>
      <point x="501" y="703" type="qcurve"/>
      <point x="506" y="703"/>
      <point x="506" y="708" type="qcurve"/>
      <point x="506" y="710"/>
      <point x="504" y="712" type="qcurve"/>
      <point x="503" y="713"/>
      <point x="493" y="722" type="qcurve"/>
      <point x="482" y="730"/>
      <point x="479" y="733" type="qcurve"/>
      <point x="476" y="735"/>
      <point x="466" y="743" type="qcurve"/>
      <point x="456" y="750"/>
      <point x="451" y="753" type="qcurve"/>
      <point x="446" y="755"/>
      <point x="437" y="761" type="qcurve"/>
      <point x="427" y="766"/>
      <point x="420" y="768" type="qcurve"/>
      <point x="413" y="770"/>
      <point x="404" y="773" type="qcurve"/>
      <point x="394" y="775"/>
      <point x="386" y="775" type="qcurve"/>
      <point x="362" y="779"/>
      <point x="340" y="779" type="qcurve"/>
      <point x="272" y="779"/>
      <point x="223" y="741" type="qcurve"/>
      <point x="174" y="703"/>
      <point x="152" y="646" type="qcurve"/>
      <point x="130" y="589"/>
      <point x="130" y="522" type="qcurve"/>
      <point x="130" y="503"/>
      <point x="132" y="484" type="qcurve"/>
      <point x="133" y="472"/>
      <point x="134" y="445" type="qcurve"/>
      <point x="143" y="253"/>
      <point x="167" y="159" type="qcurve"/>
      <point x="200" y="27"/>
      <point x="271" y="-2" type="qcurve"/>
      <point x="272" y="-2"/>
      <point x="273" y="-2" type="qcurve"/>
      <point x="336" y="0"/>
      <point x="375" y="42" type="qcurve"/>
      <point x="408" y="75"/>
      <point x="408" y="135" type="qcurve"/>
      <point x="408" y="156"/>
      <point x="385" y="190" type="qcurve"/>
      <point x="366" y="218"/>
      <point x="366" y="233" type="qcurve"/>
      <point x="366" y="237"/>
      <point x="365" y="244" type="qcurve"/>
      <point x="364" y="250"/>
    </contour>
  </outline>
</glyph>
<glyph name="G.2" format="2">
  <advance width="569"/>
  <outline>
    <contour>
      <point x="314" y="253" type="qcurve"/>
      <point x="314" y="268"/>
      <point x="329" y="277" type="qcurve"/>
      <point x="344" y="286"/>
      <point x="363" y="286" type="qcurve"/>
      <point x="374" y="286"/>
      <point x="395" y="288" type="qcurve"/>
      <point x="416" y="289"/>
      <point x="426" y="289" type="qcurve"/>
      <point x="446" y="289"/>
      <point x="455" y="284" type="qcurve"/>
      <point x="468" y="276"/>
      <point x="468" y="254" type="qcurve"/>
      <point x="468" y="227"/>
      <point x="446" y="177" type="qcurve"/>
      <point x="424" y="126"/>
      <point x="424" y="98" type="qcurve"/>
      <point x="424" y="89"/>
      <point x="428" y="82" type="qcurve"/>
      <point x="432" y="75"/>
      <point x="440" y="68" type="qcurve"/>
      <point x="447" y="61"/>
      <point x="449" y="57" type="qcurve"/>
      <point x="450" y="55"/>
      <point x="453" y="55" type="qcurve"/>
      <point x="499" y="51" type="line"/>
      <point x="504" y="51"/>
      <point x="504" y="56" type="qcurve"/>
      <point x="504" y="61"/>
      <point x="499" y="61" type="qcurve"/>
      <point x="456" y="65" type="line"/>
      <point x="454" y="67"/>
      <point x="448" y="74" type="qcurve"/>
      <point x="441" y="81"/>
      <point x="438" y="87" type="qcurve"/>
      <point x="434" y="92"/>
      <point x="434" y="98" type="qcurve"/>
      <point x="434" y="125"/>
      <point x="456" y="176" type="qcurve"/>
      <point x="478" y="226"/>
      <point x="478" y="254" type="qcurve"/>
      <point x="478" y="282"/>
      <point x="460" y="292" type="qcurve"/>
      <point x="448" y="299"/>
      <point x="426" y="299" type="qcurve"/>
      <point x="416" y="299"/>
      <point x="395" y="298" type="qcurve"/>
      <point x="374" y="296"/>
      <point x="363" y="296" type="qcurve"/>
      <point x="341" y="296"/>
      <point x="323" y="285" type="qcurve"/>
      <point x="304" y="274"/>
      <point x="304" y="253" type="qcurve"/>
      <point x="304" y="250"/>
      <point x="305" y="243" type="qcurve"/>
      <point x="306" y="236"/>
      <point x="306" y="233" type="qcurve"/>
      <point x="306" y="215"/>
      <point x="327" y="184" type="qcurve"/>
      <point x="348" y="153"/>
      <point x="348" y="135" type="qcurve"/>
      <point x="348" y="79"/>
      <point x="317" y="49" type="qcurve"/>
      <point x="317" y="48" type="line"/>
      <point x="282" y="10"/>
      <point x="224" y="8" type="qcurve"/>
      <point x="159" y="35"/>
      <point x="126" y="162" type="qcurve"/>
      <point x="103" y="255"/>
      <point x="94" y="445" type="qcurve"/>
      <point x="92" y="482"/>
      <point x="92" y="485" type="qcurve"/>
      <point x="90" y="503"/>
      <point x="90" y="522" type="qcurve"/>
      <point x="90" y="588"/>
      <point x="111" y="643" type="qcurve"/>
      <point x="132" y="697"/>
      <point x="179" y="733" type="qcurve"/>
      <point x="226" y="769"/>
      <point x="290" y="769" type="qcurve"/>
      <point x="311" y="769"/>
      <point x="334" y="765" type="qcurve"/>
      <point x="334" y="765"/>
      <point x="335" y="765" type="qcurve"/>
      <point x="341" y="765"/>
      <point x="348" y="764" type="qcurve"/>
      <point x="355" y="762"/>
      <point x="361" y="761" type="qcurve"/>
      <point x="366" y="759"/>
      <point x="373" y="756" type="qcurve"/>
      <point x="380" y="752"/>
      <point x="385" y="750" type="qcurve"/>
      <point x="389" y="748"/>
      <point x="396" y="743" type="qcurve"/>
      <point x="403" y="738"/>
      <point x="407" y="736" type="qcurve"/>
      <point x="410" y="734"/>
      <point x="418" y="728" type="qcurve"/>
      <point x="426" y="722"/>
      <point x="429" y="720" type="qcurve"/>
      <point x="431" y="718"/>
      <point x="439" y="712" type="qcurve"/>
      <point x="446" y="705"/>
      <point x="448" y="704" type="qcurve"/>
      <point x="449" y="703"/>
      <point x="451" y="703" type="qcurve"/>
      <point x="456" y="703"/>
      <point x="456" y="708" type="qcurve"/>
      <point x="456" y="710"/>
      <point x="454" y="712" type="qcurve"/>
      <point x="453" y="713"/>
      <point x="443" y="722" type="qcurve"/>
      <point x="432" y="730"/>
      <point x="429" y="733" type="qcurve"/>
      <point x="426" y="735"/>
      <point x="416" y="743" type="qcurve"/>
      <point x="406" y="750"/>
      <point x="401" y="753" type="qcurve"/>
      <point x="396" y="755"/>
      <point x="387" y="761" type="qcurve"/>
      <point x="377" y="766"/>
      <point x="370" y="768" type="qcurve"/>
      <point x="363" y="770"/>
      <point x="354" y="773" type="qcurve"/>
      <point x="344" y="775"/>
      <point x="336" y="775" type="qcurve"/>
      <point x="312" y="779"/>
      <point x="290" y="779" type="qcurve"/>
      <point x="222" y="779"/>
      <point x="173" y="741" type="qcurve"/>
      <point x="124" y="703"/>
      <point x="102" y="646" type="qcurve"/>
      <point x="80" y="589"/>
      <point x="80" y="522" type="qcurve"/>
      <point x="80" y="503"/>
      <point x="82" y="484" type="qcurve"/>
      <point x="83" y="472"/>
      <point x="84" y="445" type="qcurve"/>
      <point x="93" y="253"/>
      <point x="117" y="159" type="qcurve"/>
      <point x="150" y="27"/>
      <point x="221" y="-2" type="qcurve"/>
      <point x="222" y="-2"/>
      <point x="223" y="-2" type="qcurve"/>
      <point x="286" y="0"/>
      <point x="325" y="42" type="qcurve"/>
      <point x="358" y="75"/>
      <point x="358" y="135" type="qcurve"/>
      <point x="358" y="156"/>
      <point x="335" y="190" type="qcurve"/>
      <point x="316" y="218"/>
      <point x="316" y="233" type="qcurve"/>
      <point x="316" y="237"/>
      <point x="315" y="244" type="qcurve"/>
      <point x="314" y="250"/>
    </contour>
  </outline>
</glyph>
<glyph name="H.1" format="2">
  <advance width="826"/>
  <outline>
    <contour>
      <point x="408" y="746" type="qcurve"/>
      <point x="412" y="755"/>
      <point x="417" y="761" type="qcurve"/>
      <point x="414" y="752"/>
    </contour>
    <contour>
      <point x="403" y="310" type="qcurve"/>
      <point x="394" y="482"/>
      <point x="394" y="532" type="qcurve"/>
      <point x="394" y="570"/>
      <point x="396" y="604" type="qcurve"/>
      <point x="396" y="604"/>
      <point x="396" y="605" type="qcurve"/>
      <point x="394" y="621"/>
      <point x="394" y="643" type="qcurve"/>
      <point x="394" y="695"/>
      <point x="403" y="731" type="qcurve"/>
      <point x="428" y="743"/>
      <point x="428" y="772" type="qcurve"/>
      <point x="428" y="777"/>
      <point x="423" y="777" type="qcurve"/>
      <point x="422" y="777"/>
      <point x="421" y="777" type="qcurve"/>
      <point x="404" y="770"/>
      <point x="395" y="738" type="qcurve"/>
      <point x="387" y="735"/>
      <point x="377" y="735" type="qcurve"/>
      <point x="339" y="735"/>
      <point x="278" y="765" type="qcurve"/>
      <point x="214" y="797"/>
      <point x="173" y="797" type="qcurve"/>
      <point x="166" y="797"/>
      <point x="159" y="796" type="qcurve"/>
      <point x="152" y="794"/>
      <point x="145" y="791" type="qcurve"/>
      <point x="138" y="788"/>
      <point x="134" y="787" type="qcurve"/>
      <point x="130" y="786"/>
      <point x="130" y="782" type="qcurve"/>
      <point x="130" y="716" type="line"/>
      <point x="130" y="716"/>
      <point x="130" y="715" type="qcurve"/>
      <point x="140" y="665" type="line"/>
      <point x="141" y="661"/>
      <point x="145" y="661" type="qcurve"/>
      <point x="150" y="661"/>
      <point x="150" y="666" type="qcurve"/>
      <point x="150" y="666"/>
      <point x="150" y="667" type="qcurve"/>
      <point x="140" y="716" type="line"/>
      <point x="140" y="778" type="line"/>
      <point x="167" y="787"/>
      <point x="173" y="787" type="qcurve"/>
      <point x="212" y="787"/>
      <point x="275" y="756" type="qcurve"/>
      <point x="337" y="725"/>
      <point x="377" y="725" type="qcurve"/>
      <point x="385" y="725"/>
      <point x="392" y="727" type="qcurve"/>
      <point x="384" y="691"/>
      <point x="384" y="643" type="qcurve"/>
      <point x="384" y="621"/>
      <point x="386" y="604" type="qcurve"/>
      <point x="384" y="570"/>
      <point x="384" y="532" type="qcurve"/>
      <point x="384" y="486"/>
      <point x="393" y="302" type="qcurve"/>
      <point x="329" y="248"/>
      <point x="289" y="198" type="qcurve"/>
      <point x="248" y="148"/>
      <point x="232" y="87" type="qcurve"/>
      <point x="231" y="82"/>
      <point x="231" y="74" type="qcurve"/>
      <point x="231" y="43"/>
      <point x="260" y="22" type="qcurve"/>
      <point x="289" y="0"/>
      <point x="321" y="-1" type="qcurve"/>
      <point x="407" y="-1"/>
      <point x="407" y="177" type="qcurve"/>
      <point x="407" y="220"/>
      <point x="403" y="297" type="qcurve"/>
      <point x="419" y="310"/>
      <point x="459" y="342" type="qcurve"/>
      <point x="499" y="374"/>
      <point x="520" y="392" type="qcurve"/>
      <point x="541" y="410"/>
      <point x="571" y="439" type="qcurve"/>
      <point x="600" y="468"/>
      <point x="620" y="495" type="qcurve"/>
      <point x="620" y="493"/>
      <point x="620" y="492" type="qcurve"/>
      <point x="634" y="449"/>
      <point x="636" y="330" type="qcurve"/>
      <point x="636" y="296"/>
      <point x="637" y="280" type="qcurve"/>
      <point x="637" y="264"/>
      <point x="639" y="232" type="qcurve"/>
      <point x="641" y="200"/>
      <point x="645" y="183" type="qcurve"/>
      <point x="648" y="166"/>
      <point x="656" y="141" type="qcurve"/>
      <point x="663" y="116"/>
      <point x="673" y="101" type="qcurve"/>
      <point x="683" y="86"/>
      <point x="699" y="72" type="qcurve"/>
      <point x="715" y="58"/>
      <point x="735" y="49" type="qcurve"/>
      <point x="739" y="48"/>
      <point x="755" y="40" type="qcurve"/>
      <point x="771" y="32"/>
      <point x="785" y="25" type="qcurve"/>
      <point x="799" y="17"/>
      <point x="799" y="17" type="qcurve"/>
      <point x="806" y="15"/>
      <point x="807" y="15" type="qcurve"/>
      <point x="812" y="15"/>
      <point x="812" y="20" type="qcurve"/>
      <point x="812" y="24"/>
      <point x="803" y="27" type="qcurve"/>
      <point x="748" y="55"/>
      <point x="739" y="59" type="qcurve"/>
      <point x="717" y="67"/>
      <point x="701" y="82" type="qcurve"/>
      <point x="685" y="97"/>
      <point x="675" y="120" type="qcurve"/>
      <point x="665" y="143"/>
      <point x="659" y="164" type="qcurve"/>
      <point x="653" y="184"/>
      <point x="651" y="217" type="qcurve"/>
      <point x="648" y="250"/>
      <point x="647" y="271" type="qcurve"/>
      <point x="646" y="292"/>
      <point x="646" y="330" type="qcurve"/>
      <point x="644" y="450"/>
      <point x="630" y="495" type="qcurve"/>
      <point x="629" y="501"/>
      <point x="629" y="507" type="qcurve"/>
      <point x="686" y="590"/>
      <point x="686" y="686" type="qcurve"/>
      <point x="686" y="717"/>
      <point x="680" y="751" type="qcurve"/>
      <point x="680" y="752"/>
      <point x="680" y="758" type="qcurve"/>
      <point x="680" y="771"/>
      <point x="679" y="777" type="qcurve"/>
      <point x="677" y="789"/>
      <point x="669" y="789" type="qcurve"/>
      <point x="656" y="789"/>
      <point x="646" y="773" type="qcurve"/>
      <point x="636" y="757"/>
      <point x="628" y="727" type="qcurve"/>
      <point x="612" y="668"/>
      <point x="612" y="628" type="qcurve"/>
      <point x="611" y="617"/>
      <point x="611" y="605" type="qcurve"/>
      <point x="611" y="579"/>
      <point x="618" y="510" type="qcurve"/>
      <point x="599" y="483"/>
      <point x="570" y="453" type="qcurve"/>
      <point x="540" y="422"/>
      <point x="522" y="407" type="qcurve"/>
      <point x="504" y="391"/>
      <point x="458" y="354" type="qcurve"/>
      <point x="411" y="317"/>
    </contour>
    <contour>
      <point x="668" y="779" type="qcurve"/>
      <point x="670" y="774"/>
      <point x="670" y="757" type="qcurve"/>
      <point x="670" y="756" type="line"/>
      <point x="670" y="751"/>
      <point x="670" y="749" type="qcurve"/>
      <point x="676" y="716"/>
      <point x="676" y="686" type="qcurve"/>
      <point x="676" y="598"/>
      <point x="627" y="523" type="qcurve"/>
      <point x="621" y="578"/>
      <point x="621" y="605" type="qcurve"/>
      <point x="621" y="609"/>
      <point x="622" y="617" type="qcurve"/>
      <point x="622" y="624"/>
      <point x="622" y="628" type="qcurve"/>
      <point x="622" y="666"/>
      <point x="638" y="724" type="qcurve"/>
      <point x="645" y="753"/>
      <point x="655" y="767" type="qcurve"/>
      <point x="661" y="778"/>
    </contour>
    <contour>
      <point x="394" y="289" type="qcurve"/>
      <point x="397" y="217"/>
      <point x="397" y="177" type="qcurve"/>
      <point x="397" y="9"/>
      <point x="321" y="9" type="qcurve"/>
      <point x="293" y="10"/>
      <point x="267" y="30" type="qcurve"/>
      <point x="241" y="49"/>
      <point x="241" y="74" type="qcurve"/>
      <point x="241" y="80"/>
      <point x="242" y="85" type="qcurve"/>
      <point x="257" y="142"/>
      <point x="295" y="190" type="qcurve"/>
      <point x="333" y="238"/>
    </contour>
  </outline>
</glyph>
<glyph name="H.2" format="2">
  <advance width="826"/>
  <outline>
    <contour>
      <point x="358" y="746" type="qcurve"/>
      <point x="362" y="755"/>
      <point x="367" y="761" type="qcurve"/>
      <point x="364" y="752"/>
    </contour>
    <contour>
      <point x="353" y="310" type="qcurve"/>
      <point x="344" y="482"/>
      <point x="344" y="532" type="qcurve"/>
      <point x="344" y="570"/>
      <point x="346" y="604" type="qcurve"/>
      <point x="346" y="604"/>
      <point x="346" y="605" type="qcurve"/>
      <point x="344" y="621"/>
      <point x="344" y="643" type="qcurve"/>
      <point x="344" y="695"/>
      <point x="353" y="731" type="qcurve"/>
      <point x="378" y="743"/>
      <point x="378" y="772" type="qcurve"/>
      <point x="378" y="777"/>
      <point x="373" y="777" type="qcurve"/>
      <point x="372" y="777"/>
      <point x="371" y="777" type="qcurve"/>
      <point x="354" y="770"/>
      <point x="345" y="738" type="qcurve"/>
      <point x="337" y="735"/>
      <point x="327" y="735" type="qcurve"/>
      <point x="289" y="735"/>
      <point x="228" y="765" type="qcurve"/>
      <point x="164" y="797"/>
      <point x="123" y="797" type="qcurve"/>
      <point x="116" y="797"/>
      <point x="109" y="796" type="qcurve"/>
      <point x="102" y="794"/>
      <point x="95" y="791" type="qcurve"/>
      <point x="88" y="788"/>
      <point x="84" y="787" type="qcurve"/>
      <point x="80" y="786"/>
      <point x="80" y="782" type="qcurve"/>
      <point x="80" y="716" type="line"/>
      <point x="80" y="716"/>
      <point x="80" y="715" type="qcurve"/>
      <point x="90" y="665" type="line"/>
      <point x="91" y="661"/>
      <point x="95" y="661" type="qcurve"/>
      <point x="100" y="661"/>
      <point x="100" y="666" type="qcurve"/>
      <point x="100" y="666"/>
      <point x="100" y="667" type="qcurve"/>
      <point x="90" y="716" type="line"/>
      <point x="90" y="778" type="line"/>
      <point x="117" y="787"/>
      <point x="123" y="787" type="qcurve"/>
      <point x="162" y="787"/>
      <point x="225" y="756" type="qcurve"/>
      <point x="287" y="725"/>
      <point x="327" y="725" type="qcurve"/>
      <point x="335" y="725"/>
      <point x="342" y="727" type="qcurve"/>
      <point x="334" y="691"/>
      <point x="334" y="643" type="qcurve"/>
      <point x="334" y="621"/>
      <point x="336" y="604" type="qcurve"/>
      <point x="334" y="570"/>
      <point x="334" y="532" type="qcurve"/>
      <point x="334" y="486"/>
      <point x="343" y="302" type="qcurve"/>
      <point x="279" y="248"/>
      <point x="239" y="198" type="qcurve"/>
      <point x="198" y="148"/>
      <point x="182" y="87" type="qcurve"/>
      <point x="181" y="82"/>
      <point x="181" y="74" type="qcurve"/>
      <point x="181" y="43"/>
      <point x="210" y="22" type="qcurve"/>
      <point x="239" y="0"/>
      <point x="271" y="-1" type="qcurve"/>
      <point x="357" y="-1"/>
      <point x="357" y="177" type="qcurve"/>
      <point x="357" y="220"/>
      <point x="353" y="297" type="qcurve"/>
      <point x="369" y="310"/>
      <point x="409" y="342" type="qcurve"/>
      <point x="449" y="374"/>
      <point x="470" y="392" type="qcurve"/>
      <point x="491" y="410"/>
      <point x="521" y="439" type="qcurve"/>
      <point x="550" y="468"/>
      <point x="570" y="495" type="qcurve"/>
      <point x="570" y="493"/>
      <point x="570" y="492" type="qcurve"/>
      <point x="584" y="449"/>
      <point x="586" y="330" type="qcurve"/>
      <point x="586" y="296"/>
      <point x="587" y="280" type="qcurve"/>
      <point x="587" y="264"/>
      <point x="589" y="232" type="qcurve"/>
      <point x="591" y="200"/>
      <point x="595" y="183" type="qcurve"/>
      <point x="598" y="166"/>
      <point x="606" y="141" type="qcurve"/>
      <point x="613" y="116"/>
      <point x="623" y="101" type="qcurve"/>
      <point x="633" y="86"/>
      <point x="649" y="72" type="qcurve"/>
      <point x="665" y="58"/>
      <point x="685" y="49" type="qcurve"/>
      <point x="689" y="48"/>
      <point x="705" y="40" type="qcurve"/>
      <point x="721" y="32"/>
      <point x="735" y="25" type="qcurve"/>
      <point x="749" y="17"/>
      <point x="749" y="17" type="qcurve"/>
      <point x="756" y="15"/>
      <point x="757" y="15" type="qcurve"/>
      <point x="762" y="15"/>
      <point x="762" y="20" type="qcurve"/>
      <point x="762" y="24"/>
      <point x="753" y="27" type="qcurve"/>
      <point x="698" y="55"/>
      <point x="689" y="59" type="qcurve"/>
      <point x="667" y="67"/>
      <point x="651" y="82" type="qcurve"/>
      <point x="635" y="97"/>
      <point x="625" y="120" type="qcurve"/>
      <point x="615" y="143"/>
      <point x="609" y="164" type="qcurve"/>
      <point x="603" y="184"/>
      <point x="601" y="217" type="qcurve"/>
      <point x="598" y="250"/>
      <point x="597" y="271" type="qcurve"/>
      <point x="596" y="292"/>
      <point x="596" y="330" type="qcurve"/>
      <point x="594" y="450"/>
      <point x="580" y="495" type="qcurve"/>
      <point x="579" y="501"/>
      <point x="579" y="507" type="qcurve"/>
      <point x="636" y="590"/>
      <point x="636" y="686" type="qcurve"/>
      <point x="636" y="717"/>
      <point x="630" y="751" type="qcurve"/>
      <point x="630" y="752"/>
      <point x="630" y="758" type="qcurve"/>
      <point x="630" y="771"/>
      <point x="629" y="777" type="qcurve"/>
      <point x="627" y="789"/>
      <point x="619" y="789" type="qcurve"/>
      <point x="606" y="789"/>
      <point x="596" y="773" type="qcurve"/>
      <point x="586" y="757"/>
      <point x="578" y="727" type="qcurve"/>
      <point x="562" y="668"/>
      <point x="562" y="628" type="qcurve"/>
      <point x="561" y="617"/>
      <point x="561" y="605" type="qcurve"/>
      <point x="561" y="579"/>
      <point x="568" y="510" type="qcurve"/>
      <point x="549" y="483"/>
      <point x="520" y="453" type="qcurve"/>
      <point x="490" y="422"/>
      <point x="472" y="407" type="qcurve"/>
      <point x="454" y="391"/>
      <point x="408" y="354" type="qcurve"/>
      <point x="361" y="317"/>
    </contour>
    <contour>
      <point x="618" y="779" type="qcurve"/>
      <point x="620" y="774"/>
      <point x="620" y="757" type="qcurve"/>
      <point x="620" y="756" type="line"/>
      <point x="620" y="751"/>
      <point x="620" y="749" type="qcurve"/>
      <point x="626" y="716"/>
      <point x="626" y="686" type="qcurve"/>
      <point x="626" y="598"/>
      <point x="577" y="523" type="qcurve"/>
      <point x="571" y="578"/>
      <point x="571" y="605" type="qcurve"/>
      <point x="571" y="609"/>
      <point x="572" y="617" type="qcurve"/>
      <point x="572" y="624"/>
      <point x="572" y="628" type="qcurve"/>
      <point x="572" y="666"/>
      <point x="588" y="724" type="qcurve"/>
      <point x="595" y="753"/>
      <point x="605" y="767" type="qcurve"/>
      <point x="611" y="778"/>
    </contour>
    <contour>
      <point x="344" y="289" type="qcurve"/>
      <point x="347" y="217"/>
      <point x="347" y="177" type="qcurve"/>
      <point x="347" y="9"/>
      <point x="271" y="9" type="qcurve"/>
      <point x="243" y="10"/>
      <point x="217" y="30" type="qcurve"/>
      <point x="191" y="49"/>
      <point x="191" y="74" type="qcurve"/>
      <point x="191" y="80"/>
      <point x="192" y="85" type="qcurve"/>
      <point x="207" y="142"/>
      <point x="245" y="190" type="qcurve"/>
      <point x="283" y="238"/>
    </contour>
  </outline>
</glyph>
<glyph name="I.1" format="2">
  <advance width="330"/>
  <outline>
    <contour>
      <point x="268" y="817" type="qcurve"/>
      <point x="268" y="818"/>
      <point x="268" y="821" type="qcurve"/>
      <point x="268" y="824"/>
      <point x="268" y="824" type="qcurve"/>
      <point x="268" y="829"/>
      <point x="263" y="829" type="qcurve"/>
      <point x="263" y="829"/>
      <point x="262" y="829" type="qcurve"/>
      <point x="216" y="823"/>
      <point x="173" y="775" type="qcurve"/>
      <point x="130" y="727"/>
      <point x="130" y="677" type="qcurve"/>
      <point x="130" y="636"/>
      <point x="162" y="608" type="qcurve"/>
      <point x="163" y="607"/>
      <point x="165" y="607" type="qcurve"/>
      <point x="263" y="607" type="line"/>
      <point x="268" y="607"/>
      <point x="268" y="612" type="qcurve"/>
      <point x="268" y="617"/>
      <point x="263" y="617" type="qcurve"/>
      <point x="167" y="617" type="line"/>
      <point x="140" y="641"/>
      <point x="140" y="677" type="qcurve"/>
      <point x="140" y="721"/>
      <point x="178" y="766" type="qcurve"/>
      <point x="216" y="810"/>
      <point x="258" y="818" type="qcurve"/>
      <point x="258" y="817"/>
      <point x="258" y="817" type="qcurve"/>
      <point x="258" y="704"/>
      <point x="282" y="482" type="qcurve"/>
      <point x="306" y="259"/>
      <point x="306" y="144" type="qcurve"/>
      <point x="306" y="91"/>
      <point x="277" y="46" type="qcurve"/>
      <point x="248" y="0"/>
      <point x="215" y="0" type="qcurve"/>
      <point x="184" y="0"/>
      <point x="162" y="48" type="qcurve"/>
      <point x="150" y="97" type="line"/>
      <point x="149" y="101"/>
      <point x="145" y="101" type="qcurve"/>
      <point x="140" y="101"/>
      <point x="140" y="96" type="qcurve"/>
      <point x="140" y="95"/>
      <point x="140" y="95" type="qcurve"/>
      <point x="152" y="45" type="line"/>
      <point x="152" y="44"/>
      <point x="152" y="44" type="qcurve"/>
      <point x="177" y="-10"/>
      <point x="215" y="-10" type="qcurve"/>
      <point x="254" y="-10"/>
      <point x="285" y="39" type="qcurve"/>
      <point x="316" y="88"/>
      <point x="316" y="144" type="qcurve"/>
      <point x="316" y="259"/>
      <point x="292" y="482" type="qcurve"/>
      <point x="268" y="704"/>
    </contour>
  </outline>
</glyph>
<glyph name="I.2" format="2">
  <advance width="330"/>
  <outline>
    <contour>
      <point x="218" y="817" type="qcurve"/>
      <point x="218" y="818"/>
      <point x="218" y="821" type="qcurve"/>
      <point x="218" y="824"/>
      <point x="218" y="824" type="qcurve"/>
      <point x="218" y="829"/>
      <point x="213" y="829" type="qcurve"/>
      <point x="213" y="829"/>
      <point x="212" y="829" type="qcurve"/>
      <point x="166" y="823"/>
      <point x="123" y="775" type="qcurve"/>
      <point x="80" y="727"/>
      <point x="80" y="677" type="qcurve"/>
      <point x="80" y="636"/>
      <point x="112" y="608" type="qcurve"/>
      <point x="113" y="607"/>
      <point x="115" y="607" type="qcurve"/>
      <point x="213" y="607" type="line"/>
      <point x="218" y="607"/>
      <point x="218" y="612" type="qcurve"/>
      <point x="218" y="617"/>
      <point x="213" y="617" type="qcurve"/>
      <point x="117" y="617" type="line"/>
      <point x="90" y="641"/>
      <point x="90" y="677" type="qcurve"/>
      <point x="90" y="721"/>
      <point x="128" y="766" type="qcurve"/>
      <point x="166" y="810"/>
      <point x="208" y="818" type="qcurve"/>
      <point x="208" y="817"/>
      <point x="208" y="817" type="qcurve"/>
      <point x="208" y="704"/>
      <point x="232" y="482" type="qcurve"/>
      <point x="256" y="259"/>
      <point x="256" y="144" type="qcurve"/>
      <point x="256" y="91"/>
      <point x="227" y="46" type="qcurve"/>
      <point x="198" y="0"/>
      <point x="165" y="0" type="qcurve"/>
      <point x="134" y="0"/>
      <point x="112" y="48" type="qcurve"/>
      <point x="100" y="97" type="line"/>
      <point x="99" y="101"/>
      <point x="95" y="101" type="qcurve"/>
      <point x="90" y="101"/>
      <point x="90" y="96" type="qcurve"/>
      <point x="90" y="95"/>
      <point x="90" y="95" type="qcurve"/>
      <point x="102" y="45" type="line"/>
      <point x="102" y="44"/>
      <point x="102" y="44" type="qcurve"/>
      <point x="127" y="-10"/>
      <point x="165" y="-10" type="qcurve"/>
      <point x="204" y="-10"/>
      <point x="235" y="39" type="qcurve"/>
      <point x="266" y="88"/>
      <point x="266" y="144" type="qcurve"/>
      <point x="266" y="259"/>
      <point x="242" y="482" type="qcurve"/>
      <point x="218" y="704"/>
    </contour>
  </outline>
</glyph>
